<svg width="1439" height="770" fill="none" xmlns="http://www.w3.org/2000/svg"><path fill-rule="evenodd" clip-rule="evenodd" d="M737.989 29.304c-1.344 1.176-2.597 2.549-3.844 3.828a39.28 39.28 0 01-3.492 3.567c-22.165 20.246-45.781 31.364-66.352 31.364-20.368 0-37.591-10.303-51.177-30.597A128.697 128.697 0 01596.305.285h.698a130.658 130.658 0 0016.625 36.82C627.157 57.149 644.185 67.4 664.301 67.4c20.42 0 43.834-11.119 65.952-31.161 1.146-1.07 2.245-2.293 3.441-3.567a137.474 137.474 0 013.845-3.926c9.936-8.878 20.618-17.035 30.955-24.942 1.549-1.17 3.047-2.292 4.591-3.52h1.099c-1.749 1.38-3.543 2.706-5.342 4.084-10.332 7.901-20.965 16.063-30.853 24.936zM1395.71 95.04c-14.38-13.666-29.26-27.844-38.8-48.09-4.79-10.303-9.54-26.571-11.73-46.662h.69c2.15 19.996 6.9 36.158 11.64 46.41 9.44 20.042 24.26 34.168 38.64 47.835 16.73 15.908 34 32.28 42.54 58.186.3.765.55 1.548.75 2.346v2.297c-.4-1.53-.9-3.013-1.35-4.386-8.53-25.756-25.76-42.128-42.38-57.936zM669.19 36.547c-7.034 0-13.874-2.502-20.167-7.395-5.89-4.536-8.784-9.18-11.837-13.974-1.246-2.041-2.592-4.13-4.14-6.272a76.001 76.001 0 01-3.045-8.621h.698c.85 2.808 1.8 5.56 2.894 8.214a69.323 69.323 0 014.148 6.324c2.995 4.794 5.889 9.28 11.628 13.766 6.3 4.846 12.887 7.295 19.821 7.295 18.526 0 36.303-16.83 51.975-31.62 1.446-1.373 2.796-2.653 4.192-3.98h1.002c-1.55 1.484-3.096 2.909-4.693 4.44-15.777 14.94-33.698 31.823-52.476 31.823zm758.12 177.878c-3.35-17.646-6.45-34.32-11.24-46.101-8.08-20.091-24.91-36.973-42.68-54.875-10.99-10.961-22.27-22.283-31.8-34.78-11.93-15.555-19.93-29.015-26.61-44.927-3.95-9.384-7.35-20.194-10.64-30.648-.3-.92-.65-1.89-.9-2.809h.7c.25.864.55 1.734.85 2.606 3.24 10.45 6.64 21.265 10.59 30.597 6.68 15.86 14.62 29.27 26.55 44.776 9.54 12.392 20.82 23.763 31.71 34.679 17.87 18.003 34.74 34.932 42.88 55.126 4.79 11.833 7.94 28.56 11.24 46.258 3.19 17.035 6.49 34.675 11.38 47.527.05.095.09.199.1.308v1.786a20.24 20.24 0 00-.75-1.839c-4.94-12.951-8.24-30.598-11.38-47.684zm-54.52 219.905c-23.22 9.484-52.07 21.213-63.11 45.235-.75 13.106 3.75 24.272 8.54 36.054 6.74 16.522 14.38 35.239 10.08 64.515-3.29 22.23-16.07 36.513-30.9 53.036-6.14 6.83-12.38 13.87-18.37 21.875-15.63 21.015-26.31 44.728-34.6 65.18-8.34 20.343-14.87 36.408-36.75 41.766-13.07 3.212-31.35 5.458-43.88 6.783-6.36.735-12.76 1.124-19.17 1.167-9.64 0-17.92-1.066-24.91-3.154-14.83-4.494-24.27-16.836-36.15-32.441-3.54-4.637-7.18-9.382-11.33-14.431-2.8-3.467-6.49-7.243-10.44-11.321-8.19-8.413-16.62-17.134-18.97-24.124-.85-2.7-.59-5.149-.4-7.953.29-2.421.34-4.864.15-7.295l-.05-.152.1-.101c7.94-10.705 17.58-19.275 26.91-27.641 15.83-14.173 30.86-27.536 36.5-49.517 2.99-11.577 1.89-23.969-3.3-37.892-5.54-14.684-18.42-30.852-36.39-45.438-8.09-6.579-16.68-13.41-25.76-20.705-41.69-33.197-88.971-70.834-114.784-103.629l-.045-.204c-.849-4.026-.553-8.616.597-13.666 3.344-13.771 13.88-30.138 28.957-44.927 14.376-14.027 30.705-24.534 43.736-28.205a78.442 78.442 0 015.289-1.326c17.37-3.974 35.4-1.224 52.77 1.431 15.03 2.293 29.31 4.486 43.14 2.653 29.9-4.033 51.42-24.484 59.01-56.102 9.99-41.511-17.63-67.57-44.33-92.813-19.68-18.665-40.09-37.893-45.43-63.288-5.1-23.917 1.54-49.726 5.94-66.807 1.74-6.888 3.89-13.771 6.19-20.607h.7a283.734 283.734 0 00-6.24 20.81c-4.35 16.984-10.99 42.687-5.94 66.448 5.29 25.197 25.61 44.373 45.28 62.932 26.8 25.348 54.56 51.559 44.48 93.482-7.64 31.871-29.45 52.525-59.61 56.557-13.88 1.832-28.15-.308-43.28-2.601-17.33-2.653-35.25-5.358-52.53-1.431a84.984 84.984 0 00-5.289 1.326c-25.863 7.244-65.003 42.943-72.144 72.573a30.936 30.936 0 00-.697 13.357c25.812 32.743 72.989 70.379 114.63 103.524 9.13 7.243 17.72 14.079 25.81 20.654 18.02 14.69 31 30.905 36.54 45.798 5.24 14.027 6.34 26.518 3.35 38.247-5.74 22.183-20.77 35.699-36.69 49.929-9.29 8.261-18.83 16.826-26.77 27.385.18 2.428.14 4.867-.09 7.29-.31 2.757-.51 5.102.34 7.65 2.3 6.836 10.64 15.554 18.83 23.918 3.89 4.033 7.64 7.854 10.43 11.322 4.14 4.996 7.84 9.793 11.38 14.487 11.84 15.497 21.17 27.738 35.8 32.181 11.13 3.363 25.46 4.026 43.79 1.988 12.58-1.383 30.8-3.622 43.83-6.784 21.52-5.199 28.05-21.163 36.29-41.36 8.34-20.503 18.97-44.269 34.65-65.385 5.99-8.005 12.28-15.04 18.38-21.876 14.77-16.423 27.5-30.649 30.75-52.681 4.29-29.066-3.3-47.684-9.99-64.154-4.79-11.882-9.38-23.103-8.63-36.414l.04-.152c11.19-24.226 40.2-36.106 63.51-45.543 6.34-2.6 12.88-5.256 20.02-6.83 15.41-3.438 31.1-5.52 46.88-6.222v.716a264.04 264.04 0 00-46.73 6.172c-7.09 1.53-13.63 4.178-19.92 6.731zM1034.15 20.124c-1.8 7.04-3.9 14.08-5.94 20.962-4.4 15.144-8.54 29.473-10.19 42.279-1.25 9.128-1.25 18.56-.05 25.139 3.45 19.787 16.47 35.188 29.06 50.133 14.43 17.082 29.36 34.832 30.5 59.46-1.55 21.933-25.76 25.144-51.37 28.46-4.7.663-9.59 1.275-14.28 2.037-18.77 3.06-40.39 9.181-62.505 17.643-7.74 3.008-15.179 6.731-22.418 10.355-13.778 6.985-26.81 13.615-42.039 15.349a56.661 56.661 0 01-5.941.308c-10.332 0-19.319-2.961-27.008-5.765-7.786-2.805-14.478-5.813-20.966-8.821-13.931-6.272-27.059-12.188-47.33-14.027a97.667 97.667 0 00-10.935-.558c-22.019 0-40.438 5.917-58.31 11.624-15.379 4.998-30.003 9.64-45.13 9.64a62.851 62.851 0 01-8.842-.559c-22.968-2.961-40.636-15.097-53.92-37.181-11.736-19.479-18.468-44.112-24.113-67.826-1.649-6.935-4.543-19.938-5.537-29.375-1.001-8.872.346-15.347 4.19-19.838 6.941-8.21 20.866-8.722 36.994-9.228 7.344-.256 14.875-.512 22.414-1.53 31.759-4.183 58.363-8.366 87.823-20.962 24.263-10.303 48.527-23.202 64.65-32.127 27.059-15.147 57.714-33.863 79.331-65.431h.797c-21.717 31.876-52.519 50.848-79.829 66.044-16.078 8.977-40.341 21.829-64.656 32.18-29.504 12.543-56.216 16.778-88.018 21.008-7.539.972-15.128 1.224-22.464 1.53-15.977.512-29.808.972-36.598 8.977-3.643 4.334-4.99 10.658-3.996 19.328 1.051 9.384 3.895 22.34 5.544 29.275 11.182 47.172 27.259 98.067 77.486 104.495a70.94 70.94 0 008.741.504c15.019 0 29.549-4.637 44.979-9.588 17.874-5.707 36.345-11.624 58.464-11.624 3.645 0 7.344.151 10.981.504 20.376 1.838 33.552 7.855 47.529 14.178 6.493 2.909 13.18 5.969 20.92 8.773 7.638 2.753 16.626 5.661 26.809 5.661a54.845 54.845 0 005.844-.307c15.076-1.683 28.056-8.262 41.832-15.194 7.239-3.673 14.683-7.447 22.469-10.403 22.166-8.515 43.838-14.636 62.608-17.697 4.74-.763 9.64-1.426 14.33-1.99 25.31-3.363 49.27-6.527 50.82-27.891-1.15-24.278-16.03-41.924-30.35-59.005-12.69-14.942-25.72-30.498-29.26-50.389-1.2-6.68-1.1-16.163.05-25.396 1.7-12.904 5.89-27.181 10.29-42.325 1.99-6.888 4.04-14.027 5.94-21.014 1.19-4.537 2.44-9.18 3.74-13.667.55-1.938 1.05-3.98 1.65-5.969h.7c-.6 2.094-1.2 4.13-1.7 6.173-1.3 4.49-2.55 9.077-3.79 13.668zm358.76 25.5c-6.79-10.758-12.88-23.714-12.98-45.34h.65c.15 21.422 6.14 34.326 12.88 44.984 8.59 13.515 20.97 21.62 34.15 30.244 3.94 2.6 7.93 5.201 11.83 8.005v.816c-4-2.857-8.14-5.557-12.19-8.21-13.17-8.67-25.65-16.833-34.34-30.5zM990.411 61.43c-4.044 9.285-8.287 18.768-9.683 28.711-3.947 27.234 9.831 44.934 23.112 62.118 9.14 11.677 17.67 22.696 20.32 36.261.53 2.706.64 5.475.35 8.215-.1 1.425-.2 2.952-.2 5.044v.105c-3.39 9.64-13.53 16.424-21.47 20.398-28.652 14.486-75.336 21.315-109.384 26.314a111.72 111.72 0 01-15.526 1.123c-13.231 0-25.511-2.293-38.492-4.689-13.88-2.555-28.255-5.257-44.835-5.257-4.392 0-8.885.204-13.225.559-.9.104-3.4.255-6.595.459-4.693.257-10.584.564-14.724.92-13.88 1.07-24.866 3.571-35.448 6.015-14.179 3.217-27.456 6.272-47.184 6.272-2.045 0-4.19-.047-6.336-.099-15.674-2.502-30.06-19.379-35.799-42.023-4.737-18.716-3.643-43.605 13.63-57.37 20.319-16.169 79.533-30.347 111.337-32.948 6.789-.61 12.428-.663 17.872-.663 6.089-.052 12.332-.098 20.52-.814 21.921-2.042 40.039-10.862 60.663-29.524 25.51-23.156 39.339-41.057 59.112-76.5A88.652 88.652 0 00924.411.285h.751a90.518 90.518 0 01-6.192 14.079c-19.773 35.539-33.602 53.443-59.261 76.697-20.669 18.769-38.941 27.642-61.01 29.683-8.185.763-14.479.815-20.568.815-5.695.052-11.032.104-17.826.663-31.702 2.653-90.712 16.727-111.03 32.843-16.978 13.515-17.978 38.148-13.334 56.66 5.644 22.335 19.871 39.01 35.251 41.511 2.095.052 4.19.1 6.235.1 19.577 0 32.954-3.108 47.035-6.273 10.634-2.444 21.615-4.945 35.546-6.015 4.142-.308 10.035-.716 14.729-.972 3.195-.152 5.688-.303 6.59-.355 4.412-.434 8.843-.638 13.276-.611 16.626 0 31.058 2.653 44.933 5.257 12.985 2.396 25.214 4.636 38.394 4.636 5.162.033 10.32-.325 15.429-1.07 33.997-4.997 80.626-11.781 109.181-26.262 7.79-3.875 17.78-10.554 21.07-19.991.05-2.041.15-3.572.2-4.997.37-2.683.27-5.409-.3-8.058-2.64-13.311-11.13-24.325-20.17-35.955-13.425-17.238-27.259-35.088-23.261-62.624 1.446-9.995 5.639-19.636 9.734-28.863 1.595-3.624 3.297-7.395 4.744-11.17C999.8 36.699 1005.94 18.795 1009.83.285h.65c-3.95 18.617-10.09 36.67-15.326 50.033-1.445 3.718-3.097 7.494-4.743 11.113zm379.829 275.031c-9.24-10.502-17.42-21.725-26.11-33.553-13.78-18.769-28.01-38.148-46.38-54.159a72.492 72.492 0 01-3.8-3.88 58.44 58.44 0 00-3.49-3.567c-11.98-10.815-25.71-19.483-38.94-27.792-9.19-5.817-18.72-11.781-27.66-18.513-7.09-5.358-14.23-10.966-21.07-16.371-10.43-8.262-21.22-16.727-32.1-24.377-5.14-3.619-10.49-7.092-16.18-10.763-27.75-18.1-59.21-38.602-64-75.682-2.55-19.587 2.5-44.827 13.23-67.523h.7c-10.74 22.644-15.78 47.887-13.28 67.473 4.79 36.769 36.09 57.176 63.75 75.121 5.64 3.673 10.98 7.191 16.13 10.764 10.93 7.697 21.71 16.214 32.1 24.424 6.89 5.41 13.98 11.017 21.17 16.371 8.88 6.679 18.37 12.701 27.56 18.461 13.28 8.418 27.01 17.086 38.99 27.896 1.3 1.123 2.45 2.448 3.6 3.624a44.365 44.365 0 003.74 3.771c18.42 16.063 32.7 35.495 46.43 54.263 8.69 11.88 16.93 23.051 26.11 33.505a126.834 126.834 0 0068.7 40.493v.71a128.336 128.336 0 01-69.2-40.696zm40.94-26.414c-8.94-13.312-8.99-37.484-8.04-57.068.75-15.807.5-45.997-9.63-71.09-7.84-19.175-26.41-36.262-44.39-52.68-2.74-2.549-5.44-5.05-8.09-7.547-36-33.505-53.87-63.648-69.59-98.48-1.35-2.952-2.5-6.12-3.65-9.18a116.052 116.052 0 00-4.74-11.473c-.35-.763-.75-1.53-1.1-2.245h.75c.3.663.65 1.28 1 1.89 1.76 3.777 3.33 7.642 4.69 11.579 1.16 3.06 2.3 6.168 3.7 9.129 15.68 34.831 33.45 64.87 69.4 98.322 2.64 2.497 5.39 4.946 8.08 7.447 18.02 16.519 36.7 33.604 44.54 52.983 10.18 25.192 10.43 55.538 9.68 71.345-.95 19.531-.85 43.553 7.94 56.713 6.39 9.431 16.57 16.163 27.71 21.928v.762c-11.34-5.864-21.72-12.648-28.26-22.335zM1429.5 19c-4.34-4.584-6.19-11.728-6.19-18.715h.75c0 6.887 1.85 13.922 5.89 18.261 2.85 3.009 6.09 4.641 9.49 4.641v.663c-3.54-.003-6.99-1.685-9.94-4.85zm-205.09-7.9c9.49 11.42 16.43 27.03 23.12 42.125 1.04 2.298 2.04 4.537 3.04 6.836 9.79 21.52 21.92 48.347 35.2 66.651 7.19 10 19.07 17.186 31.65 24.789 17.82 10.758 36.25 21.928 43.44 42.43 2.59 7.395 2.64 15.5.1 25.651-2.5 5.662-6.84 8.518-12.83 8.518-9.89 0-21.57-7.807-26.36-11.985-9.54-8.214-17.93-19.583-25.96-30.654-4.35-5.865-8.79-12.032-13.39-17.643-2.24-2.606-9.93-11.577-16.37-15.452-15.28-9.181-34.85-16.22-55.57-23.667-28.81-10.297-58.51-20.955-77.03-38.3-9.89-9.073-15.73-23.353-16.23-39.061-.45-16.83 5.24-32.79 16.18-45.03a53.97 53.97 0 016.29-6.023h1.1a59.519 59.519 0 00-6.89 6.527 63.412 63.412 0 00-15.98 44.473c.4 15.504 6.24 29.63 15.93 38.607 18.47 17.186 48.18 27.844 76.83 38.141 20.77 7.447 40.34 14.486 55.67 23.714 6.64 4.032 14.33 13.008 16.52 15.656 4.7 5.562 9.14 11.737 13.48 17.698 8.04 10.967 16.33 22.288 25.82 30.445 4.74 4.131 16.27 11.882 25.96 11.882 5.74 0 9.83-2.705 12.22-8.11 2.45-9.896 2.4-17.901-.14-25.192-7.09-20.246-25.42-31.312-43.14-42.022-12.63-7.651-24.56-14.894-31.9-25.041-13.23-18.308-25.36-45.187-35.2-66.707-1-2.293-1.99-4.591-3.04-6.883-6.69-15.04-13.63-30.545-23.07-41.914A61.715 61.715 0 001211.63.285h1.15a63.89 63.89 0 0111.63 10.815zM960.406 185.562l-.051.105c-1.196 1.274-1.896 3.054-2.546 4.788l-.148.36-.102.204c-4.893 4.643-12.178 7.244-20.567 7.244-11.932 0-23.76-5.155-29.555-12.753a17.74 17.74 0 01-3.296-15.296c2.546-10.1 11.983-13.416 22.268-16.116l.047-.052.048.055c17.474 2.6 35.546 13.509 33.9 31.358v.105l.002-.002zm-33.902-30.8c-10.08 2.699-19.224 5.864-21.718 15.603a17.029 17.029 0 00-.124 7.742 17 17 0 003.32 6.995c5.644 7.447 17.326 12.497 29.007 12.497 8.19 0 15.327-2.554 20.072-7.092l.097-.255c.7-1.781 1.4-3.62 2.597-4.998 1.7-19.834-20.963-28.607-33.251-30.492zm-146.98 42.529l-.25.46-.097.051c-10.736 6.884-28.507 11.474-44.186 11.474-10.332 0-28.357-2.089-33.048-16.32v-.052a17.732 17.732 0 015.299-13.105c6.783-7.139 20.313-11.522 35.241-11.522 18.921 0 39.34 7.447 39.641 23.97v.104l-.148.1a14.153 14.153 0 00-2.449 4.84h-.003zm-37.044-28.356c-14.729 0-28.105 4.386-34.802 11.321a17.595 17.595 0 00-5.09 12.549c4.594 13.766 22.32 15.808 32.4 15.808 15.526 0 33.048-4.537 43.787-11.322l.097-.308c.701-1.734 1.35-3.567 2.546-4.897-.342-15.908-20.413-23.151-38.935-23.151h-.003zm512.54 354.026c3.79 16.575 7.74 33.813 6.14 59.517-12.64 44.725-27.56 78.484-45.48 103.321-4.2 5.765-9.34 12.34-15.83 17.642-9.29 7.599-22.52 12.085-35.25 12.085-12.83 0-23.81-4.486-30.9-12.8-7.89-9.128-10.79-22.283-8.64-39.061 1.25-9.385 4.6-19.281 7.89-28.869 3.3-9.535 6.69-19.379 7.89-28.758 4.84-36.467-10.44-74.254-40.69-101.03-12.83-11.426-26.11-20.654-38.85-29.578-13.83-9.74-28.1-19.787-41.63-32.333-20.573-19.019-43.834-40.644-47.679-73.233v-.152c2.444-15.405 7.137-31.265 24.315-42.587 9.734-6.475 20.514-9.483 33.894-9.483 11.44 0 23.17 2.194 35.65 4.486 13.43 2.448 27.31 4.997 41.74 4.997 3.54 0 7.04-.151 10.38-.407 6.84-.663 15.48-2.804 24.51-5.097 12.19-3.013 24.82-6.172 34.8-6.172 1.93-.015 3.85.139 5.74.459 13.48 2.088 27.76 14.022 38.69 24.174 18.23 16.877 35.4 34.472 38.25 48.958 1.1 5.66.75 14.736.05 21.315-1 9.994-3.15 18.46-5.14 26.622-3.55 14.58-7.24 29.677-5.45 53.799.9 11.735 3.15 21.731 5.6 32.185zm-.8-86.134c1.99-8.158 4.09-16.622 5.09-26.519.7-6.58 1.05-15.554 0-21.113-2.8-14.33-19.92-31.824-38.05-48.649-10.88-10.048-25.06-21.881-38.34-24.023a37.976 37.976 0 00-5.64-.355c-9.93 0-22.51 3.107-34.64 6.168-9.09 2.245-17.73 4.387-24.57 5.05-3.39.308-6.89.461-10.48.459-14.48 0-28.41-2.548-41.84-5.097-12.48-2.245-24.21-4.438-35.55-4.438-13.23 0-23.91 3.008-33.596 9.384-16.92 11.217-21.518 26.821-23.961 42.174 3.844 32.283 26.957 53.752 47.427 72.771 13.58 12.497 27.81 22.492 41.59 32.184 12.83 8.972 26.01 18.257 38.94 29.73 30.46 26.873 45.78 64.87 40.94 101.587-1.25 9.433-4.64 19.275-7.94 28.863-3.3 9.541-6.69 19.432-7.84 28.763-2.2 16.575.7 29.532 8.49 38.556 6.94 8.11 17.67 12.544 30.35 12.544 12.58 0 25.61-4.486 34.85-11.933 6.39-5.257 11.53-11.828 15.67-17.542 17.93-24.732 32.76-58.446 45.39-103.064 1.6-25.5-2.35-42.686-6.2-59.162-2.44-10.554-4.69-20.55-5.54-32.333-1.79-24.224 1.85-39.368 5.45-54.005zm-40.94 84.401c-.7 3.007-1.15 6.068-1.7 9.433-1.8 11.729-3.94 25.139-15.72 31.464l-.11.052h-.09c-14.33-1.019-23.37-14.074-32.96-27.845-3.44-4.893-6.93-9.995-10.72-14.434-21.12-24.936-44.94-41.458-67.95-57.47-16.18-11.274-31.5-21.933-45.04-34.832-4.34-2.193-7.29-6.021-10.08-9.692-2.15-2.752-4.34-5.713-7.24-7.953-12.38-15.813-16.47-34.326-10.44-47.073 3.8-8.058 13.28-17.698 36.95-17.698 3.19 0 6.54.204 9.98.511 7.6.768 16.33 2.398 25.47 4.132 10.18 1.885 21.72 4.032 33.35 5.305 2.44.256 4.74.46 7.04.763 31.05 3.164 49.77 5.201 68.45 27.641 13.27 16.063 20.36 35.902 22.36 62.525 1.2 17.034.25 35.699-.6 52.117-.45 8.264-.85 16.066-.95 23.054zm.85-75.116c-1.95-26.472-9.04-46.154-22.17-62.066-18.47-22.387-36.05-24.173-68-27.542-2.29-.203-4.59-.459-7.04-.71-11.68-1.279-23.21-3.42-33.4-5.305-9.13-1.682-17.82-3.369-25.41-4.079a96.51 96.51 0 00-9.94-.564c-23.32 0-32.65 9.433-36.39 17.343-5.85 12.543-1.85 30.748 10.33 46.252 2.9 2.298 5.14 5.202 7.34 8.006 2.9 3.875 5.6 7.447 9.84 9.536l.1.052c13.53 12.957 28.86 23.615 45.03 34.832 23.07 16.063 46.83 32.586 68.05 57.627 3.79 4.386 7.29 9.488 10.73 14.434 9.49 13.614 18.43 26.518 32.4 27.536 11.48-6.167 13.43-18.763 15.33-30.905.55-3.362 1-6.475 1.64-9.433.11-6.935.56-14.69.96-22.951.85-16.416 1.84-35.081.6-52.063zm-432.603-6.225c-5.091 48.446-9.887 94.244-46.879 126.988-24.863 21.98-65.053 45.385-103.544 45.385-23.465 0-42.732-8.872-57.32-26.419-12.578-15.249-19.065-33.046-26.51-53.7-.799-2.292-1.642-4.589-2.491-6.985-1.498-3.974-2.945-7.9-4.392-11.78-8.287-22.335-16.128-43.344-18.072-60.839-4.349-38.503 9.331-54.007 26.258-69 26.359-23.307 60.66-25.041 97.006-26.926 8.589-.46 18.77-1.378 29.498-2.397 16.927-1.584 36.051-3.316 52.077-3.316 17.274 0 28.609 1.99 34.748 6.172 25.762 17.442 22.668 59.821 20.22 77.158l-.599 5.659zm-19.968-82.207c-6.043-4.131-17.275-6.121-34.401-6.121-15.976 0-35.15 1.786-52.026 3.368-10.728.967-20.916 1.938-29.499 2.345-36.245 1.833-70.452 3.619-96.609 26.774-16.827 14.842-30.356 30.244-26.057 68.437 1.944 17.343 9.785 38.352 18.021 60.639 1.448 3.928 2.945 7.849 4.342 11.829a179.26 179.26 0 012.549 6.984c7.437 20.555 13.881 38.299 26.453 53.496 14.385 17.39 33.451 26.212 56.772 26.212 38.239 0 78.379-23.411 103.094-45.339 36.844-32.487 41.588-78.181 46.629-126.476l.648-5.707c2.495-17.232 5.493-59.256-19.918-76.441h.002zm-15.379 90.166c-4.442 41.813-8.241 77.92-41.392 104.694-15.372 12.496-43.178 27.082-70.689 27.082-13.68 0-25.215-3.62-34.352-10.81-25.855-20.451-37.094-62.985-38.887-93.174-2.052-34.884 10.484-65.533 33.495-81.852 21.117-15.046 47.981-16.575 76.485-18.158 6.243-.303 12.435-.658 18.627-.658 17.87 0 39.935 2.293 51.223 20.09 6.488 13.515 6.089 29.375 5.639 44.676-.053 2.751-.099 5.404-.15 8.11h.001zm-6.093-52.478c-11.084-17.442-32.904-19.74-50.62-19.74-6.192 0-12.334.308-18.627.716-28.31 1.584-55.116 3.008-76.132 17.953-22.767 16.215-35.201 46.662-33.156 81.289 1.749 30.09 12.938 72.416 38.649 92.714 8.986 7.087 20.362 10.711 33.898 10.711 27.309 0 54.965-14.586 70.344-27.03 32.848-26.623 36.492-60.891 41.04-104.188.051-2.653.102-5.306.25-8.058.344-15.249.743-31.009-5.647-44.367h.001zm413.333 45.793l-.15.104c-.99.741-1.9 1.596-2.7 2.549a13.263 13.263 0 01-3.39 2.961l-.05.047h-.15c-18.92-3.415-40.44-13.466-56.16-26.158-6.25-5.05-13.54-11.938-14.98-20.554l-.05-.152.1-.156c.94-1.254 1.97-2.43 3.1-3.515.84-.82 1.65-1.584 2.39-2.449l.06-.156h.14c2.96-.309 5.92-.46 8.89-.454 16.48 0 38.94 5.097 52.42 19.326 7.39 7.902 10.94 17.443 10.54 28.456v.152l-.01-.001zm-11.03-28.147c-13.29-14.126-35.55-19.122-51.93-19.122-2.9-.006-5.8.146-8.69.455-.74.864-1.54 1.686-2.29 2.448-1.11.983-2.1 2.096-2.95 3.316 1.45 8.365 8.59 15.096 14.68 19.993 15.63 12.648 36.99 22.643 55.77 26.058 1.15-.75 2.18-1.679 3.04-2.751.82-.944 1.73-1.814 2.7-2.601.35-10.715-3.04-20.046-10.33-27.796zM676.88 533.519c-11.081 7.345-23.465 11.321-34.949 11.321-15.127 0-27.806-6.679-36.842-19.379-20.967-29.524-11.485-85.372 18.575-108.574 8.136-6.376 22.061-13.922 41.984-13.922 4.806.001 9.604.427 14.335 1.274 21.017 3.619 31.946 20.602 31.594 49.01-.296 21.574-5.235 60.74-34.697 80.27zm2.995-128.617a85.653 85.653 0 00-14.227-1.224c-19.721 0-33.502 7.441-41.638 13.718-14.177 11.018-24.415 29.83-28.058 51.763-3.593 21.416.05 42.27 9.734 55.945 8.842 12.491 21.42 19.019 36.245 19.019 11.34 0 23.666-3.927 34.603-11.17 29.153-19.327 34.049-58.238 34.344-79.706.403-28.045-10.382-44.771-31.003-48.344v-.001zm675.545 318.996c-2.75 5.091-5.4 9.995-8.54 14.02l-.15.151c-4.34 5.761-11.73 15.353-22.02 13.768-11.08-1.677-25.71-15.143-23.07-34.93 2.1-15.807 12.48-27.385 32.71-36.414 1.29-.558 2.59-1.17 3.94-1.734 9.73-4.176 18.97-8.157 23.22-17.642 4.39-18.763 5.24-44.059 6.19-70.938.74-22.234 1.55-45.283 4.49-64.92 5.64-37.892 24.61-60.431 58.01-69.053a80.424 80.424 0 019.24-1.937v.715c-3.07.448-6.1 1.078-9.09 1.885-33.1 8.466-51.92 30.905-57.51 68.489-2.9 19.636-3.7 42.634-4.49 64.87-.9 26.878-1.8 52.222-6.2 71.142-4.39 9.793-13.73 13.77-23.61 18.002-1.35.611-2.65 1.118-3.95 1.733-19.97 8.873-30.2 20.294-32.25 35.903-2.59 19.329 11.63 32.486 22.47 34.113 9.88 1.534 17.12-7.849 21.42-13.415l.15-.152c3.09-4.075 5.74-8.871 8.48-13.969 8.64-15.961 17.58-32.484 43.14-28.15 12.08 1.994 25.66 8.568 41.44 19.942v.864c-15.88-11.521-29.46-18.152-41.54-20.142-25.11-4.231-33.95 12.087-42.48 27.799zm67.44-90.472c-14.78-16.628-22.66-41.208-21.66-67.523 1-25.347 10.28-48.498 24.86-62.013a38.892 38.892 0 0113.38-6.423v.658a40.186 40.186 0 00-12.93 6.224c-14.48 13.466-23.66 36.462-24.66 61.554-1 26.111 6.84 50.593 21.47 67.113a96.574 96.574 0 0016.12 14.128v.815a90.003 90.003 0 01-16.58-14.533zm-599.848 4.435c.648-4.537 2.695-9.995 4.392-14.33 14.079-35.797 47.131-73.335 71.144-94.549 16.477-14.538 30.157-23.051 40.642-25.196a33.065 33.065 0 017.24-.763c28.656 0 63.85 29.782 66.05 55.893a20.742 20.742 0 01-.75 3.827c-.4 1.938-.9 3.875-.7 5.964v.105l-.05.047a536.235 536.235 0 01-34.449 68.745c-5.688 9.587-11.431 18.768-18.972 26.47-18.221 18.613-49.973 31.668-77.032 31.668-14.976 0-27.51-3.875-37.244-11.369-16.277-12.601-23.118-28.257-20.271-46.512zm57.515 57.172c26.91 0 58.413-12.956 76.536-31.468 7.488-7.599 13.23-16.779 18.921-26.263a541.314 541.314 0 0034.346-68.593c-.07-2.071.2-4.14.8-6.121.32-1.209.57-2.435.75-3.673-2.25-25.803-37.093-55.177-65.451-55.177a35.735 35.735 0 00-7.142.663c-10.383 2.193-23.962 10.606-40.336 25.087-23.916 21.218-56.865 58.598-70.899 94.297-1.697 4.282-3.744 9.687-4.442 14.178-2.745 18.002 4.044 33.454 20.123 45.846 9.586 7.395 21.968 11.222 36.794 11.222v.002zm5.143-114.492c14.426-13.462 31.604-23.207 44.932-25.347a39.484 39.484 0 017.188-.663c8.287 0 14.928 2.652 19.82 7.854 5.741 6.068 8.589 15.603 8.136 26.826-5.843 25.651-11.732 46.509-29.406 61.199-11.134 9.384-28.307 15.452-43.583 15.452-18.373 0-31.104-8.622-34.902-23.563-1.093-4.438-.894-10.861-.245-15.3 2.196-14.89 12.431-31.825 28.06-46.458zm-27.111 61.554c3.696 14.685 16.124 23.051 34.2 23.051 15.173 0 32.1-6.016 43.184-15.249 17.474-14.585 23.312-35.291 29.156-60.791.449-10.961-2.398-20.294-7.986-26.314-4.694-4.999-11.237-7.547-19.325-7.547a44.443 44.443 0 00-7.09.611c-27.658 4.537-67.744 39.882-72.488 71.247-.597 4.333-.797 10.657.349 14.991v.001zm-664.05-629.21c-16.129 8.006-35.101 8.82-50.825 2.24A50.217 50.217 0 01124.013.286h.799a47.768 47.768 0 0019.066 14.178c15.581 6.58 34.402 5.765 50.328-2.141 5.191-2.549 10.087-6.58 14.782-12.037h.892c-4.845 5.817-9.986 9.948-15.371 12.6zm571.89 27.996c-6.294 4.537-12.286 9.385-18.072 14.022-14.029 11.223-27.259 21.73-41.841 26.727-16.32 8.309-31.93 12.472-46.829 12.492a75.916 75.916 0 01-35.294-8.617c-32.854-16.88-51.372-53.749-58.464-85.22h.698c7.092 31.213 25.409 67.882 58.061 84.61 24.415 12.544 51.876 11.218 81.576-3.88 14.532-4.945 27.711-15.5 41.694-26.721 5.787-4.59 11.778-9.384 18.118-13.975 6.794-4.946 13.834-9.74 20.669-14.33 12.382-8.413 24.517-16.623 35.199-25.704h1.098c-10.884 9.337-23.266 17.697-35.944 26.267-6.84 4.638-13.88 9.38-20.669 14.33zm-235.953 12.8c-4.442 11.014-14.227 16.371-29.902 16.371-7.934 0-16.171-1.378-22.816-2.501h-.195a26.744 26.744 0 00-4.644-.355c-6.242 0-12.636 1.885-18.77 3.723-3.147.967-6.494 1.938-9.691 2.601-2.599.611-5.141 1.07-7.69 1.63-10.526 2.093-21.463 4.287-31.349 8.924a388.652 388.652 0 01-11.779 5.306c-19.274 8.517-39.197 17.338-52.121 34.477-.806 1.07-1.497 2.141-2.253 3.211-9.029 13.667-16.877 28.352-24.358 42.582-8.496 16.063-17.273 32.539-27.864 47.631-10.231 14.738-24.012 31.01-37.339 46.765a3001.782 3001.782 0 00-13.234 15.813c-21.168 25.598-41.133 49.72-77.983 49.72h-.05c-9.439 0-19.419-1.53-30.651-4.59-31.903-8.768-88.221-30.702-107.488-78.229-5.098-12.596-8.49-30.194-12.09-48.754-2.742-14.027-5.586-28.559-9.187-40.644v-2.297c3.953 12.543 6.948 27.949 9.792 42.785 3.644 18.617 7.035 36.111 12.082 48.655 19.174 47.323 75.283 69.053 107.035 77.82 11.189 3.113 21.176 4.591 30.507 4.591h.05c36.497 0 56.419-24.017 77.436-49.517 4.241-5.102 8.64-10.303 13.277-15.76 13.284-15.755 27.065-32.075 37.346-46.713 10.483-15.045 19.268-31.62 27.756-47.579 7.539-14.23 15.38-28.967 24.415-42.639.699-1.071 1.498-2.24 2.297-3.264 13.032-17.233 32.998-26.11 52.323-34.675a630.042 630.042 0 0011.779-5.306c9.986-4.69 20.923-6.883 31.507-9.024a362.618 362.618 0 007.69-1.584c3.139-.716 6.436-1.681 9.633-2.6 6.192-1.84 12.579-3.776 18.972-3.776 1.586.01 3.169.13 4.738.36l.302.046c6.538 1.123 14.731 2.449 22.615 2.449 15.329 0 24.963-5.202 29.261-15.86 4.486-10.967 2.988-29.579 1.649-46.05-.201-2.501-.403-4.846-.554-7.144h.698c.151 2.298.303 4.643.504 7.092 1.339 16.527 2.794 35.243-1.656 46.31zM254.319 21.194C234.497 48.63 199.297 64.95 160.208 64.95c-9.435.03-18.844-.98-28.059-3.008C97.395 54.089 86.271 29.868 81.324.285h.648c1.549 9.384 3.701 18.157 7.042 26.067 8.035 18.972 21.816 30.085 43.236 34.931a128.073 128.073 0 0027.958 3.008c38.887 0 73.836-16.267 93.557-43.501 2.195-5.812 4.046-12.852 5.846-20.503h.698a181.256 181.256 0 01-5.94 20.863l-.05.044zM443.83 35.529c-17.676 2.6-34.545 7.953-50.774 13.155-10.483 3.368-21.363 6.836-32.4 9.535a239.723 239.723 0 01-20.319 4.079 114.473 114.473 0 01-16.725 1.483c-9.684 0-15.427-2.04-17.23-6.12-4.932-10.863-8.733-34.477-8.935-57.376h.648c.202 22.8 4.003 46.258 8.841 57.12 1.7 3.775 7.337 5.66 16.676 5.66a113.514 113.514 0 0016.624-1.425 241.498 241.498 0 0020.269-4.084c11.03-2.7 21.815-6.168 32.306-9.536 16.322-5.2 33.199-10.606 50.969-13.206 17.474-2.549 31.406-14.79 39.592-34.53h.749c-8.287 20.147-22.471 32.592-40.291 35.245zM54.461 17.93c.9 25.093 1.7 46.818 18.022 59.617 16.978 13.416 46.634 17.238 68.306 19.995 2.146.303 4.292.611 6.286.864 3.857.516 7.744.77 11.635.763 22.068 0 45.583-7.599 68.35-14.894 20.361-6.476 41.378-13.26 61.056-14.428h.05l.05.052c11.232 3.264 14.026 15.5 12.932 25.852-3.197 40.44-17.129 73.538-48.233 114.279-6.235 8.162-12.132 16.475-17.77 24.533-9.691 13.563-18.77 26.466-29.405 38.602-15.926 18.31-35.899 27.49-59.414 27.49-27.259 0-57.91-12.951-84.125-35.645-27.007-29.884-31.053-69.459-32.897-107.451-.15-2.961-.201-6.021-.302-9.332-.403-15.248-.842-34.272-8.186-43.657C14.372 96.309 6.79 89.932-1.008 84.324v-.815c7.992 5.713 15.733 12.136 22.37 20.706 7.439 9.483 7.892 28.607 8.339 43.96.1 3.312.15 6.423.302 9.332 1.793 37.84 5.839 77.362 32.695 107.044 26.064 22.539 56.52 35.496 83.628 35.496 23.314 0 43.186-9.233 58.91-27.286 10.592-12.189 19.728-24.988 29.355-38.655 5.645-8.006 11.534-16.267 17.777-24.483 31.003-40.644 44.935-73.69 48.074-113.98 1.102-9.994-1.541-21.927-12.377-25.091-19.519 1.175-40.492 7.853-60.811 14.381-22.817 7.295-46.375 14.894-68.544 14.894a97.176 97.176 0 01-11.736-.768c-1.994-.303-4.14-.558-6.293-.815-21.715-2.804-51.516-6.679-68.544-20.142-16.624-13.055-17.424-34.831-18.374-60.18-.194-5.248-.346-10.705-.691-16.162a12.975 12.975 0 01-.159-1.483h.706c0 .512.05.918.05 1.43.396 5.518.598 10.923.792 16.223zM15.02 6.05c-.742 9.433-8.23 17.797-16.028 17.797v-.714c7.496 0 14.638-8.006 15.33-17.134.2-1.899.216-3.812.05-5.713h.648a31.478 31.478 0 010 5.764zm93.117 126.273c4.596.027 9.178.505 13.68 1.426 10.181 2.041 21.068 5.305 32.652 8.773 12.924 3.875 26.41 7.953 39.19 10.198 11.83 2.194 16.97 7.547 15.624 16.471v.053c-4.14 8.925-7.337 18.866-10.735 29.375-7.287 22.95-14.883 46.662-33.3 59.005-8.684 5.761-19.275 8.82-30.6 8.82-18.425 0-37.253-7.854-50.53-21.061-10.88-10.914-18.82-28.66-21.262-47.48-2.599-19.839 1.297-38.655 10.729-51.611 6.292-8.617 19.57-13.969 34.552-13.969zm-23.522 112.55c13.133 13.106 31.86 20.909 50.033 20.909 11.232 0 21.664-3.007 30.254-8.768 18.274-12.188 25.762-35.75 33.098-58.597 3.341-10.507 6.495-20.451 10.635-29.375 1.245-8.569-3.492-13.567-15.077-15.604-12.78-2.35-26.309-6.324-39.341-10.251-11.484-3.467-22.42-6.732-32.508-8.773a69.902 69.902 0 00-13.572-1.379c-14.781 0-27.806 5.257-33.998 13.718-20.52 28.046-11.038 76.649 10.476 98.117v.003zm788.328 191.142c-3.395 6.58-6.892 13.364-9.786 20.095-2.597 5.761-5.194 11.828-7.74 17.745-15.526 36.053-31.553 73.387-54.916 103.32-8.937 11.474-19.77 22.44-30.204 33.151-10.036 10.147-19.473 19.682-27.014 29.375a145.778 145.778 0 00-9.883 14.53c-6.441 10.199-12.528 19.839-22.672 26.466l-.093.052-2.902-.204c-38.736-2.344-72.237-4.387-107.935-11.013-25.358-4.695-43.337-9.739-53.273-14.946-20.52-10.758-26.107-29.986-32.098-50.384a237.617 237.617 0 01-1.893-6.376c-8.69-28.862-21.276-58.138-53.87-76.442l-.101-.156c-.252-.304-.504-.612-.799-.914-6.747-3.624-13.479-7.296-20.268-10.967-11.787-6.324-23.969-12.956-36.001-19.275-5.191-2.757-10.339-5.617-15.429-8.313-7.884-4.335-16.071-8.774-24.156-12.905-5.594-2.752-10.541-6.58-15.43-10.251-1.202-.919-2.448-1.885-3.65-2.804-4.493-3.369-9.482-6.784-15.17-9.024-10.685-4.288-22.522-4.794-33.898-5.358-9.893-.407-20.074-.919-29.657-3.776-9.137-2.7-15.48-5.097-20.772-13.055-17.121-25.492-8.438-44.574 5.594-68.692 14.775-25.297 32.746-45.031 53.468-58.599a92.656 92.656 0 0111.628-6.219c4.349-2.089 8.791-4.23 12.78-7.087 4.651-3.263 9.144-6.836 13.485-10.303 3.55-2.804 7.143-5.713 10.829-8.465 15.034-11.066 33.005-23.359 53.179-30.596 6.682-2.398 14.624-2.857 20.117-2.857a87.166 87.166 0 0116.272 1.478c6.243 1.224 11.283 4.026 16.625 7.034 2.246 1.279 4.644 2.605 7.092 3.827 2.693 1.225 5.494 2.194 8.186 3.16a60.29 60.29 0 0110.383 4.386c8.193 4.591 16.128 9.949 23.767 15.15 7.387 4.998 15.026 10.147 22.867 14.633 37.044 21.27 68.796 33.255 99.699 37.839a189.28 189.28 0 0027.813 2.094 181.257 181.257 0 0034.15-3.211c8.683-1.635 17.618-4.183 26.309-6.684 15.225-4.334 30.899-8.818 46.28-8.818a64.612 64.612 0 0123.363 4.026c14.677 5.51 27.76 16.936 41.64 29.073 7.085 6.167 14.376 12.543 22.315 18.611 1.795 1.327 4.044 2.909 6.59 4.695 5.639 4.078 12.678 9.073 18.72 14.278 11.232 9.843 14.328 18.82 10.634 31.108-3.094 10.096-8.437 20.554-14.178 31.565l.003.003zm3.143-62.117c-6.042-5.249-13.031-10.2-18.719-14.279-2.546-1.785-4.745-3.362-6.544-4.741-7.985-6.016-15.327-12.444-22.413-18.617-13.783-12.084-26.809-23.458-41.389-28.962a65.857 65.857 0 00-23.164-4.033c-15.281 0-30.904 4.486-46.084 8.872-8.734 2.501-17.669 5.05-26.41 6.732a186.159 186.159 0 01-34.243 3.164 183.032 183.032 0 01-27.864-2.094c-31.097-4.59-62.856-16.674-100.001-37.939-7.833-4.491-15.473-9.692-22.91-14.637-7.596-5.202-15.581-10.507-23.667-15.098a62.587 62.587 0 00-10.288-4.334 74.123 74.123 0 01-8.23-3.264c-2.506-1.17-4.896-2.549-7.142-3.771-5.343-2.961-10.332-5.817-16.431-6.985a86.454 86.454 0 00-16.171-1.53c-5.443 0-13.277.559-19.922 2.904-20.016 7.19-38.045 19.484-52.971 30.55a305.734 305.734 0 00-10.836 8.413c-4.392 3.42-8.885 6.984-13.478 10.303a91.483 91.483 0 01-12.931 7.139 89.676 89.676 0 00-11.484 6.172c-20.664 13.567-38.592 33.197-53.266 58.342-13.932 23.97-22.514 42.89-5.645 68.029 5.191 7.803 11.434 10.1 20.369 12.753 9.533 2.904 19.728 3.313 29.513 3.823 11.477.459 23.306 1.018 34.193 5.352 5.688 2.246 10.684 5.713 15.228 9.082 1.303.914 2.498 1.885 3.693 2.804 4.846 3.672 9.835 7.494 15.279 10.251 8.186 4.079 16.329 8.512 24.213 12.8 5.04 2.751 10.289 5.661 15.473 8.36a3798.178 3798.178 0 0135.95 19.281 1937.102 1937.102 0 0020.318 11.013l.101.052c.309.298.593.621.849.966 32.753 18.513 45.332 47.886 54.072 76.855a445.292 445.292 0 011.894 6.377c5.94 20.246 11.585 39.369 31.802 49.923 9.936 5.257 27.756 10.304 53.072 14.946 35.647 6.625 69.148 8.669 107.884 11.014l2.65.152c9.986-6.529 16.024-16.012 22.414-26.159a161.45 161.45 0 019.888-14.585c7.638-9.693 17.075-19.328 27.059-29.427 10.435-10.711 21.319-21.724 30.153-33.15 23.317-29.884 39.391-67.163 54.871-103.118 2.546-5.917 5.143-11.985 7.688-17.745 2.996-6.732 6.488-13.568 9.883-20.147 5.64-11.066 10.984-21.364 14.075-31.517 3.594-11.934.649-20.708-10.383-30.295l.002.003zm-62.208 108.37l-1.295 5.05c-13.532 51.404-33.603 81.901-74.143 112.242l-.946.767c-21.82 16.32-40.691 30.498-61.658 37.277-10.49 3.472-23.32 5.256-37.044 5.256h-.05c-18.223 0-36.799-3.263-49.63-8.668-33.897-14.33-46.324-44.624-60.602-79.81-18.778-46.05-51.682-105.619-101.556-127.954-9.029-4.026-17.77-4.846-27.007-5.713a215.94 215.94 0 01-10.98-1.225c-14.134-2.041-29.909-4.997-48.327-9.073-2.599-.512-5.198-1.122-7.79-1.734-13.485-3.06-31.306-11.734-37.145-26.011-4.341-10.554-3.693-20.194 1.743-28.607 16.279-24.993 72.345-33.557 95.364-33.61h.446c10.188 0 20.621 1.071 30.701 2.141 5.738.611 11.635 1.274 17.323 1.634 9.691.711 17.582 3.52 27.317 9.74 10.029 6.423 20.815 9.483 33.847 9.483 9.734 0 19.62-1.629 30.053-3.312 3.146-.564 6.444-1.07 9.734-1.584 13.68-2.043 28.311-2.961 46.181-2.961 11.081 0 22.27.36 33.048.715 10.735.308 21.773.664 32.652.664 19.822 0 35.798-1.225 50.479-3.823 4.292-.821 8.935-1.938 13.875-3.113 10.584-2.601 22.569-5.556 34.599-5.556a60.547 60.547 0 0118.174 2.549c27.811 8.564 51.072 43.296 55.368 70.425 1.6 10.153 1.35 20.554-.701 32.743-3.197 18.559-7.486 34.831-12.031 52.065l.001.003zm12.028-84.703c-4.243-26.932-27.258-61.352-54.814-69.867a61.97 61.97 0 00-18.026-2.555c-11.979 0-23.911 2.91-34.448 5.51-4.889 1.228-9.583 2.345-13.925 3.168-14.68 2.648-30.708 3.823-50.58 3.823-10.879 0-21.916-.308-32.652-.663-10.778-.356-21.967-.716-33.048-.716-17.769 0-32.45.972-46.08 2.961-3.297.559-6.588 1.071-9.734 1.585-10.483 1.681-20.369 3.264-30.154 3.264-13.133 0-24.062-3.014-34.25-9.489-9.634-6.173-17.424-8.925-26.964-9.64a669.423 669.423 0 01-17.316-1.629c-10.037-1.071-20.52-2.141-30.658-2.141h-.446c-22.918.052-78.631 8.517-94.767 33.249-5.335 8.209-5.94 17.642-1.691 28.048 5.745 14.027 23.313 22.539 36.64 25.6 2.549.563 5.148 1.122 7.74 1.733 18.425 4.032 34.2 6.985 48.327 9.029 3.7.512 7.394.864 10.936 1.175 9.288.914 18.123 1.734 27.209 5.812 50.127 22.388 83.074 82.103 101.952 128.309 14.227 34.984 26.554 65.225 60.207 79.403 12.78 5.406 31.197 8.622 49.377 8.622h.051c13.68 0 26.409-1.786 36.842-5.154 20.866-6.732 39.643-20.858 61.507-37.229l.95-.763c40.337-30.244 60.357-60.587 73.838-111.837l1.296-5.05c4.591-17.239 8.886-33.557 11.984-52.018 2.098-12.146 2.295-22.496.697-32.54zM1046.83 65.87c-1.15 9.587-2.6 27.385.64 39.317 5.4 19.688 20.98 36.619 36 53.042 21.27 23.098 43.24 47.022 36.5 78.994-3.65 17.234-12.73 27.944-27.96 32.791-13.18 4.229-29.41 3.672-47.68 2.652-33.35-1.89-55.965 3.723-69.098 8.82-13.277 5.202-25.46 13.771-37.341 22.132-15.879 11.17-30.904 21.777-47.88 24.124a49.353 49.353 0 01-18.772-.768c-15.879-3.572-27.864-11.729-40.541-20.398-21.569-14.638-43.833-29.834-87.068-21.014-9.489 1.891-18.921 4.794-28.911 7.807-31.852 9.635-64.8 19.531-101.642-.412-33.3-17.082-54.274-48.446-74.491-78.793-9.432-14.126-19.217-28.81-30.003-41.662-13.831-16.423-32.659-38.91-55.771-31.108-9.281 3.06-18.864 4.59-28.159 6.068-14.724 2.397-29.902 4.846-43.582 13.614-9.785 6.277-17.373 15.202-24.76 23.871-3.449 4.026-7.042 8.209-10.786 12.084-8.287 8.517-14.976 18.564-21.471 28.252-5.544 8.261-11.231 16.731-17.92 24.33-8.986 8.104-16.87 15.194-26.057 23.661-11.088 10.351-21.226 22.644-31.011 34.472-18.763 22.8-36.439 44.269-59.558 51.203-16.322 4.946-33.199 4.282-54.72-2.041-11.477-3.416-26.654-9.996-37.34-14.994a499.147 499.147 0 01-65.202-36.716 90.789 90.789 0 01-33.257-41.255v-1.786a89.958 89.958 0 0033.56 42.43 503.19 503.19 0 0065.195 36.717c10.635 4.945 25.762 11.578 37.195 14.945 21.471 6.272 38.196 6.936 54.367 2.089 22.918-6.883 40.544-28.304 59.264-51 9.784-11.829 19.922-24.173 31.104-34.524a2033.19 2033.19 0 0126.013-23.714c6.639-7.498 12.276-16.011 17.82-24.226 6.488-9.686 13.284-19.73 21.521-28.304 3.795-3.874 7.337-8.058 10.779-12.136 7.394-8.669 15.033-17.642 24.912-23.917 13.788-8.873 29.059-11.322 43.84-13.667 9.281-1.53 18.871-3.06 28.008-6.121 23.559-7.907 42.631 14.737 56.513 31.312 10.836 12.957 20.571 27.542 30.053 41.715 20.225 30.346 41.09 61.658 74.189 78.589 36.648 19.838 69.494 9.943 101.246.36 9.988-3.013 19.425-5.865 28.959-7.808 43.441-8.812 65.857 6.382 87.522 21.119 12.633 8.622 24.565 16.732 40.392 20.299a48.567 48.567 0 0018.471.716c16.776-2.246 31.804-12.8 47.626-24.023 11.836-8.313 24.167-16.982 37.495-22.184 13.133-5.096 35.847-10.757 69.347-8.872 31.3 1.786 66.85 3.823 74.99-34.883 6.59-31.613-15.23-55.434-36.35-78.433-15.13-16.475-30.75-33.458-36.14-53.292-3.15-11.374-2.15-27.795-.75-39.573 2.29-18.925 7.73-38.352 13.53-58.854.6-2.194 1.2-4.387 1.84-6.632h.7c-.64 2.297-1.29 4.543-1.94 6.835-5.75 20.503-11.24 39.83-13.43 58.75z" fill="#000" fill-opacity=".3"/></svg>