<svg width="26" height="25" fill="none" xmlns="http://www.w3.org/2000/svg"><path d="M20.526 19.737c.726 0 1.422.277 1.936.77.513.494.801 1.163.801 1.861s-.288 1.368-.801 1.861a2.794 2.794 0 01-1.936.771 2.793 2.793 0 01-1.935-.77 2.581 2.581 0 01-.801-1.862c0-.697.288-1.367.801-1.86a2.793 2.793 0 011.935-.771zm0 1.316c-.362 0-.71.138-.967.385a1.29 1.29 0 00-.4.93c0 .35.143.684.4.93.256.248.605.386.967.386.364 0 .712-.138.968-.385a1.29 1.29 0 00.401-.93 1.29 1.29 0 00-.4-.931 1.397 1.397 0 00-.969-.385zM8.211 19.737c.725 0 1.422.277 1.935.77.513.494.801 1.163.801 1.861s-.288 1.368-.801 1.861A2.792 2.792 0 018.211 25a2.794 2.794 0 01-1.936-.77 2.581 2.581 0 01-.801-1.862c0-.697.288-1.367.801-1.86a2.794 2.794 0 011.936-.771zm0 1.316c-.363 0-.711.138-.968.385a1.29 1.29 0 00-.4.93c0 .35.143.684.4.93.257.248.605.386.968.386s.71-.138.967-.385.401-.582.401-.93a1.29 1.29 0 00-.4-.931 1.397 1.397 0 00-.968-.385zM23.263 3.947H4.48l3.485 7.895h11.194c.213 0 .423-.047.613-.14a1.35 1.35 0 00.482-.389l4.105-5.263h.002a1.272 1.272 0 00.127-1.376 1.337 1.337 0 00-.505-.53 1.41 1.41 0 00-.719-.197zm-4.105 9.21H8.028l-1.05 2.053-.137.58c0 .348.144.683.401.93s.605.385.968.385h15.052v1.316H8.211c-.477 0-.945-.12-1.36-.346a2.688 2.688 0 01-1-.95 2.552 2.552 0 01-.035-2.612l.985-1.94-4.97-11.257H0V0h2.737l1.162 2.632h19.364c.517 0 1.024.14 1.461.406.438.265.788.645 1.01 1.093a2.543 2.543 0 01-.345 2.79L21.4 12.034a2.71 2.71 0 01-.978.826c-.39.196-.825.298-1.265.298z" fill="#fff"/></svg>