<svg width="1437" height="1434" fill="none" xmlns="http://www.w3.org/2000/svg"><path fill-rule="evenodd" clip-rule="evenodd" d="M699.773 28.945c1.341 1.171 2.591 2.541 3.835 3.817a39.174 39.174 0 003.482 3.556c22.112 20.19 45.668 31.277 66.191 31.277 20.321 0 37.501-10.274 51.059-30.51A128.273 128.273 0 00841.12.005h-.695a130.434 130.434 0 01-16.585 36.718c-13.492 19.987-30.486 30.209-50.556 30.209-20.365 0-43.728-11.087-65.793-31.073-1.143-1.068-2.239-2.287-3.433-3.557a137.128 137.128 0 00-3.835-3.916c-9.914-8.852-20.569-16.986-30.881-24.868-1.546-1.166-3.04-2.286-4.58-3.513h-1.097c1.745 1.376 3.535 2.698 5.33 4.073 10.307 7.88 20.916 16.018 30.778 24.866zM43.633 94.497C57.978 80.869 72.82 66.73 82.331 46.54 87.115 36.267 91.846 20.045 94.036.006h-.694c-2.141 19.94-6.876 36.057-11.61 46.28-9.415 19.986-24.204 34.072-38.547 47.7C26.498 109.854 9.268 126.18.75 152.013c-.3.762-.548 1.544-.744 2.339v2.294c.398-1.526.897-3.005 1.341-4.373 8.518-25.688 25.704-42.013 42.285-57.776zm724.773-58.329c7.022 0 13.844-2.494 20.121-7.374 5.882-4.525 8.765-9.154 11.807-13.935 1.241-2.036 2.582-4.119 4.132-6.255a77.385 77.385 0 003.041-8.598h-.703c-.846 2.802-1.786 5.547-2.884 8.192a70.868 70.868 0 00-4.139 6.309c-2.991 4.78-5.874 9.253-11.599 13.727-6.283 4.833-12.854 7.274-19.776 7.274-18.478 0-36.21-16.783-51.847-31.531L712.376.009h-.999c1.545 1.479 3.09 2.9 4.682 4.426 15.742 14.897 33.618 31.733 52.347 31.733zM12.108 213.545c3.336-17.596 6.427-34.224 11.206-45.972 8.068-20.033 24.852-36.872 42.585-54.723 10.955-10.93 22.211-22.22 31.723-34.682 11.903-15.508 19.875-28.933 26.546-44.8 3.937-9.358 7.324-20.137 10.616-30.562.296-.916.646-1.885.892-2.802h-.693c-.25.865-.551 1.73-.847 2.6-3.238 10.42-6.625 21.204-10.562 30.51-6.671 15.815-14.591 29.188-26.495 44.649-9.515 12.36-20.77 23.701-31.63 34.585-17.83 17.95-34.665 34.832-42.785 54.97-4.778 11.801-7.92 28.48-11.205 46.128-3.188 16.987-6.477 34.577-11.358 47.393a.799.799 0 00-.097.308v1.78a19.52 19.52 0 01.745-1.833c4.934-12.914 8.223-30.511 11.36-47.549zm54.388 219.286c23.16 9.457 51.945 21.149 62.955 45.108.745 13.07-3.738 24.204-8.517 35.952-6.727 16.477-14.346 35.14-10.062 64.333 3.289 22.168 16.039 36.411 30.83 52.888 6.125 6.81 12.352 13.831 18.329 21.813 15.586 20.955 26.246 44.603 34.513 64.992 8.321 20.289 14.841 36.312 36.659 41.653 13.047 3.205 31.279 5.442 43.779 6.761a177.45 177.45 0 0019.126 1.169c9.612 0 17.881-1.069 24.852-3.148 14.791-4.48 24.206-16.783 36.059-32.347 3.539-4.631 7.173-9.356 11.306-14.389 2.79-3.461 6.472-7.226 10.41-11.293 8.17-8.388 16.585-17.085 18.926-24.053.846-2.692.597-5.135.397-7.931a38.199 38.199 0 01-.147-7.275l.051-.151-.102-.104c-7.921-10.675-17.534-19.221-26.847-27.563-15.781-14.133-30.779-27.458-36.405-49.377-2.988-11.543-1.891-23.903 3.285-37.786 5.528-14.644 18.381-30.766 36.307-45.31 8.069-6.561 16.637-13.373 25.7-20.647 41.591-33.105 88.758-70.636 114.51-103.338l.045-.204c.847-4.014.551-8.592-.596-13.628-3.336-13.731-13.845-30.051-28.887-44.799-14.342-13.987-30.63-24.465-43.632-28.126a75.414 75.414 0 00-5.278-1.322c-17.33-3.964-35.314-1.219-52.643 1.426-14.992 2.286-29.235 4.474-43.035 2.646-29.83-4.02-51.297-24.413-58.87-55.944-9.961-41.394 17.585-67.38 44.227-92.554 19.625-18.612 39.995-37.787 45.325-63.11 5.08-23.85-1.545-49.586-5.926-66.62-1.747-6.866-3.889-13.73-6.179-20.547h-.699a283.391 283.391 0 016.228 20.753c4.335 16.934 10.955 42.565 5.926 66.26-5.278 25.126-25.551 44.248-45.171 62.755-26.748 25.277-54.437 51.414-44.376 93.219 7.619 31.782 29.381 52.377 59.465 56.397 13.845 1.828 28.086-.307 43.178-2.593 17.287-2.646 35.165-5.343 52.398-1.427a83.113 83.113 0 015.279 1.323c25.801 7.222 64.845 42.821 71.967 72.368a30.818 30.818 0 01.699 13.321c-25.752 32.65-72.814 70.181-114.355 103.236-9.113 7.223-17.682 14.04-25.751 20.596-17.978 14.648-30.927 30.817-36.456 45.668-5.227 13.987-6.324 26.444-3.335 38.14 5.727 22.121 20.716 35.599 36.603 49.789 9.267 8.238 18.778 16.776 26.699 27.308a43.261 43.261 0 00.097 7.27c.301 2.749.502 5.09-.347 7.628-2.29 6.817-10.608 15.514-18.778 23.851-3.882 4.02-7.62 7.832-10.409 11.292-4.131 4.983-7.819 9.765-11.353 14.446-11.807 15.45-21.119 27.659-35.711 32.082-11.108 3.356-25.404 4.015-43.685 1.986-12.553-1.376-30.728-3.613-43.728-6.76-21.466-5.191-27.989-21.106-36.205-41.245-8.321-20.446-18.927-44.145-34.569-65.199-5.977-7.983-12.25-14.997-18.329-21.814-14.74-16.378-27.439-30.563-30.678-52.533-4.284-28.985 3.285-47.55 9.961-63.973 4.779-11.848 9.364-23.039 8.614-36.313l-.046-.151c-11.159-24.16-40.098-36.004-63.353-45.414-6.33-2.593-12.852-5.238-19.972-6.811A270.125 270.125 0 000 419.254v.717a263.52 263.52 0 0146.615 6.156c7.08 1.518 13.602 4.159 19.881 6.704zm337.83-413.038c1.794 7.02 3.886 14.04 5.926 20.903 4.386 15.102 8.517 29.394 10.159 42.16 1.25 9.104 1.25 18.507.051 25.069-3.437 19.731-16.432 35.087-28.979 49.991-14.398 17.034-29.291 34.734-30.433 59.29 1.546 21.871 25.7 25.073 51.251 28.38 4.682.661 9.563 1.271 14.244 2.032 18.722 3.051 40.291 9.154 62.354 17.596 7.722 2.999 15.142 6.712 22.364 10.323 13.745 6.967 26.745 13.576 41.938 15.304a56.14 56.14 0 005.927.308c10.307 0 19.273-2.953 26.943-5.749 7.768-2.796 14.444-5.796 20.915-8.795 13.899-6.255 26.995-12.155 47.217-13.988a97.667 97.667 0 0110.909-.557c21.967 0 40.342 5.9 58.171 11.592 15.344 4.983 29.934 9.613 45.026 9.613a62.933 62.933 0 008.816-.557c22.911-2.953 40.543-15.055 53.792-37.078 11.706-19.423 18.428-43.987 24.058-67.634 1.643-6.916 4.527-19.883 5.524-29.292.997-8.848-.352-15.305-4.182-19.784-6.922-8.185-20.824-8.696-36.906-9.201-7.324-.255-14.841-.511-22.366-1.526-31.677-4.171-58.218-8.342-87.608-20.902-24.205-10.275-48.41-23.138-64.495-32.037C617.944 50.15 587.363 31.486 565.794.006h-.795c21.663 31.787 52.394 50.705 79.638 65.86 16.04 8.952 40.245 21.767 64.501 32.088 29.435 12.509 56.083 16.732 87.81 20.95 7.518.969 15.092 1.224 22.409 1.526 15.939.51 29.733.968 36.504 8.951 3.637 4.323 4.986 10.629 3.989 19.273-1.048 9.358-3.888 22.278-5.531 29.193-11.154 47.04-27.193 97.789-77.298 104.202a70.718 70.718 0 01-8.716.502c-14.991 0-29.481-4.624-44.875-9.561-17.832-5.692-36.258-11.592-58.318-11.592-3.636 0-7.323.151-10.955.502-20.323 1.833-33.471 7.832-47.414 14.138-6.478 2.901-13.148 5.951-20.87 8.747-7.619 2.744-16.585 5.645-26.745 5.645a54.306 54.306 0 01-5.829-.308c-15.04-1.677-27.989-8.238-41.734-15.153-7.222-3.661-14.648-7.426-22.415-10.373-22.114-8.494-43.729-14.597-62.456-17.649a368.873 368.873 0 00-14.296-1.984c-25.249-3.353-49.159-6.509-50.699-27.812 1.142-24.21 15.988-41.806 30.279-58.84 12.653-14.899 25.653-30.411 29.187-50.247 1.194-6.66 1.097-16.117-.051-25.324-1.692-12.867-5.874-27.105-10.261-42.207-1.989-6.869-4.034-13.987-5.926-20.955-1.193-4.525-2.439-9.155-3.73-13.628-.551-1.932-1.046-3.968-1.642-5.95h-.7c.597 2.088 1.194 4.12 1.694 6.155 1.288 4.48 2.533 9.058 3.777 13.639zM46.422 45.218C53.195 34.49 59.274 21.571 59.37.006h-.646c-.147 21.365-6.125 34.23-12.847 44.858-8.57 13.477-20.922 21.56-34.07 30.157-3.933 2.593-7.916 5.186-11.802 7.983v.81c3.984-2.848 8.12-5.54 12.154-8.185 13.148-8.643 25.6-16.783 34.262-30.41zm401.535 15.763c4.034 9.26 8.267 18.716 9.66 28.631 3.937 27.157-9.808 44.808-23.058 61.942-9.11 11.644-17.631 22.632-20.273 36.156a27.686 27.686 0 00-.346 8.191c.097 1.422.198 2.948.198 5.031v.104c3.387 9.613 13.495 16.377 21.416 20.34 28.591 14.446 75.16 21.257 109.126 26.239a111.352 111.352 0 0015.489 1.119c13.199 0 25.45-2.285 38.399-4.675 13.844-2.547 28.191-5.24 44.728-5.24 4.381 0 8.864.204 13.194.558.897.104 3.392.255 6.579.458 4.681.256 10.557.562 14.688.917 13.844 1.067 24.807 3.562 35.364 5.999 14.14 3.207 27.396 6.254 47.072 6.254 2.037 0 4.182-.047 6.319-.099 15.638-2.495 29.984-19.325 35.715-41.905 4.728-18.663 3.637-43.482-13.6-57.21-20.271-16.122-79.341-30.26-111.069-32.854-6.773-.609-12.398-.661-17.83-.661-6.074-.052-12.301-.099-20.467-.812-21.868-2.037-39.943-10.832-60.517-29.444-25.447-23.087-39.245-40.937-58.968-76.28A88.286 88.286 0 01513.8.005h-.751a90.35 90.35 0 006.175 14.04c19.726 35.442 33.522 53.294 59.12 76.483 20.62 18.715 38.847 27.563 60.864 29.599 8.166.76 14.444.812 20.516.812 5.682.052 11.006.104 17.784.661 31.626 2.646 90.499 16.68 110.763 32.751 16.936 13.478 17.933 38.04 13.299 56.5-5.631 22.273-19.819 38.901-35.163 41.395-2.087.052-4.181.099-6.219.099-19.532 0-32.874-3.099-46.923-6.255-10.608-2.437-21.563-4.931-35.461-5.998-4.131-.308-10.012-.717-14.694-.969-3.187-.151-5.676-.302-6.573-.354a127.365 127.365 0 00-13.246-.609c-16.585 0-30.983 2.645-44.824 5.238-12.954 2.39-25.154 4.624-38.305 4.624-5.15.033-10.296-.324-15.392-1.067-33.916-4.984-80.434-11.748-108.923-26.189-7.772-3.863-17.732-10.524-21.017-19.93-.051-2.036-.153-3.562-.199-4.983a23.436 23.436 0 01.296-8.036c2.642-13.273 11.108-24.256 20.125-35.854 13.393-17.189 27.193-34.985 23.205-62.443-1.443-9.966-5.625-19.581-9.71-28.783-1.591-3.614-3.29-7.373-4.735-11.139-5.219-13.28-11.344-31.131-15.23-49.593h-.646c3.937 18.565 10.063 36.567 15.29 49.893 1.441 3.709 3.089 7.473 4.731 11.082zM69.035 335.24c9.216-10.472 17.382-21.663 26.047-33.458 13.749-18.715 27.943-38.041 46.273-54.006a70.918 70.918 0 003.784-3.872 59.343 59.343 0 013.484-3.556c11.954-10.785 25.653-19.429 38.852-27.715 9.16-5.801 18.676-11.748 27.592-18.46 7.068-5.343 14.194-10.936 21.017-16.326 10.409-8.238 21.166-16.679 32.024-24.309 5.131-3.608 10.46-7.071 16.139-10.732 27.694-18.049 59.069-38.494 63.853-75.467 2.54-19.528-2.493-44.7-13.199-67.332h-.698c10.71 22.583 15.738 47.752 13.249 67.28-4.784 36.667-36.009 57.012-63.603 74.91-5.625 3.661-10.955 7.17-16.085 10.733-10.91 7.676-21.663 16.169-32.029 24.356-6.87 5.394-13.944 10.987-21.114 16.325-8.865 6.661-18.333 12.666-27.498 18.409-13.244 8.394-26.944 17.039-38.898 27.816-1.295 1.12-2.439 2.442-3.586 3.614a44.276 44.276 0 01-3.731 3.76c-18.38 16.018-32.625 35.395-46.319 54.111-8.67 11.847-16.886 22.986-26.05 33.409A126.542 126.542 0 01.005 375.112v.708a128.073 128.073 0 0069.03-40.581zm-40.84-26.34c8.914-13.274 8.966-37.379 8.017-56.908-.745-15.762-.495-45.867 9.612-70.889 7.819-19.121 26.347-36.161 44.279-52.533a1307.93 1307.93 0 008.068-7.528c35.91-33.408 53.74-63.468 69.427-98.202 1.347-2.947 2.49-6.103 3.637-9.154a116.72 116.72 0 014.735-11.441c.346-.758.744-1.52 1.093-2.238h-.749c-.296.661-.646 1.277-.994 1.885a122.363 122.363 0 00-4.682 11.543c-1.148 3.052-2.291 6.15-3.688 9.105-15.638 34.734-33.37 64.687-69.228 98.046-2.642 2.489-5.38 4.931-8.069 7.426-17.978 16.476-36.608 33.51-44.427 52.837-10.157 25.12-10.407 55.384-9.662 71.143.948 19.476.846 43.431-7.916 56.554-6.375 9.405-16.534 16.117-27.642 21.866v.76c11.307-5.848 21.665-12.612 28.188-22.272zM9.914 18.671C14.25 14.098 16.091 6.975 16.091.006h-.745c0 6.87-1.846 13.884-5.882 18.21-2.836 3-6.074 4.624-9.46 4.624v.661c3.536.002 6.973-1.674 9.91-4.83zm204.601-7.88c-9.461 11.39-16.387 26.957-23.057 42.004a409.04 409.04 0 00-3.04 6.817c-9.762 21.46-21.864 48.211-35.115 66.463-7.173 9.972-19.023 17.138-31.574 24.719-17.779 10.728-36.16 21.867-43.33 42.312-2.591 7.373-2.643 15.455-.103 25.579 2.495 5.645 6.824 8.493 12.802 8.493 9.863 0 21.519-7.785 26.296-11.951 9.516-8.192 17.88-19.528 25.895-30.568 4.335-5.848 8.767-11.998 13.352-17.591 2.239-2.598 9.91-11.543 16.336-15.409 15.239-9.154 34.762-16.174 55.433-23.6 28.739-10.27 58.371-20.898 76.848-38.191 9.864-9.052 15.688-23.289 16.188-38.953.452-16.783-5.224-32.699-16.134-44.904A54.74 54.74 0 00299.04.006h-1.097a59.665 59.665 0 016.87 6.51 63.223 63.223 0 0115.938 44.347c-.398 15.46-6.222 29.547-15.887 38.498-18.427 17.138-48.061 27.767-76.649 38.036-20.722 7.426-40.245 14.445-55.535 23.647-6.625 4.02-14.295 12.972-16.484 15.612-4.681 5.546-9.114 11.701-13.448 17.648-8.018 10.936-16.283 22.225-25.752 30.36-4.727 4.119-16.234 11.852-25.895 11.852-5.727 0-9.812-2.697-12.2-8.087-2.443-9.869-2.391-17.852.148-25.121 7.074-20.189 25.353-31.224 43.03-41.905 12.602-7.629 24.506-14.852 31.829-24.97 13.195-18.257 25.302-45.06 35.11-66.52.999-2.286 1.994-4.577 3.039-6.863 6.676-15.003 13.597-30.464 23.012-41.8A61.723 61.723 0 01227.266.006h-1.142a63.803 63.803 0 00-11.608 10.786zm263.373 173.972l.051.105c1.194 1.27 1.893 3.046 2.54 4.774l.148.359.103.203c4.877 4.629 12.148 7.223 20.515 7.223 11.907 0 23.705-5.141 29.482-12.717a17.688 17.688 0 003.289-15.253c-2.54-10.072-11.955-13.378-22.216-16.07l-.046-.053-.051.053c-17.431 2.593-35.461 13.471-33.819 31.27v.104l.004.002zm33.819-30.714c10.058 2.693 19.177 5.848 21.663 15.557a16.952 16.952 0 01-3.187 14.697c-5.631 7.426-17.287 12.462-28.938 12.462-8.17 0-15.29-2.547-20.023-7.072l-.097-.255c-.699-1.776-1.397-3.609-2.591-4.983-1.691-19.777 20.918-28.526 33.173-30.406zm146.628 42.41l.25.459.097.051c10.71 6.864 28.438 11.442 44.08 11.442 10.307 0 28.292-2.084 32.969-16.275v-.052a17.704 17.704 0 00-5.279-13.071c-6.772-7.118-20.27-11.493-35.162-11.493-18.875 0-39.245 7.426-39.546 23.903v.104l.148.099a14.116 14.116 0 012.443 4.833zm36.955-28.276c14.694 0 28.039 4.373 34.718 11.289a17.557 17.557 0 015.079 12.514c-4.584 13.727-22.266 15.763-32.324 15.763-15.489 0-32.972-4.525-43.684-11.29l-.097-.307c-.699-1.729-1.347-3.557-2.54-4.879.348-15.867 20.371-23.09 38.848-23.09zm-511.304 353.03c-3.785 16.528-7.722 33.719-6.125 59.349 12.602 44.6 27.489 78.264 45.37 103.029 4.187 5.749 9.312 12.305 15.79 17.596 9.262 7.577 22.46 12.05 35.165 12.05 12.796 0 23.756-4.473 30.825-12.761 7.869-9.105 10.76-22.22 8.619-38.952-1.244-9.358-4.585-19.226-7.869-28.787-3.29-9.509-6.676-19.325-7.87-28.677-4.83-36.364 10.409-74.045 40.592-100.744 12.801-11.394 26.046-20.596 38.751-29.495 13.795-9.712 28.04-19.731 41.532-32.245 20.523-18.965 43.729-40.529 47.563-73.024v-.151c-2.438-15.362-7.119-31.177-24.256-42.467-9.71-6.457-20.466-9.457-33.813-9.457-11.406 0-23.114 2.187-35.563 4.474-13.398 2.442-27.245 4.983-41.637 4.983-3.534 0-7.023-.151-10.358-.406-6.824-.661-15.443-2.796-24.455-5.083-12.154-3.004-24.756-6.155-34.718-6.155a32.899 32.899 0 00-5.727.459c-13.449 2.082-27.694 13.98-38.598 24.105-18.182 16.83-35.313 34.375-38.154 48.822-1.096 5.645-.744 14.697-.051 21.257 1 9.965 3.142 18.408 5.131 26.547 3.539 14.54 7.221 29.595 5.432 53.648-.895 11.693-3.134 21.66-5.576 32.085zm.796-85.892c-1.99-8.134-4.089-16.576-5.081-26.443-.698-6.562-1.045-15.509 0-21.054 2.79-14.29 19.876-31.735 37.955-48.514 10.853-10.019 25.001-21.818 38.251-23.954a37.934 37.934 0 015.625-.354c9.91 0 22.461 3.098 34.564 6.15 9.068 2.239 17.682 4.373 24.506 5.036 3.387.307 6.873.459 10.46.458 14.444 0 28.341-2.542 41.734-5.082 12.454-2.24 24.16-4.427 35.466-4.427 13.199 0 23.854 3 33.518 9.358 16.881 11.184 21.466 26.746 23.904 42.056-3.835 32.189-26.892 53.6-47.314 72.566-13.545 12.461-27.739 22.429-41.489 32.093-12.796 8.947-25.949 18.206-38.847 29.647-30.381 26.797-45.671 64.687-40.842 101.301 1.245 9.409 4.631 19.22 7.921 28.781 3.29 9.514 6.676 19.377 7.819 28.683 2.193 16.528-.699 29.449-8.465 38.447-6.92 8.087-17.631 12.509-30.279 12.509-12.553 0-25.552-4.474-34.767-11.901-6.375-5.239-11.506-11.795-15.637-17.493-17.881-24.662-32.676-58.282-45.274-102.774-1.596-25.429 2.341-42.566 6.177-58.996 2.439-10.524 4.682-20.492 5.528-32.24 1.788-24.155-1.848-39.256-5.433-53.853zm40.843 84.167c.699 2.999 1.148 6.051 1.693 9.409 1.794 11.696 3.938 25.07 15.688 31.376l.102.052h.097c14.295-1.016 23.313-14.034 32.875-27.766 3.433-4.88 6.921-9.966 10.706-14.394 21.068-24.866 44.824-41.342 67.786-57.309 16.14-11.242 31.427-21.871 44.926-34.733 4.331-2.187 7.273-6.004 10.063-9.665 2.137-2.745 4.33-5.697 7.222-7.931 12.347-15.772 16.432-34.229 10.409-46.94-3.789-8.036-13.25-17.649-36.858-17.649-3.188 0-6.523.204-9.961.511-7.573.765-16.283 2.39-25.404 4.119-10.159 1.88-21.663 4.02-33.267 5.291-2.443.255-4.735.458-7.023.76-30.978 3.154-49.655 5.187-68.285 27.563-13.245 16.018-20.319 35.802-22.313 62.349-1.193 16.987-.244 35.598.602 51.971.44 8.234.843 16.014.942 22.986zm-.847-74.905c1.944-26.396 9.017-46.026 22.115-61.89 18.426-22.325 35.96-24.106 67.836-27.465 2.289-.203 4.58-.458 7.022-.708 11.654-1.276 23.16-3.411 33.32-5.291 9.11-1.677 17.778-3.359 25.352-4.067a95.928 95.928 0 019.91-.562c23.261 0 32.574 9.409 36.307 17.294 5.829 12.508 1.841 30.661-10.308 46.123-2.891 2.294-5.13 5.186-7.323 7.982-2.887 3.865-5.58 7.426-9.813 9.51l-.096.051c-13.502 12.916-28.792 23.545-44.932 34.731-23.011 16.018-46.717 32.494-67.882 57.464-3.789 4.373-7.273 9.463-10.71 14.394-9.461 13.575-18.381 26.443-32.324 27.458-11.455-6.15-13.399-18.712-15.29-30.818-.546-3.354-.995-6.457-1.643-9.404-.102-6.916-.551-14.649-.948-22.888-.844-16.368-1.839-34.982-.595-51.918l.002.004zm431.565-6.207c5.08 48.31 9.864 93.979 46.769 126.631 24.803 21.917 64.901 45.257 103.299 45.257 23.406 0 42.631-8.847 57.178-26.344 12.546-15.206 19.023-32.953 26.447-53.549.796-2.286 1.643-4.577 2.489-6.967 1.492-3.964 2.934-7.879 4.383-11.749 8.264-22.272 16.082-43.221 18.026-60.666 4.333-38.395-9.31-53.856-26.196-68.807-26.297-23.241-60.513-24.969-96.773-26.85-8.565-.458-18.73-1.374-29.432-2.39-16.886-1.577-35.959-3.307-51.95-3.307-17.233 0-28.54 1.984-34.665 6.156-25.7 17.392-22.614 59.648-20.171 76.94l.596 5.645zm19.921-81.976c6.026-4.119 17.233-6.104 34.319-6.104 15.94 0 35.064 1.782 51.899 3.359 10.702.964 20.867 1.932 29.432 2.339 36.16 1.827 70.282 3.609 96.378 26.699 16.786 14.799 30.278 30.156 25.996 68.243-1.944 17.295-9.763 38.244-17.983 60.47-1.442 3.916-2.934 7.827-4.333 11.795a191.204 191.204 0 00-2.539 6.967c-7.424 20.496-13.844 38.192-26.39 53.346-14.354 17.341-33.377 26.141-56.632 26.141-38.154 0-78.195-23.345-102.852-45.211-36.756-32.396-41.489-77.961-46.518-126.12l-.645-5.692c-2.493-17.193-5.482-59.098 19.866-76.236l.002.004zm15.341 89.912c4.432 41.696 8.222 77.701 41.288 104.4 15.343 12.461 43.082 27.006 70.526 27.006 13.651 0 25.157-3.609 34.267-10.78 25.794-20.392 37.006-62.807 38.799-92.913 2.045-34.786-10.465-65.349-33.419-81.622-21.068-15.003-47.86-16.528-76.302-18.106-6.226-.303-12.402-.657-18.578-.657-17.833 0-39.843 2.286-51.103 20.034-6.473 13.478-6.074 29.292-5.626 44.549.049 2.742.095 5.388.146 8.086l.002.003zm6.08-52.33c11.056-17.392 32.819-19.684 50.499-19.684 6.176 0 12.302.307 18.578.717 28.241 1.577 54.983 3 75.95 17.903 22.71 16.17 35.113 46.528 33.075 81.06-1.743 30.006-12.904 72.212-38.548 92.454-8.967 7.066-20.322 10.682-33.822 10.682-27.243 0-54.839-14.544-70.175-26.956-32.77-26.549-36.407-60.72-40.94-103.895-.051-2.646-.103-5.291-.251-8.035-.346-15.213-.743-30.928 5.631-44.25l.003.004zM285.34 439.643l.148.104a15.85 15.85 0 012.693 2.541 13.28 13.28 0 003.386 2.953l.051.045h.148c18.875-3.405 40.342-13.425 56.03-26.084 6.227-5.035 13.5-11.901 14.943-20.496l.051-.151-.102-.157a28.843 28.843 0 00-3.085-3.504c-.846-.818-1.649-1.577-2.391-2.443l-.051-.156h-.148a83.59 83.59 0 00-8.864-.453c-16.438 0-38.853 5.083-52.297 19.273-7.374 7.879-10.909 17.393-10.51 28.376v.15l-.002.002zm11.006-28.068c13.25-14.086 35.461-19.071 51.801-19.071a79.614 79.614 0 018.665.454c.745.863 1.54 1.681 2.291 2.441 1.11.98 2.097 2.091 2.941 3.308-1.444 8.342-8.569 15.055-14.643 19.93-15.591 12.613-36.904 22.583-55.632 25.986a12.962 12.962 0 01-3.039-2.745 21.747 21.747 0 00-2.688-2.594c-.355-10.675 3.031-19.982 10.304-27.709zm464.392 120.168c11.053 7.321 23.406 11.289 34.861 11.289 15.093 0 27.739-6.66 36.756-19.324 20.917-29.444 11.455-85.133-18.529-108.269-8.12-6.359-22.014-13.883-41.884-13.883a81.09 81.09 0 00-14.296 1.27c-20.967 3.609-31.878 20.543-31.526 48.873.293 21.511 5.228 60.567 34.617 80.044h.001zm-2.992-128.257a85.385 85.385 0 0114.196-1.219c19.676 0 33.42 7.421 41.54 13.68 14.138 10.983 24.353 29.745 27.99 51.618 3.586 21.356-.051 42.155-9.713 55.788-8.816 12.456-21.369 18.966-36.16 18.966-11.305 0-23.607-3.916-34.517-11.139-29.087-19.273-33.965-58.071-34.259-79.481-.41-27.97 10.357-44.65 30.923-48.209v-.004zM83.827 721.579c2.739 5.083 5.38 9.965 8.518 13.98l.152.157c4.33 5.743 11.7 15.307 21.962 13.729 11.057-1.677 25.648-15.105 23.011-34.833-2.091-15.764-12.449-27.309-32.625-36.313-1.292-.557-2.583-1.166-3.932-1.728-9.711-4.166-18.926-8.134-23.16-17.596-4.38-18.712-5.227-43.936-6.176-70.739-.745-22.168-1.545-45.154-4.483-64.734-5.626-37.786-24.552-60.261-57.876-68.858a79.91 79.91 0 00-9.212-1.93v.717a77.934 77.934 0 019.062 1.876c33.023 8.442 51.796 30.818 57.376 68.296 2.891 19.58 3.687 42.513 4.483 64.688.897 26.803 1.793 52.074 6.176 70.941 4.381 9.764 13.7 13.732 23.558 17.956 1.346.609 2.641 1.114 3.937 1.728 19.921 8.848 30.132 20.237 32.172 35.802 2.591 19.273-11.603 32.392-22.41 34.02-9.864 1.527-17.086-7.829-21.37-13.378l-.147-.151c-3.092-4.064-5.728-8.846-8.465-13.937-8.62-15.915-17.534-32.389-43.034-28.066-12.05 1.983-25.597 8.54-41.336 19.881v.865c15.835-11.493 29.387-18.101 41.438-20.085 25.05-4.224 33.863 12.05 42.38 27.714l.001-.002zm-67.284-90.214c14.744-16.581 22.614-41.093 21.614-67.334-.994-25.276-10.258-48.361-24.802-61.838a38.757 38.757 0 00-13.347-6.405v.656a40.15 40.15 0 0112.898 6.208c14.443 13.424 23.608 36.358 24.604 61.379 1 26.038-6.824 50.451-21.415 66.927a96.479 96.479 0 01-16.09 14.089v.812a89.603 89.603 0 0016.536-14.492l.002-.002zm598.414 4.421c-.646-4.526-2.688-9.965-4.381-14.29-14.046-35.697-47.018-73.126-70.973-94.281-16.438-14.498-30.086-22.985-40.546-25.126a33.022 33.022 0 00-7.222-.76c-28.585 0-63.697 29.698-65.893 55.735.127 1.294.379 2.572.75 3.817.398 1.932.898 3.865.699 5.947v.104l.046.047a535.543 535.543 0 0034.369 68.552c5.677 9.561 11.406 18.715 18.927 26.396 18.176 18.56 49.853 31.578 76.848 31.578 14.943 0 27.443-3.864 37.157-11.336 16.231-12.564 23.057-28.176 20.216-46.381l.003-.002zm-57.376 57.011c-26.847 0-58.274-12.92-76.354-31.38-7.472-7.577-13.199-16.732-18.875-26.189a540.113 540.113 0 01-34.267-68.4 18.57 18.57 0 00-.796-6.103 33.021 33.021 0 01-.745-3.661c2.239-25.73 37.001-55.022 65.291-55.022a35.723 35.723 0 017.126.661c10.358 2.188 23.904 10.577 40.241 25.017 23.858 21.158 56.728 58.434 70.728 94.032 1.692 4.27 3.73 9.659 4.431 14.138 2.739 17.95-4.034 33.359-20.073 45.717-9.567 7.375-21.919 11.192-36.71 11.192l.003-.002zm-5.133-114.163c-14.393-13.425-31.529-23.142-44.825-25.277a39.498 39.498 0 00-7.173-.662c-8.267 0-14.893 2.645-19.773 7.832-5.728 6.051-8.569 15.557-8.119 26.751 5.828 25.579 11.704 46.377 29.338 61.026 11.108 9.358 28.239 15.409 43.478 15.409 18.33 0 31.029-8.597 34.819-23.496 1.091-4.426.892-10.832.244-15.258-2.188-14.852-12.398-31.737-27.989-46.325zm27.043 61.38C575.803 654.658 563.405 663 545.371 663c-15.135 0-32.023-6-43.081-15.206-17.43-14.544-23.256-35.192-29.085-60.62-.449-10.93 2.392-20.237 7.966-26.24 4.682-4.983 11.21-7.527 19.279-7.527 2.37.014 4.735.218 7.073.609 27.592 4.525 67.582 39.77 72.314 71.047.6 4.32.799 10.626-.343 14.948l-.003.003zm133.525 54.668l-.097-.052-.148-.052a38.897 38.897 0 00-5.283-.354 40.551 40.551 0 00-11.549 1.781c-21.068 6.254-42.285 24.919-49.308 43.323-4.982 12.969-2.891 27.314-.897 41.194 1.84 12.869 3.586 24.92.102 35.545-5.432 16.381-19.824 26.698-33.768 36.67-14.744 10.582-29.984 21.465-33.722 39.467-2.239 12.761 1.046 24.863 9.364 34.935 11.755 14.289 33.319 23.594 54.887 23.594 14.097 0 26.444-3.864 35.762-11.033 7.317-5.642 12.398-13.428 17.728-21.615l.846-1.327c5.279-10.675 7.023-23.486 8.916-37.172 1.642-11.851 3.34-24.103 7.471-36.255 2.443-7.169 5.029-13.22 7.521-18.969 7.625-17.751 14.145-33.158 11.01-70.947-1.8-21.661-5.53-47.958-18.832-58.736l-.003.003zm7.173 129.371c-2.494 5.85-5.08 11.851-7.522 19.07-4.089 12.21-5.779 24.512-7.472 36.413-1.892 13.578-3.682 26.347-8.864 36.921l-.744 1.219c-5.58 8.546-10.364 15.866-17.637 21.515-9.159 7.119-21.415 10.833-35.359 10.833-21.318 0-42.733-9.156-54.387-23.293-8.171-9.973-11.405-21.866-9.216-34.427 3.687-17.701 18.182-28.024 33.421-38.957 14.096-10.073 28.54-20.497 34.018-37.022 3.586-10.833 1.84-22.985 0-35.846-2.045-13.837-4.085-28.132.846-40.893 6.921-18.26 27.938-36.718 48.808-42.92a39.72 39.72 0 0111.405-1.729 36.086 36.086 0 015.131.354c13.104 10.682 16.834 36.717 18.628 58.181 3.038 37.629-3.432 52.885-11.05 70.578l-.006.003zm-620.033 5.449a16.002 16.002 0 00-10.807-4.28c-6.67 0-14.046 4.28-20.32 11.7-7.67 9.155-11.954 21.049-10.659 29.595 3.04 14.546 16.04 22.174 27.245 22.174a23.023 23.023 0 0019.176-9.765c9.121-12.814 6.58-39.569-4.63-49.427l-.005.003zm4.136 48.966a22.295 22.295 0 01-18.677 9.513c-10.96 0-23.608-7.427-26.596-21.615-1.245-8.288 2.94-19.988 10.557-29.043 6.08-7.269 13.352-11.384 19.774-11.384a15.406 15.406 0 0110.409 4.065c11.016 9.661 13.454 35.958 4.539 48.461l-.006.003zm238.328 40.531a14.414 14.414 0 01-1.346-3.254l-.051-.101-.051-.107a14.929 14.929 0 00-8.762-2.947c-4.835 0-9.761 2.337-13.301 6.259a17.028 17.028 0 00-4.534 12.711l.051.1c2.341 4.782 6.324 7.42 11.406 7.42 7.869 0 17.329-6.961 18.177-16.216v-.101a12.687 12.687 0 00-1.589-3.764zm-16.585 19.372c-4.734 0-8.619-2.495-10.759-6.962a15.952 15.952 0 014.334-12.159c3.387-3.713 8.166-6 12.802-6a13.966 13.966 0 018.216 2.796 14.709 14.709 0 001.443 3.255 13.096 13.096 0 011.444 3.505c-.849 8.905-9.912 15.565-17.48 15.565zM1241.96 12.573c16.09 7.983 35.01 8.795 50.7 2.234a50.103 50.103 0 0019.62-14.8h-.79a47.752 47.752 0 01-19.03 14.138c-15.54 6.561-34.32 5.749-50.2-2.135-5.19-2.54-10.07-6.561-14.75-12.004h-.89c4.83 5.802 9.96 9.921 15.34 12.567zM671.433 40.49c6.278 4.526 12.256 9.358 18.029 13.98 13.994 11.191 27.194 21.67 41.737 26.653 16.29 8.284 31.863 12.436 46.719 12.456a75.784 75.784 0 0035.213-8.592c32.774-16.835 51.252-53.6 58.325-84.98h-.703c-7.073 31.125-25.343 67.691-57.924 84.371-24.352 12.508-51.747 11.184-81.379-3.871-14.49-4.932-27.641-15.456-41.59-26.647-5.773-4.577-11.751-9.358-18.077-13.935-6.778-4.932-13.8-9.712-20.619-14.29C638.812 17.249 626.709 9.06 616.05.006h-1.097c10.858 9.31 23.211 17.648 35.859 26.193 6.825 4.627 13.848 9.36 20.621 14.292zM906.82 53.251c4.433 10.983 14.188 16.326 29.826 16.326 7.919 0 16.139-1.375 22.76-2.494h.201a26.725 26.725 0 014.634-.354c6.226 0 12.603 1.88 18.729 3.713 3.135.963 6.478 1.932 9.662 2.593 2.59.61 5.129 1.067 7.668 1.625 10.51 2.088 21.42 4.275 31.28 8.9a380.58 380.58 0 0011.75 5.29c19.23 8.494 39.1 17.29 51.99 34.38.81 1.068 1.5 2.135 2.25 3.203 9.02 13.628 16.83 28.271 24.3 42.462 8.47 16.018 17.24 32.447 27.8 47.497 10.21 14.697 23.96 30.922 37.25 46.633 4.64 5.494 8.96 10.682 13.2 15.768 21.12 25.527 41.04 49.581 77.8 49.581h.05c9.41 0 19.37-1.527 30.58-4.578 31.82-8.746 88-30.612 107.23-78.008 5.08-12.561 8.47-30.111 12.05-48.617 2.74-13.988 5.58-28.479 9.17-40.529v-2.295c-3.94 12.509-6.93 27.871-9.77 42.665-3.63 18.565-7.02 36.01-12.05 48.518-19.13 47.19-75.11 68.859-106.78 77.602-11.16 3.104-21.12 4.577-30.43 4.577h-.05c-36.41 0-56.28-23.949-77.25-49.377-4.23-5.09-8.62-10.274-13.25-15.716-13.25-15.711-26.99-31.984-37.26-46.581-10.45-15.003-19.22-31.532-27.69-47.445-7.52-14.191-15.34-28.886-24.36-42.519a44.993 44.993 0 00-2.28-3.255c-13-17.185-32.92-26.037-52.2-34.578a618.63 618.63 0 01-11.75-5.29c-9.97-4.677-20.87-6.864-31.43-8.999a372.48 372.48 0 01-7.667-1.577c-3.142-.717-6.427-1.677-9.619-2.593-6.176-1.834-12.546-3.766-18.923-3.766a34.41 34.41 0 00-4.727.359l-.301.046c-6.528 1.12-14.698 2.443-22.567 2.443-15.286 0-24.898-5.187-29.188-15.815-4.476-10.936-2.984-29.495-1.643-45.92.201-2.494.402-4.833.553-7.124h-.696c-.151 2.294-.301 4.63-.502 7.072-1.342 16.481-2.791 35.145 1.65 46.18v-.002zm275.47-32.395c19.77 27.36 54.88 43.633 93.88 43.633 9.42.03 18.8-.977 27.99-3 34.67-7.83 45.78-31.982 50.7-61.483h-.64c-1.54 9.358-3.69 18.107-7.02 25.991-8.02 18.919-21.77 30-43.14 34.833a127.754 127.754 0 01-27.89 3c-38.8 0-73.66-16.221-93.33-43.378-2.19-5.796-4.03-12.816-5.83-20.445h-.7a180.901 180.901 0 005.93 20.804l.05.045zM993.228 35.152c17.632 2.593 34.462 7.931 50.652 13.12 10.46 3.358 21.32 6.816 32.32 9.508 7.02 1.73 14.04 3.104 20.27 4.067 5.52.901 11.1 1.396 16.69 1.48 9.66 0 15.39-2.035 17.18-6.104 4.93-10.832 8.72-34.381 8.92-57.217h-.65c-.2 22.736-3.98 46.129-8.82 56.96-1.69 3.765-7.32 5.645-16.63 5.645-5.55-.066-11.1-.541-16.58-1.422a240.17 240.17 0 01-20.22-4.072c-11.01-2.692-21.77-6.15-32.23-9.508-16.28-5.187-33.12-10.577-50.852-13.17-17.431-2.542-31.325-14.748-39.496-34.432h-.746c8.264 20.09 22.417 32.5 40.192 35.145zm388.432-17.55c-.89 25.021-1.69 46.686-17.97 59.45-16.95 13.377-46.52 17.189-68.14 19.938-2.15.303-4.29.61-6.28.865-3.85.515-7.72.769-11.6.76-22.02 0-45.48-7.577-68.19-14.851-20.32-6.458-41.28-13.222-60.91-14.389h-.05l-.05.052c-11.2 3.254-14 15.456-12.9 25.782 3.19 40.327 17.09 73.332 48.11 113.961 6.23 8.139 12.11 16.429 17.73 24.465 9.67 13.524 18.73 26.391 29.34 38.493 15.88 18.257 35.81 27.413 59.27 27.413 27.19 0 57.77-12.915 83.92-35.547 26.95-29.802 30.99-69.264 32.82-107.149.15-2.953.2-6.004.3-9.305.4-15.206.85-34.178 8.17-43.535 6.42-8.239 14-14.597 21.77-20.19v-.812c-7.97 5.697-15.7 12.102-22.31 20.647-7.43 9.457-7.88 28.527-8.32 43.837-.1 3.307-.15 6.405-.3 9.306-1.8 37.734-5.83 77.141-32.63 106.743-25.99 22.476-56.38 35.395-83.42 35.395-23.26 0-43.08-9.207-58.77-27.209-10.56-12.154-19.68-24.917-29.28-38.545-5.63-7.984-11.51-16.222-17.73-24.413-30.94-40.53-44.83-73.484-47.97-113.659-1.1-9.965 1.54-21.866 12.35-25.02 19.48 1.171 40.39 7.832 60.66 14.338 22.76 7.275 46.27 14.852 68.39 14.852 3.91-.019 7.82-.274 11.7-.766 2-.302 4.13-.557 6.28-.812 21.66-2.796 51.39-6.66 68.38-20.085 16.59-13.019 17.38-34.734 18.33-60.01.2-5.234.35-10.677.69-16.118.08-.49.13-.983.15-1.478h-.69c0 .51-.05.917-.05 1.427-.4 5.495-.6 10.884-.8 16.17zm10.36 336.914l-.1.047c-4.58 3.713-11.51 9.357-10.76 17.134l.05.157.11.098a29.533 29.533 0 013.93 3.865l.05.104h.09a127.7 127.7 0 0025.6 2.645c8.74-.02 17.46-.941 26.01-2.749v-.709a124.916 124.916 0 01-51.36.152 32.711 32.711 0 00-3.78-3.766c-.65-7.322 5.78-12.56 10.46-16.424l.1-.099c8.12-6.561 18.72-11.543 30.03-16.783 4.88-2.24 9.76-4.578 14.55-7.02v-.76c-4.88 2.489-9.92 4.879-14.85 7.118-11.3 5.294-22.01 10.278-30.13 16.99zm28.99-348.76c.74 9.41 8.22 17.748 15.99 17.748v-.717c-7.47 0-14.6-7.983-15.29-17.086a30.1 30.1 0 01-.06-5.695h-.64a32.475 32.475 0 000 5.75zm-92.89 125.917c-4.58.027-9.16.503-13.65 1.421-10.16 2.036-21.02 5.291-32.57 8.747-12.9 3.864-26.35 7.931-39.1 10.17-11.8 2.187-16.93 7.528-15.58 16.425v.051c4.13 8.9 7.31 18.815 10.7 29.292 7.27 22.887 14.85 46.535 33.23 58.84 8.66 5.743 19.22 8.795 30.52 8.795 18.38 0 37.16-7.832 50.4-21.001 10.86-10.884 18.78-28.579 21.22-47.347 2.59-19.783-1.29-38.545-10.7-51.465-6.28-8.591-19.53-13.928-34.47-13.928zm23.46 112.232c-13.1 13.07-31.78 20.85-49.91 20.85-11.2 0-21.62-2.999-30.18-8.747-18.23-12.154-25.7-35.65-33.02-58.433-3.33-10.477-6.48-20.392-10.61-29.292-1.24-8.546 3.49-13.529 15.04-15.557 12.75-2.343 26.25-6.309 39.25-10.222 11.45-3.458 22.37-6.713 32.42-8.747 4.46-.898 9-1.359 13.55-1.375 14.74 0 27.74 5.239 33.92 13.681 20.47 27.968 11.01 76.434-10.46 97.84v.002zM565.147 434.508c3.386 6.562 6.875 13.326 9.762 20.039 2.591 5.744 5.182 11.795 7.721 17.695 15.489 35.952 31.478 73.18 54.785 103.029 8.916 11.442 19.726 22.377 30.132 33.058 10.011 10.118 19.426 19.627 26.949 29.292a145.597 145.597 0 019.858 14.492c6.426 10.171 12.5 19.787 22.612 26.392l.101.052 2.891-.203c38.649-2.339 72.069-4.373 107.676-10.983 25.3-4.681 43.233-9.712 53.146-14.904 20.473-10.727 26.046-29.901 32.021-50.241.646-2.08 1.299-4.224 1.894-6.359 8.665-28.781 21.218-57.974 53.734-76.227l.108-.156c.251-.302.495-.609.796-.911a4658.663 4658.663 0 0020.221-10.936c11.756-6.309 23.906-12.92 35.906-19.221 5.18-2.749 10.31-5.598 15.4-8.29 7.87-4.322 16.03-8.747 24.1-12.867 5.58-2.745 10.51-6.562 15.39-10.223 1.19-.916 2.43-1.88 3.63-2.796 4.49-3.359 9.46-6.764 15.14-8.998 10.66-4.276 22.47-4.78 33.82-5.343 9.86-.406 20.03-.917 29.59-3.765 9.11-2.693 15.44-5.083 20.72-13.019 17.08-25.423 8.42-44.446-5.58-68.499-14.75-25.225-32.67-44.904-53.35-58.429a92.622 92.622 0 00-11.59-6.202c-4.34-2.084-8.77-4.219-12.76-7.067-4.63-3.255-9.12-6.816-13.44-10.274-3.54-2.796-7.13-5.698-10.81-8.442-14.99-11.034-32.92-23.293-53.05-30.511-6.67-2.39-14.59-2.848-20.07-2.848a87.14 87.14 0 00-16.238 1.474c-6.226 1.219-11.254 4.015-16.584 7.014-2.238 1.276-4.627 2.599-7.073 3.817-2.69 1.219-5.48 2.188-8.163 3.151a60.214 60.214 0 00-10.358 4.373c-8.17 4.578-16.089 9.921-23.714 15.107-7.367 4.984-14.985 10.118-22.804 14.592-36.963 21.21-68.633 33.161-99.463 37.733a188.928 188.928 0 01-27.746 2.088 180.788 180.788 0 01-34.066-3.202c-8.665-1.631-17.581-4.171-26.246-6.668-15.194-4.322-30.831-8.796-46.172-8.796a64.48 64.48 0 00-23.308 4.015c-14.642 5.495-27.693 16.889-41.539 28.99-7.07 6.151-14.343 12.509-22.262 18.56-1.794 1.323-4.035 2.901-6.575 4.682-5.625 4.067-12.648 9.05-18.676 14.237-11.205 9.816-14.296 18.767-10.608 31.021 3.085 10.069 8.415 20.495 14.142 31.477zm-3.136-61.942c6.025-5.233 13-10.17 18.676-14.237 2.54-1.781 4.734-3.354 6.527-4.728 7.967-5.999 15.291-12.409 22.359-18.568 13.75-12.051 26.745-23.393 41.29-28.881a65.732 65.732 0 0123.109-4.02c15.244 0 30.83 4.473 45.971 8.847 8.716 2.494 17.632 5.036 26.347 6.713a185.946 185.946 0 0034.166 3.154c9.303.013 18.593-.686 27.789-2.088 31.031-4.578 62.708-16.628 99.765-37.833 7.818-4.478 15.436-9.665 22.861-14.597 7.574-5.186 15.537-10.477 23.607-15.055a62.721 62.721 0 0110.257-4.322 73.927 73.927 0 008.221-3.255c2.496-1.166 4.877-2.541 7.123-3.76 5.329-2.952 10.307-5.801 16.39-6.967a86.25 86.25 0 0116.131-1.526c5.43 0 13.25.557 19.87 2.896 19.97 7.169 37.95 19.428 52.85 30.463 3.63 2.698 7.32 5.546 10.81 8.388 4.38 3.411 8.86 6.968 13.44 10.274a92.012 92.012 0 0012.9 7.119c3.97 1.77 7.8 3.828 11.46 6.155 20.62 13.529 38.5 33.104 53.15 58.178 13.88 23.902 22.45 42.769 5.62 67.838-5.18 7.78-11.41 10.071-20.32 12.716-9.51 2.896-19.68 3.302-29.44 3.812-11.46.459-23.26 1.016-34.12 5.338-5.67 2.239-10.65 5.697-15.19 9.056-1.29.911-2.49 1.88-3.68 2.796-4.83 3.66-9.81 7.472-15.24 10.222-8.17 4.067-16.29 8.488-24.15 12.761-5.03 2.744-10.27 5.644-15.45 8.337a3960.04 3960.04 0 00-35.857 19.226c-6.772 3.713-13.5 7.374-20.272 10.982l-.1.052a9.016 9.016 0 00-.847.964c-32.674 18.46-45.219 47.752-53.935 76.639a368.758 368.758 0 00-1.894 6.358c-5.925 20.19-11.556 39.26-31.727 49.784-9.913 5.239-27.688 10.274-52.938 14.903-35.564 6.609-68.984 8.645-107.633 10.983l-2.647.151c-9.957-6.509-15.981-15.966-22.356-26.084a160.921 160.921 0 00-9.863-14.544c-7.62-9.666-17.035-19.273-26.995-29.345-10.41-10.682-21.268-21.663-30.081-33.057-23.261-29.797-39.296-66.973-54.739-102.827-2.54-5.9-5.13-11.951-7.67-17.695-2.989-6.712-6.473-13.529-9.859-20.09-5.63-11.035-10.96-21.304-14.045-31.427-3.585-11.893-.647-20.639 10.359-30.2v.001zm62.058 108.065l1.295 5.035c13.495 51.26 33.518 81.674 73.961 111.93l.944.765c21.77 16.274 40.592 30.411 61.509 37.171 10.466 3.463 23.263 5.239 36.956 5.239h.05c18.177 0 36.706-3.255 49.51-8.645 33.821-14.289 46.216-44.498 60.462-79.585 18.73-45.92 51.554-105.322 101.304-127.594 9.01-4.015 17.73-4.832 26.95-5.697 3.53-.302 7.22-.708 10.95-1.219 14.1-2.036 29.84-4.983 48.22-9.05 2.59-.511 5.18-1.12 7.77-1.729 13.45-3.052 31.22-11.701 37.05-25.939 4.33-10.524 3.68-20.137-1.74-28.526-16.24-24.923-72.17-33.464-95.13-33.515h-.45c-10.16 0-20.57 1.067-30.63 2.135-5.73.609-11.61 1.27-17.283 1.629-9.662.709-17.531 3.513-27.244 9.712-10.013 6.405-20.766 9.457-33.764 9.457-9.712 0-19.575-1.624-29.984-3.298-3.142-.562-6.427-1.067-9.712-1.577-13.651-2.036-28.241-2.953-46.073-2.953-11.054 0-22.216.359-32.969.717-10.709.307-21.72.661-32.573.661-19.776 0-35.715-1.219-50.356-3.812-4.282-.817-8.916-1.935-13.844-3.103-10.559-2.593-22.514-5.541-34.514-5.541a60.408 60.408 0 00-18.13 2.541c-27.745 8.54-50.951 43.175-55.234 70.228-1.597 10.123-1.346 20.497.699 32.651 3.187 18.503 7.466 34.728 12 51.912zm-12.001-84.466c4.232-26.855 27.193-61.178 54.683-69.671a61.876 61.876 0 0117.983-2.546c11.95 0 23.853 2.9 34.364 5.494 4.884 1.224 9.561 2.338 13.894 3.154 14.648 2.641 30.63 3.812 50.456 3.812 10.853 0 21.864-.307 32.573-.661 10.753-.354 21.915-.717 32.969-.717 17.732 0 32.372.969 45.972 2.953 3.286.557 6.571 1.067 9.713 1.577 10.458 1.677 20.321 3.255 30.084 3.255 13.091 0 24.002-3.005 34.159-9.464 9.619-6.155 17.388-8.9 26.899-9.613a665.59 665.59 0 0017.283-1.624c10.01-1.068 20.47-2.135 30.58-2.135h.45c22.86.052 78.44 8.493 94.53 33.156 5.33 8.186 5.93 17.596 1.7 27.969-5.73 13.987-23.27 22.475-36.56 25.527-2.54.562-5.13 1.12-7.72 1.729-18.38 4.02-34.13 6.968-48.21 9.004-3.69.51-7.38.86-10.91 1.171-9.27.911-18.08 1.729-27.15 5.796-50.002 22.325-82.87 81.872-101.699 127.948-14.196 34.885-26.498 65.041-60.068 79.18-12.747 5.39-31.125 8.597-49.259 8.597h-.05c-13.643 0-26.347-1.781-36.755-5.14-20.817-6.712-39.546-20.798-61.358-37.124l-.949-.76c-40.242-30.156-60.212-60.417-73.66-111.523l-1.296-5.036c-4.58-17.19-8.863-33.463-11.954-51.872-2.091-12.095-2.29-22.416-.694-32.435v-.001zm764.062 72.01l-.1.151c-1.54 2.848-3.03 5.29-4.38 7.426-4.69 7.675-7.47 12.357-8.92 25.069-1.09 10.071-.69 20.392-.3 30.411.45 11.8.96 24.007-1.04 36.057-6.87 42.618-40.09 86.553-77.3 102.165-3.58 1.474-8.52 3.406-11.9 4.067a45.88 45.88 0 01-7.62.766c-21.87 0-26.89-21.971-31.73-43.175-1.14-4.732-2.24-9.613-3.54-14.139-4.97-17.445-11.7-28.985-21.71-37.478-10.11-8.441-23.71-13.935-44.08-17.799a127.423 127.423 0 00-23.25-2.294c-14.2 0-27.7 2.697-45.28 9.003a31.4 31.4 0 00-2.24.813c-9.76 3.406-18.08 6.358-23.96 15.664-11.25 18.002-20.42 47.091-16.09 67.686 4.24 20.19 18.58 24.257 33.72 28.429 2.95.812 5.88 1.676 8.87 2.593a62.485 62.485 0 0111.55 5.035c22.91 13.12 48.17 25.021 79.64 37.424 26.7 10.531 39.65 33.717 52.15 55.991 12.2 21.666 24.76 44.091 49.81 54.773a32.62 32.62 0 0012.8 2.488c5.52 0 11.65-1.219 18.23-3.556 17.88-6.359 33.86-25.938 45.81-42.263 18.73-25.63 41.99-57.511 69.53-78.01.75-.51 1.45-1.015 2.2-1.526v-.864c-.85.609-1.7 1.218-2.59 1.88-27.6 20.5-50.9 52.432-69.68 78.112-11.86 16.274-27.8 35.752-45.47 42.061-6.53 2.287-12.61 3.456-18.03 3.456-4.3.043-8.57-.768-12.55-2.387-24.81-10.632-37.36-32.907-49.46-54.522-12.56-22.426-25.65-45.611-52.55-56.243-31.43-12.409-56.68-24.308-79.54-37.423a58.457 58.457 0 00-11.7-5.036c-2.89-.968-5.92-1.781-8.82-2.593-14.99-4.223-29.13-8.191-33.26-27.969-4.29-20.445 4.82-49.278 16.04-67.182 5.67-9.051 13.94-12.05 23.55-15.357a30.39 30.39 0 012.29-.813c17.48-6.357 30.92-9.003 45.03-9.003 7.74.048 15.45.816 23.05 2.294 39.3 7.374 55.79 21.205 65.35 54.819 1.3 4.474 2.44 9.358 3.48 14.035 4.93 21.512 10.06 43.685 32.43 43.685 2.59.003 5.18-.237 7.72-.717 3.44-.661 8.47-2.593 12.05-4.119 18.42-7.728 36.41-22.476 50.7-41.546 14.1-18.767 23.66-40.482 27.05-61.124 1.89-12.108 1.44-24.361.99-36.161-.4-10.02-.79-20.341.36-30.36 1.34-12.56 4.18-17.19 8.8-24.819 1.25-2.083 2.74-4.525 4.39-7.373 13.1-10.879 28.69-16.477 46.22-16.477 4.74.013 9.47.422 14.15 1.223v-.716a90.895 90.895 0 00-14.15-1.172c-17.73.007-33.42 5.605-46.72 16.64zm23.81 50.189c-3.44 10.223-4.08 20.805-4.83 33.005-.25 4.224-.5 8.65-.94 13.425-1.6 18.513-5.09 37.583-8.53 56.044-3.33 18.257-6.52 35.499-7.11 49.074v.151l.14.104c2.1 1.578 4.34 3.104 6.97 3.104.49.011.98-.058 1.45-.203l.1-.052c6.67-3.916 13.8-7.478 20.72-10.935 9.86-4.88 19.87-9.864 29.09-16.222v-.812c-9.27 6.457-19.43 11.492-29.33 16.424-6.93 3.458-14.11 7.02-20.78 10.983-.37.084-.76.119-1.15.104-2.43 0-4.58-1.375-6.52-2.796.6-13.478 3.73-30.613 7.07-48.823 3.44-18.46 6.97-37.53 8.57-56.094.45-4.781.7-9.202.9-13.426.74-12.206 1.39-22.678 4.83-32.848 4.68-13.987 16.08-23.09 29.03-23.09 2.49.02 4.97.343 7.38.963v-.656a30.274 30.274 0 00-7.38-.916c-13.2.002-24.85 9.202-29.68 23.492zm-257.55 91.793c-12.55 0-25.25 6.309-25.35 20.392v.105c3.89 13.83 22.67 30.666 39 30.666 4.68.104 9.24-1.502 12.81-4.518a19.146 19.146 0 006.61-11.859c1.3-7.223-.84-15.867-5.42-22.174-5.58-7.728-16.24-12.612-27.65-12.612zm32.43 34.634a19.068 19.068 0 01-2.79 7.271 19.112 19.112 0 01-5.48 5.545 18.323 18.323 0 01-10.51 3.052c-16.08 0-34.51-16.529-38.35-30.111.15-13.628 12.5-19.679 24.7-19.679 11.21 0 21.62 4.682 27.15 12.306 4.43 6.156 6.52 14.597 5.28 21.616zm186.52 49.836l-.15-.052a10.898 10.898 0 00-3.88-.661c-5.63 0-11.71 3.614-17.54 7.072-2.19 1.27-4.42 2.593-6.62 3.713-1.25.661-2.49 1.27-3.84 1.931-19.22 9.613-45.51 22.837-43.67 54.209 2.63 9.765 10.6 19.637 22.45 19.637 1.14-.01 2.28-.113 3.4-.308 21.51-9.105 34.36-34.585 43.23-55.892l.65-1.527c3.98-9.557 8.46-20.289 6.02-27.971l-.05-.151zm-6.57 27.821l-.65 1.577c-8.82 21.1-21.62 46.529-42.83 55.476-1.06.159-2.13.245-3.2.258-11.44 0-19.21-9.614-21.8-19.02-1.85-30.871 24.29-43.939 43.32-53.499 1.3-.662 2.64-1.271 3.84-1.933 2.2-1.067 4.43-2.441 6.67-3.713 5.73-3.457 11.71-6.967 17.19-6.967 1.2-.01 2.39.162 3.54.511 2.23 7.425-2.2 18.002-6.08 27.31zm-229.76 212.876c-6.32-5.951-12.7-9.055-18.87-9.055-14.6 0-24.31 17.034-26.35 33.817-1.55 12.769-1.19 26.498.94 37.832 2.1 11.142 6.48 16.732 15.55 19.942 2.46.82 4.97 1.49 7.52 1.98 4.26.96 8.62 1.47 12.99 1.53 10.51 0 18.19-3.71 22.81-11.04 5.33-8.39 4.49-27.861 3.15-38.085-2-14.596-8.43-28.125-17.74-36.921zm14 74.656c-4.48 7.12-12.01 10.68-22.22 10.68-4.32-.04-8.63-.53-12.84-1.49-2.54-.49-5.03-1.15-7.48-1.97-8.91-3.11-13-8.34-15.03-19.432-2.2-11.235-2.49-24.913-.96-37.531 2-16.525 11.46-33.258 25.66-33.258 5.97 0 12.2 2.953 18.43 8.847 9.16 8.753 15.58 22.023 17.48 36.462 1.24 9.464 2.24 29.452-3.04 37.692zM70.28 1162.03c6.376-1.17 11.756-2.54 16.983-3.82 6.376-1.57 12.404-3.1 20.171-4.32 7.125-1.07 14.643-1.63 21.967-2.19 16.386-1.06 33.318-2.23 47.761-9.96 18.182-9.71 20.075-34.43 13.845-54.62-10.512-34.22-24.058-57.87-41.438-72.31-6.824-5.64-13.251-12.15-19.427-18.512-12.5-12.668-25.399-25.781-42.182-32.699-12.802-5.341-27.545-9.262-41.785-13.019-8.62-2.294-17.484-4.682-25.904-7.327-3.932-1.219-8.216-2.796-12.696-4.524a424.207 424.207 0 00-7.569-2.746v.717c2.49.911 4.932 1.821 7.317 2.689 4.534 1.677 8.818 3.305 12.75 4.523 8.465 2.646 17.336 5.04 25.896 7.277 14.244 3.814 28.938 7.729 41.79 13.02 16.637 6.918 29.482 19.987 41.887 32.548 6.222 6.353 12.696 12.913 19.523 18.553 17.287 14.35 30.728 37.9 41.189 72.07 6.125 19.88 4.334 44.24-13.495 53.7-14.347 7.68-31.182 8.85-47.518 10.02-7.316.45-14.892 1.01-22.012 2.13-7.819 1.28-14.148 2.8-20.273 4.33-5.182 1.32-10.506 2.63-16.881 3.81-11.705 2.14-23.609 3.76-35.165 5.29-12.154 1.68-24.007 3.3-35.013 5.39v.71c11.006-2.14 22.86-3.76 35.115-5.39 11.556-1.58 23.46-3.15 35.164-5.34zm-15.04-41.14c15.142-4.37 30.78-8.85 45.672-15.51 14.692-6.51 29.585-14.14 36.21-29.5 8.563-20.03.199-41.65-22.415-57.67-3.932-2.79-7.619-5.54-11.256-8.23-15.142-11.345-29.432-22.027-50.052-26.092-13.353-2.545-33.125-4.122-53.393-4.631v.717c20.222.401 39.944 1.978 53.29 4.574 20.421 4.065 34.667 14.697 49.757 25.992 3.637 2.69 7.37 5.49 11.256 8.23 22.364 15.87 30.629 37.13 22.165 56.81-6.477 15.1-21.267 22.73-35.813 29.14-14.892 6.66-30.478 11.13-45.621 15.51-7.87 2.23-16.04 4.63-24.006 7.21-10.16 3.37-20.768 5.5-31.029 7.48v.72c10.358-2.04 21.017-4.12 31.228-7.53 7.921-2.59 16.086-4.99 24.007-7.22zm-4.83 80.91c15.29.61 31.03 1.12 46.416-.46 14.148-1.47 27.143-4.43 39.745-7.37 3.137-.66 6.228-1.43 9.415-2.09 2.341-.56 4.631-1.07 7.023-1.58 24.006-5.23 48.859-10.58 69.078-24.67 23.557-16.31 26.642-50.59 15.886-74.23-9.812-21.68-26.249-38.81-42.137-55.38-13.198-13.68-26.842-27.88-36.608-44.654-4.478-6.101-8.165-12.002-11.75-17.701-11.558-18.31-20.671-32.749-44.927-38.549-46.714-11.134-87.056-20.748-94.579-68.294-2.637-16.833 1-30.003 4.484-42.721 2.79-10.116 5.431-19.68 4.83-30.462l-.047-.151-.102-.05a79.38 79.38 0 01-3.586-3.613 43.533 43.533 0 00-4.932-4.675l-.097-.107H8.37a51.32 51.32 0 00-8.364 1.226v.659a55.44 55.44 0 018.321-1.168 51.537 51.537 0 014.728 4.523c1.148 1.169 2.296 2.445 3.54 3.513.596 10.675-1.995 20.131-4.784 30.104-3.484 12.811-7.12 26.038-4.484 43.022 7.574 48.005 48.114 57.669 95.082 68.861 24.005 5.692 33.068 20.081 44.478 38.233 3.586 5.75 7.369 11.6 11.801 17.701 9.762 16.783 23.461 31.023 36.659 44.803 15.836 16.53 32.274 33.56 42.087 55.13 10.556 23.44 7.619 57.26-15.694 73.48-20.216 13.93-44.921 19.37-68.83 24.51-2.387.51-4.728 1.07-7.069 1.53-3.142.71-6.278 1.42-9.415 2.19-12.553 2.84-25.552 5.85-39.694 7.32-15.34 1.63-31.028 1.02-46.273.46-17.677-.61-34.416-1.23-50.45 1.27v.71c15.986-2.49 32.77-1.88 50.401-1.32zm465.184-153.99c2.063.9 4.031 2.01 5.876 3.3 7.819 5.8 14.494 13.74 18.728 19.43 10.704 14.29 17.08 28.02 21.216 46.03 5.824 25.17 21.267 35.14 46.018 43.88a138.25 138.25 0 0045.375 7.68c7.65.01 15.284-.67 22.811-2.04 26.699-4.87 43.828-21.35 46.969-45.36.695-4.98 1.592-10.22 2.489-15.25 3.636-20.34 7.374-41.4-4.182-60.16-9.463-15.26-27.344-17.39-45.276-17.39-3.432 0-6.972.1-10.258.15-3.289.1-6.676.2-9.863.2-5.131.06-10.259-.26-15.342-.96-14.29-2.34-28.535-5.9-42.182-9.36-22.66-5.65-44.029-11.09-65.394-11.09-4.427.02-8.85.28-13.249.77-5.427.66-10.313 5.43-13.251 12.86-2.688 6.92-3.483 16.17.801 21.46 2.135 2.59 5.53 4.22 8.714 5.85zm-8.868-27.05c2.789-7.18 7.522-11.8 12.653-12.41 4.383-.49 8.789-.74 13.199-.76 21.313 0 42.58 5.33 65.195 11.03 13.744 3.46 27.938 7.02 42.284 9.31 4.182.71 8.966.97 15.438.97 3.188 0 6.574-.05 9.864-.11 3.336-.1 6.824-.15 10.258-.15 17.732 0 35.414 2.03 44.68 17.03 11.405 18.51 7.718 39.47 4.132 59.66-.897 5.08-1.844 10.32-2.489 15.3-3.142 23.65-20.022 39.93-46.42 44.8a121.82 121.82 0 01-22.711 1.99c-15.376 0-30.644-2.56-45.177-7.58-24.552-8.69-39.842-18.56-45.569-43.48-4.182-18.05-10.557-31.89-21.37-46.28-4.182-5.64-10.903-13.68-18.773-19.52a42.83 42.83 0 00-5.977-3.41c-3.239-1.58-6.523-3.21-8.517-5.59-3.536-4.33-3.786-12.87-.7-20.8zm131.888 118.79c7.915 0 16.233-1.42 20.069-2.69 1.153-.4 2.283-.86 3.386-1.38 6.477-3.1 10.211-8.39 10.358-14.85a20.796 20.796 0 00-5.823-14.33 18.516 18.516 0 00-8.876-5.42 18.666 18.666 0 00-10.398.17c-7.472 2.34-23.159 11.45-27.795 21.41-1.642 3.46-1.842 6.71-.646 9.72 2.441 6.05 12.054 7.37 19.725 7.37zm-18.529-16.78c4.631-9.76 20.023-18.81 27.393-21.06 1.76-.53 3.588-.8 5.426-.81 2.486.01 4.942.54 7.214 1.54a18.067 18.067 0 015.985 4.31 19.657 19.657 0 015.63 13.88c-.153 6.15-3.687 11.25-9.961 14.19-1.07.52-2.168.98-3.289 1.38-3.835 1.27-12 2.64-19.869 2.64-10.608 0-17.335-2.44-19.081-6.86-1.192-2.85-.993-5.96.552-9.21zm224.722 274.15a39.18 39.18 0 01-.05-4.87c.092-1.8.058-3.6-.1-5.4-1.291-11.09-5.724-24.66-10.358-39-4.785-14.65-9.713-29.75-12.058-44.29-.94-6.11-1.593-12.67-2.238-19.02-1.944-20.75-3.931-42.12-18.127-51.67-6.427-4.38-15.838-6.36-29.539-6.36-7.668 0-15.939.61-24.052 1.17-3.142.2-6.327.46-9.461.66-28.044 1.72-86.414 9.15-106.784 24.92-27.796 21.51-31.131 58.43-30.682 91.79 3.284 41.96 31.375 65.45 62.307 89.15h1.097c-31.08-23.8-59.421-47.19-62.807-89.2-.399-33.11 2.941-69.87 30.529-91.18 20.176-15.66 78.398-23.09 106.39-24.82 3.135-.15 6.32-.46 9.512-.66 8.062-.61 16.333-1.17 23.951-1.17 13.6 0 22.868 1.98 29.188 6.26 13.901 9.35 15.888 30.56 17.882 51.16.545 6.35 1.191 12.96 2.195 19.07 2.339 14.59 7.267 29.75 12.051 44.44 4.677 14.29 9.11 27.76 10.308 38.8.154 1.76.188 3.53.101 5.29-.093 1.66-.062 3.33.093 4.99 1.348 10.93-.094 23.95-3.73 37.02h.695c3.587-13.12 5.086-26.2 3.687-37.08zm-749.822 4.89c-.398-9.66-.148-19.38.199-28.78.449-14.4.898-28.08-1.545-39.06-5.927-27.01-39.245-46.28-68.484-55.33a63.977 63.977 0 00-25.149-2.9v.66c8.444-.66 16.935.32 25.001 2.9 29.035 9 62.11 28.12 67.985 54.77 2.443 10.93 1.994 24.56 1.545 38.91-.347 9.45-.646 19.17-.199 28.83.49 10.74.158 21.5-.995 32.19h.694a210.938 210.938 0 00.948-32.19zm715.155-11.14c-1.241-6.56-3.587-14.5-6.076-22.94-3.529-12.15-7.618-25.93-9.655-39.91-.603-3.97-1.098-7.73-1.6-11.4-3.235-23.9-5.774-42.76-21.412-55.28-10.659-8.49-30.579-13.58-53.293-13.58-27.643 0-53.342 7.12-68.785 19.07-25.347 19.58-26.347 54.12-22.762 79.65 5.58 27.2 24.705 41.18 48.961 59.04 11.307 8.23 23.012 16.83 34.915 27.81.296.25.597.61.944.87h.999c-.551-.41-.999-.92-1.545-1.38-11.907-11.03-24.108-19.98-34.861-27.91-24.154-17.65-43.234-31.63-48.762-58.58-3.636-25.33-2.637-59.56 22.563-78.98 15.239-11.8 40.841-18.88 68.336-18.88 22.556 0 42.282 4.99 52.891 13.43 15.487 12.31 17.926 31.02 21.118 54.78.553 3.71.997 7.52 1.593 11.39 2.094 14.08 6.126 27.91 9.712 40.02 2.489 8.44 4.828 16.38 6.026 22.88a93.054 93.054 0 01-2.64 43.23h.703c4.229-14.09 5.219-29.39 2.63-43.33zm-484.156-40.48c-2.79-10.02-4.933-28.83-3.336-41.9a64.289 64.289 0 011.793-8.55c2.642-10.57 5.927-23.69-7.073-33.21l-.097-.05h-.051c-24.108-2.89-38.751 17.3-51.647 35.1-3.386 4.72-6.522 9.04-9.812 13.07-11.751 12.56-27.739 21.55-44.723 31.17-26.25 14.9-53.444 30.3-66.194 60.31-3.682 8.44-6.823 18.26-9.858 27.87h.688c3.04-9.56 6.176-19.28 9.716-27.62 12.75-29.85 39.791-45.1 65.993-59.95 16.983-9.62 33.023-18.67 44.824-31.38 3.336-3.97 6.524-8.4 9.915-13.02 12.796-17.64 27.239-37.68 50.95-34.88 12.5 9.25 9.46 21.56 6.773 32.44a73.662 73.662 0 00-1.892 8.65c-1.495 13.12.545 32.08 3.387 42.1 4.283 15.41 10.556 30.87 17.08 47.35 4.783 11.85 9.612 24 13.844 36.31h.698c-4.232-12.41-9.164-24.61-13.897-36.56-6.621-16.43-12.798-31.94-17.081-47.25zm381.359-82.03c-14.938 0-29.683 4.48-39.393 12-12.654 9.72-20.222 21.42-18.83 49.79 8.62 36.16 47.018 55.64 78.793 55.64 4.04.01 8.073-.31 12.058-.97h.094l.05-.05a76.365 76.365 0 0012.553-13.73l.05-.16c11.657-36.76 11.104-67.32-1.449-83.8-8.959-11.91-24.998-18.72-43.926-18.72zm44.773 102.32a80.884 80.884 0 01-12.302 13.53c-3.94.59-7.917.9-11.901.92-31.576 0-69.628-19.33-78.094-55.03-1.397-28.07 6.074-39.61 18.477-49.18 9.612-7.43 24.206-11.84 39.047-11.84 18.727 0 34.515 6.71 43.381 18.4 12.453 16.28 12.897 46.64 1.392 83.2zm-208.532-.97c-5.034-24.71-10.159-50.19-25.949-70.48-8.12-10.42-18.131-14.44-30.83-12.57-26.098 3.98-57.127 28.08-73.812 41.1-18.676 19.88-25.699 43.94-21.563 73.53 1.494 10.53 4.381 21.83 7.42 32.91h.7c-3.04-11.14-6.026-22.48-7.421-33.01-4.137-29.39 2.836-53.29 21.313-72.97 16.586-12.87 47.517-36.97 73.467-40.84 1.91-.29 3.84-.45 5.773-.46 9.762 0 17.733 4.18 24.409 12.76 15.688 20.15 20.864 45.52 25.848 70.13 4.431 22.13 9.011 45.07 21.465 63.52.158.32.359.61.597.87h.796c-.296-.36-.596-.82-.893-1.23-12.308-18.35-16.888-41.18-21.32-63.26zm166.998-54.76l-.051-.1c-2.54-4.28-6.524-6.87-10.66-6.87a9.93 9.93 0 00-3.983.82l-.051.04a11.876 11.876 0 00-4.529 7.89c-.116.98-.02 1.98.28 2.93.3.94.797 1.82 1.459 2.56.939.77 1.807 1.62 2.591 2.54l.051.05h.102c1.253.5 2.586.75 3.933.76 4.334 0 8.368-2.59 10.755-6.86l.052-.15c.101-1.23.051-2.49.051-3.56v-.05zm-.75 3.5c-2.29 4.07-6.026 6.41-10.108 6.41a11.86 11.86 0 01-3.688-.61c-.781-.89-1.63-1.73-2.54-2.49a6.518 6.518 0 01-1.54-4.98c.409-2.9 1.904-5.54 4.182-7.37a9.946 9.946 0 013.733-.72c3.887 0 7.62 2.44 10.012 6.41a24.95 24.95 0 01-.051 3.35zm-676.757 26.91c-8.321-10.43-16.086-14.7-33.069-17.95v.71c16.683 3.2 24.353 7.37 32.575 17.64 14.49 18.26 23.403 52.23 25.546 76.08.398 4.42.597 8.54.597 12.36h.646c0-3.81-.148-7.99-.546-12.41-2.14-23.95-11.157-58.13-25.75-76.43zm428.576 8.95c-.982-.02-1.963.01-2.941.1-9.11.76-17.131 5.09-23.256 12.46-8.717 10.57-12.603 26.75-10.91 45.51.667 7.34 1.798 14.63 3.386 21.82h.646a184.516 184.516 0 01-3.387-21.87c-1.642-18.61 2.143-34.58 10.76-45.05 5.978-7.23 13.844-11.5 22.811-12.26.995-.05 1.943-.1 2.886-.1 27.043 0 37.058 32.9 45.876 61.84 1.841 6.1 3.632 12.05 5.523 17.44h.75c-1.943-5.39-3.733-11.45-5.631-17.65-8.859-29.19-18.917-62.24-46.513-62.24zm-183.68 27.35a95.142 95.142 0 00-13.7-.96 99.032 99.032 0 00-51.489 14.41 98.932 98.932 0 00-36.467 39.09h.748a97.786 97.786 0 0136.17-38.67 97.794 97.794 0 0151.037-14.17c4.564.03 9.122.33 13.648.91 19.671 2.75 39.094 19.43 53.143 45.72 1.097 2.04 2.193 4.12 3.137 6.21h.698c-.995-2.19-2.091-4.37-3.238-6.51-14.192-26.5-33.715-43.28-53.687-46.03zM.95 1410.56c-.315-.01-.63 0-.944.04v.62H.95c5.182 0 9.415 3.4 12.056 9.66a34.81 34.81 0 012.342 13.12h.744a35.73 35.73 0 00-2.489-13.38c-2.742-6.46-7.222-10.06-12.653-10.06zM226.124 1434h1.142a63.877 63.877 0 0136.409-11.6 55.12 55.12 0 0134.268 11.6h1.097a55.624 55.624 0 00-35.364-12.26 64.226 64.226 0 00-37.552 12.26zm965.326-66.06c-7.87-14.75-16.08-30.05-22.56-45.87-3.58-8.65-6.82-18.11-10.26-28.18-14.64-42.97-31.23-91.63-82.62-91.63h-2.05c-18.68.45-36.25 7.11-47.71 12.66-2.79 1.26-5.68 2.64-8.57 4.06-8.61 4.02-17.53 8.2-25.55 12.72-23.356 13.17-50.155 19.58-76 25.84l-.351.05a104.56 104.56 0 01-7.023 1.57c-17.33 3.76-38.9 8.49-45.772 29.04-5.229 15.87-.394 36.15 4.24 55.74 1.693 7.17 3.278 13.93 4.375 20.34 3.737 22.22 4.039 43.17.703 62.24-.452 2.45-.954 4.93-1.549 7.48h.703c.595-2.49 1.04-4.94 1.492-7.37 3.285-19.13 3.084-40.18-.696-62.46-1.148-6.45-2.69-13.22-4.383-20.39-4.684-19.53-9.418-39.71-4.232-55.37 6.721-20.25 28.09-24.82 45.27-28.54 2.489-.56 4.835-1.06 7.023-1.62l.351-.05c25.945-6.21 52.795-12.67 76.201-25.89 7.918-4.48 16.838-8.7 25.448-12.76 2.94-1.33 5.78-2.7 8.57-4.02 11.4-5.55 28.98-12.16 47.46-12.61.7-.06 1.39-.06 2.05-.06 50.9 0 67.38 48.47 82.02 91.29 3.39 10.02 6.63 19.53 10.22 28.23 6.57 15.86 14.69 31.12 22.61 45.96 6.72 12.56 13.09 24.42 18.57 36.67 5.43 12.21 11.16 21.82 17.19 28.99h.89c-6.22-7.13-11.95-16.83-17.53-29.24-5.43-12.26-11.81-24.16-18.53-36.82zm227.12-128.56c-42.34 16.32-70.63 47.14-81.73 89.15-3.14 11.7-5.28 26.69-7.43 41.19-2.64 18-5.38 36.61-9.81 49.53a48.317 48.317 0 01-8.11 14.75h.79c3.45-4.34 6.13-9.25 7.92-14.5 4.54-13.02 7.22-31.63 9.87-49.68 2.13-14.49 4.32-29.5 7.41-41.14 11.06-41.7 39.15-72.42 81.33-88.69 4.75-1.68 9.61-3.04 14.55-4.07 1.2-.21 2.39-.46 3.64-.61v-.71c-1.29.25-2.54.4-3.79.66-4.97 1.03-9.86 2.41-14.64 4.12zm-41.14-310.365c-13.55 3.104-26.6 9.815-39.2 16.374-12.65 6.51-25.7 13.271-39.15 16.174-34.81 7.678-47.71-23.443-59.07-51.009-1.64-3.914-3.18-7.678-4.72-11.291a240.631 240.631 0 00-21.92-39.159c-16.29-23.335-35.02-41.947-55.73-55.332-19.18-12.352-35.37-19.113-50.81-21.199-25.05-3.405-42.88 4.524-63.4 13.629-4.43 1.978-9.06 4.072-13.79 6-13.55 5.592-28.94 11.951-39.454 25.781-7.869 10.374-13.844 22.934-19.518 35.143l-1.348 2.746c-10.61 22.425-18.378 44.55-26.591 67.943a2009.339 2009.339 0 00-5.488 15.966c-4.921 14.496-10.007 29.494-16.233 43.682-4.627 10.837-11.699 20.237-18.528 29.397-3.831 5.08-7.769 10.32-11.205 15.76-8.815 13.74-22.609 25.74-36.009 37.33-4.828 4.22-9.418 8.19-13.694 12.2-2.69 2.45-5.53 4.99-8.622 7.63-13.844 12.2-29.532 26.04-33.664 43.58-.552 2.35-1.047 4.68-1.542 6.92-4.433 19.63-8.321 36.61-27.545 48.92-18.177 11.65-40.291 15.41-59.766 18.72-9.215 1.57-18.579 2.79-27.591 4.06-16.738 2.19-32.477 4.33-46.769 8.15-32.676 8.89-52.597 32.03-59.222 68.9-6.426 35.96.102 79.84 7.375 97.79 6.523 16.17 17.529 28.84 30.728 40.18h1.097c-13.449-11.39-24.604-24.16-31.228-40.48-7.173-17.8-13.75-61.53-7.324-97.39 6.625-36.56 26.296-59.55 58.722-68.3 14.296-3.91 30.035-6 46.717-8.23 9.017-1.17 18.381-2.39 27.592-3.97 19.52-3.36 41.685-7.12 60.02-18.87 19.518-12.46 23.306-29.54 27.789-49.33.545-2.23 1.097-4.57 1.592-6.92 4.082-17.33 19.727-31.01 33.47-43.17 3.042-2.69 5.976-5.24 8.615-7.73 4.283-3.96 8.816-7.98 13.701-12.15 13.392-11.65 27.244-23.59 36.053-37.48 3.493-5.39 7.424-10.63 11.211-15.71 6.822-9.16 13.945-18.67 18.679-29.499 6.219-14.188 11.298-29.243 16.233-43.782 1.793-5.241 3.637-10.683 5.473-15.974 8.228-23.343 15.989-45.409 26.598-67.892l1.249-2.746c5.731-12.152 11.656-24.662 19.575-35.036 10.362-13.628 25.652-19.937 39.092-25.479 4.79-2.036 9.36-4.072 13.8-6.001 20.47-9.148 38.15-17.034 63.11-13.679 15.33 2.137 31.37 8.797 50.49 21.157 20.63 13.32 39.36 31.881 55.59 55.224a239.635 239.635 0 0121.76 39.008c1.6 3.556 3.15 7.327 4.79 11.291 5.52 13.271 11.7 28.326 20.81 38.75 10.51 11.951 23.27 16.124 39.06 12.661 13.44-2.947 26.54-9.765 39.24-16.324 12.6-6.453 25.65-13.22 39.04-16.217 22.12-5.04 42.39.81 59.43 6.968v-.717c-17.09-6.158-37.36-11.901-59.57-6.968zm-35.06 257.015c-15.8 15.67-30.73 30.51-50.31 36.31-27.19 8.19-47.76-12.25-67.68-32.09-1.2-1.21-2.44-2.44-3.64-3.66-10.11-9.96-22.22-17.54-33.92-24.81-8.37-5.24-17.08-10.68-24.9-16.94-5.88-4.73-12.1-9.1-18.13-13.32-4.08-2.96-8.27-5.9-12.25-8.85-6.68-4.99-11.31-12.82-15.84-20.44-2.44-4.08-4.93-8.34-7.77-11.95-7.67-10.07-18.48-17.7-28.98-25.13-19.23-13.53-37.41-26.34-38.7-52.89-.76-15.812 2.74-35.441 9.56-53.902 6.52-17.442 18.82-36.362 33.81-51.919 10.21-10.582 20.58-15.514 30.78-14.654 18.13 1.577 33.68 21.164 45.18 38.097 6.77 9.966 9.46 19.529 12.25 29.695a171.344 171.344 0 005.93 18.361c2.59 6.409 5.73 12.711 8.66 18.819 4.78 9.603 9.62 19.533 12.66 30.153 5.08 17.75 6.07 43.48-1.8 58.33-7.67 14.34-4.03 38.7 4.03 51.47 7.33 11.59 25.66 18.96 40.4 24.91 3.33 1.33 6.42 2.65 9.21 3.81 1.3.61 2.64 1.18 3.88 1.79 4.78 2.13 8.82 4.06 13.45 5.03 22.87 4.78 38.65-6.41 48.17-34.17 10.01-29.19 3.08-55.74-19.53-74.81-6.87-5.75-14.74-10.17-22.36-14.44-3.44-1.93-7.02-3.97-10.46-6.05-.89-.56-1.79-1.07-2.69-1.68-9.96-6.05-22.31-13.58-29.13-22.33a187.737 187.737 0 01-24.91-42.259c-3.18-7.628-5.72-15.407-8.36-23.694-1.95-5.951-3.94-12.052-6.23-18.26-5.23-14.131-13.2-26.698-18.87-34.735-10.77-14.948-30.14-35.036-49.42-42.356-30.48-11.549-71.52 19.171-91.69 42.557-11.3 13.126-18.63 29.501-24.36 43.739-1.53 3.864-3.03 7.836-4.57 11.643-8.324 21.364-16.243 41.553-29.392 60.165-4.232 6-7.718 12.41-11.104 18.61-2.439 4.42-4.928 9.11-7.718 13.53-7.073 11.29-17.833 18-28.442 23.59-4.877 2.6-9.956 4.98-14.841 7.38-14.146 6.71-28.736 13.73-40.636 25.17-7.575 7.32-10.566 15.06-8.967 23.04 2.64 13.22 16.979 23.14 29.583 27.92 26.146 9.96 56.431 6.36 83.072 3.1l3.443-.35c2.138-.26 4.232-.46 6.32-.71 11.757-1.22 22.912-2.4 34.072-8.91 1.79-1.01 3.53-2.03 5.28-3.05 16.88-9.82 31.48-18.36 50.84-22.73 12.16-2.8 30.24-2.54 41.24 4.52 5.49 3.47 7.83 8.76 10.32 14.35 1.42 3.57 3.22 6.98 5.38 10.17 9.26 12.36 21.76 22.07 33.86 31.53 11.85 9.2 24.15 18.77 33.42 30.82 5.53 7.17 10.17 16.07 14.7 24.61 4.48 8.59 9.16 17.44 14.49 24.25 11.01 13.89 25.94 18.67 42.29 13.48 14.14-4.52 29.83-16.78 45.02-28.63 2.34-1.82 4.58-3.61 6.82-5.34 7.92-6.1 15.64-12.51 23.11-18.72 20.52-17.02 39.94-33.15 61.81-42.2 8.66-3.56 18.58-6.15 29.19-8.24v-.71c-10.76 2.13-20.73 4.68-29.44 8.34-21.97 9.05-41.44 25.27-62.01 42.3-7.47 6.21-15.14 12.57-23.06 18.67-2.24 1.73-4.53 3.51-6.77 5.34-15.14 11.8-30.78 24.06-44.88 28.53-16.04 5.09-30.78.41-41.54-13.28-5.28-6.71-9.76-15.15-14.44-24.05-4.53-8.64-9.26-17.59-14.79-24.76-9.36-12.1-21.62-21.72-33.52-30.97-12.05-9.41-24.5-19.12-33.72-31.43-2.24-3.05-3.78-6.56-5.33-9.97-2.54-5.64-4.93-11.03-10.51-14.69-11.2-7.17-29.54-7.43-41.78-4.63-19.48 4.47-34.12 12.96-51.05 22.89-1.74.96-3.54 1.97-5.28 3.09-11.01 6.36-22.066 7.48-33.823 8.7-2.037.26-4.181.51-6.326.72l-3.386.45c-26.648 3.15-56.776 6.76-82.822-3.16-15.594-5.89-27.05-16.67-29.137-27.4-1.549-7.73 1.392-15.26 8.809-22.38 11.757-11.34 26.347-18.36 40.399-25.12 4.928-2.29 10.007-4.73 14.942-7.33 10.609-5.59 21.512-12.41 28.685-23.9 2.74-4.42 5.28-9 7.726-13.47 3.386-6.21 6.865-12.61 11.054-18.51 13.241-18.721 21.117-38.96 29.479-60.367 1.5-3.864 2.99-7.729 4.59-11.693 5.72-14.145 12.99-30.412 24.2-43.489 20.02-23.235 60.77-53.797 90.95-42.355 19.12 7.219 38.4 27.257 49.05 42.155 5.78 7.986 13.7 20.446 18.88 34.534 2.29 6.151 4.29 12.302 6.18 18.202 2.63 8.288 5.17 16.124 8.41 23.752a189.308 189.308 0 0024.96 42.401c6.92 8.86 19.32 16.44 29.28 22.54.95.51 1.84 1.07 2.79 1.68 3.39 2.08 7.02 4.07 10.46 6.05 7.57 4.22 15.39 8.59 22.22 14.34 22.36 18.86 29.23 45.16 19.37 74.09-9.42 27.41-24.96 38.4-47.46 33.72-4.49-.97-8.57-2.79-13.3-4.98-1.25-.57-2.59-1.18-3.89-1.84-2.73-1.16-5.93-2.38-9.21-3.76-14.69-5.95-32.93-13.27-40.1-24.66-7.92-12.62-11.56-36.56-4.03-50.75 7.92-14.96 6.92-41 1.84-58.89-2.99-10.63-7.92-20.6-12.59-30.261-3.05-6.101-6.09-12.41-8.68-18.82a166.703 166.703 0 01-5.92-18.252c-2.79-10.224-5.48-19.838-12.35-29.903-11.61-16.984-27.3-36.771-45.68-38.341-10.4-.918-20.91 4.065-31.27 14.79-15.09 15.665-27.45 34.685-33.97 52.185-6.87 18.553-10.36 38.341-9.61 54.202 1.29 26.85 20.42 40.33 38.95 53.4 10.45 7.38 21.26 15.01 28.88 24.97 2.84 3.81 5.41 7.8 7.72 11.95 4.53 7.58 9.22 15.46 15.94 20.55 4.03 3 8.27 5.99 12.3 8.85 5.98 4.27 12.2 8.69 18.08 13.32 7.87 6.3 16.59 11.75 25 16.94 11.7 7.32 23.76 14.84 33.77 24.81 1.3 1.23 2.44 2.39 3.68 3.66 20.03 19.88 40.75 40.54 68.34 32.24 19.67-5.85 34.71-20.69 50.6-36.46 15.05-14.95 30.68-30.46 51.7-39.46 13.45-5.75 28.09-9.05 42.44-12.06v-.71c-14.44 3.01-29.14 6.36-42.73 12.2-21.07 9.01-36.72 24.52-51.9 39.52zm24.5-202.751c-10.81 2.337-21.87 7.929-33.57 13.779-19.42 9.762-39.44 19.892-57.92 13.992-33.23-10.58-45.98-46.641-57.23-78.372-2.35-6.509-4.48-12.617-6.82-18.511a170.359 170.359 0 00-19.18-35.953c-11.8-16.783-26.29-27.157-41.64-38.09-2.33-1.628-4.62-3.305-7.02-4.983-13.5-9.814-29.98-19.479-49.01-16.683-5.97.861-12.2 4.116-18.18 7.27a94.17 94.17 0 01-10.85 5.191c-2.59.967-5.23 1.985-7.92 2.996-20.37 7.478-41.44 15.314-55.93 32.14-4.14 4.832-7.727 11.141-11.163 17.141-1.793 3.205-3.486 6.152-5.229 9.005a206.754 206.754 0 00-18.528 36.864c-5.473 14.389-8.716 29.802-11.807 44.75-3.386 16.124-6.865 32.855-13.199 48.005-6.52 15.56-23.75 26.76-38.993 36.57-4.139 2.69-8.07 5.24-11.556 7.78-10.358 7.38-19.368 16.27-27.99 24.92-5.674 5.64-11.556 11.54-17.775 16.88-14.404 12.41-20.824 33.61-16.893 55.33 6.972 38.04 21.469 44.3 52.852 49.63 23.901 4.02 51.74 3.05 85.009-2.84 19.181-3.46 37.412-16.12 54.992-28.27 6.42-4.49 12.45-8.65 18.38-12.26 24.7-15.26 54.04-12.06 78.39 8.48 3.14 2.6 6.28 5.2 9.41 7.69 18.53 15.16 36.06 29.44 45.37 52.17 4.14 9.92 6.82 20.5 9.47 30.77 2.54 10.02 5.18 20.4 9.16 30.2 5.98 14.75 17.68 31.08 30.59 42.63 11.1 10.01 27.93 20.79 44.97 15.7 15.84-4.72 25.15-23.08 35.06-42.51 6.28-12.35 12.85-25.06 21.47-35.65 11.21-13.77 26.19-26.23 36.5-34.42l1.06-.87c22.11-17.49 42.93-34.07 70.52-39.67 1.74-.4 3.53-.71 5.33-.96v-.71c-1.85.3-3.64.61-5.53.96-27.74 5.65-48.62 22.28-70.68 39.82l-1.14.87c-10.31 8.19-25.3 20.75-36.61 34.53-8.66 10.63-15.14 23.44-21.52 35.8-9.81 19.33-19.12 37.53-34.66 42.16-16.68 5.03-33.32-5.65-44.33-15.51-12.65-11.34-24.6-27.97-30.38-42.42-3.98-9.76-6.62-20.13-9.16-30.1-2.64-10.27-5.33-20.9-9.47-30.87-9.41-22.88-27.84-37.89-45.67-52.43-3.04-2.49-6.22-5.08-9.31-7.68-24.66-20.75-54.24-23.9-79.19-8.59-5.98 3.65-12.01 7.83-18.33 12.26-17.64 12.19-35.812 24.75-54.835 28.16-33.176 6-60.915 6.92-84.773 2.86-31.024-5.24-45.37-11.5-52.292-49.08-3.931-21.46 2.489-42.42 16.634-54.62 6.227-5.44 12.152-11.29 17.883-16.98 8.615-8.6 17.524-17.54 27.839-24.87 3.486-2.5 7.475-5.03 11.549-7.73 15.293-9.87 32.631-21.06 39.252-36.82 6.377-15.26 9.863-32.041 13.248-48.157 3.142-14.955 6.277-30.311 11.808-44.6a207.497 207.497 0 0118.42-36.821c1.801-2.796 3.494-5.85 5.28-9.004 3.443-6.001 6.972-12.202 11.107-17.034 14.39-16.676 35.37-24.454 55.63-31.989a418.36 418.36 0 017.98-2.947c3.69-1.551 7.3-3.3 10.8-5.241 5.98-3.147 12.16-6.359 18.03-7.219 18.83-2.746 35.07 6.868 48.56 16.582 2.4 1.728 4.63 3.305 6.98 4.933 15.34 10.983 29.78 21.256 41.48 37.932a171.58 171.58 0 0119.13 35.904c2.29 5.799 4.44 11.951 6.77 18.46 11.31 31.889 24.11 68.091 57.73 78.771 18.68 5.96 38.9-4.22 58.37-14.033 11.7-5.893 22.71-11.392 33.36-13.729 15.15-3.305 43.09-4.631 70.04-3.964v-.717c-27-.559-54.99.717-70.13 4.022zm-13.6-543.785c-18.18 12.867-29.09 31.125-32.37 54.157-1.3 9.004-.3 18.867.69 28.329 1.1 9.965 2.15 20.241.61 29.953-1.7 11.134-7.58 21.106-15 25.527-5.22 3.155-11.01 3.513-17.08 1.172-19.63-23.293-35.66-38.754-59.82-48.822-6.92-2.849-13.89-5.343-22.61-8.088-4.23-1.374-8.51-2.796-12.65-4.171-26.25-8.795-53.44-17.851-97.61-14.138-21.23 1.781-37.21 5.801-51.16 20.189-9.21 9.514-16.19 20.955-22.81 32.042-4.88 7.931-9.86 16.221-15.59 23.595-2.94 3.765-6.37 7.473-9.707 11.087-4.935 5.338-10.114 10.831-13.902 16.934-7.818 12.66-8.163 33.767-5.229 47.956 3.881 18.56 15.494 34.479 27.148 49.227 2.84 3.66 5.58 7.681 8.57 11.901 7.77 11.399 15.83 23.14 27.03 29.241 12.3 6.61 26.65 6.667 40.3 5.699 4.73-.308 9.51-1.677 14.2-2.903 6.82-1.879 13.89-3.864 20.71-2.596 24.26 4.431 51.75 21.673 69.33 36.363a167.71 167.71 0 0125.75 26.648c5.88 7.628 11.51 15.306 17.54 23.543 10.25 14.038 20.86 28.534 32.92 42.872 11.2 13.378 25.8 25.989 48.71 17.902 12.99-4.624 24.2-12.561 34.61-20.339 15.39-11.593 29.34-27.824 42.84-43.582 12.3-14.446 24-28.075 35.51-36.412a33.749 33.749 0 0112.8-5.85v-.66a34.55 34.55 0 00-13.2 5.943c-11.61 8.395-23.26 22.024-35.66 36.571-13.4 15.664-27.29 31.938-42.69 43.431-10.71 8.079-21.51 15.707-34.41 20.238-22.56 7.987-36.96-4.473-48.01-17.643-12.01-14.346-22.66-28.892-32.88-42.879-6.02-8.238-11.7-15.966-17.57-23.537a167.576 167.576 0 00-25.86-26.805c-17.68-14.697-45.27-32.04-69.63-36.463-6.97-1.269-14.09.66-21.01 2.595-4.64 1.219-9.36 2.545-14.05 2.846-13.54.968-27.79.968-39.95-5.592-11.05-6-19.07-17.693-26.84-28.985-2.89-4.276-5.68-8.291-8.56-12.004-11.559-14.596-23.215-30.463-26.995-48.924-2.891-14.086-2.54-34.937 5.172-47.445 3.687-6.051 8.823-11.543 13.801-16.883 3.332-3.562 6.822-7.275 9.712-11.034 5.82-7.478 10.81-15.716 15.59-23.699 6.73-11.088 13.59-22.476 22.81-31.886 13.79-14.238 29.63-18.257 50.7-20.038 44.08-3.662 71.22 5.342 97.37 14.138 4.14 1.375 8.42 2.796 12.65 4.171 8.67 2.745 15.69 5.239 22.52 8.087 24.1 9.965 40.14 25.429 59.61 48.664l.05.052.1.052c6.37 2.443 12.35 1.984 17.78-1.171 7.57-4.526 13.6-14.748 15.34-26.038 1.49-9.764.4-20.085-.64-30.104-.95-9.457-1.95-19.273-.71-28.175 3.29-22.887 14.11-40.936 32.08-53.704 20.57-14.592 49.31-21.408 83.38-20.086v-.717c-34.22-1.266-63.06 5.551-83.73 20.246v.002zM391.678 65.408c1.142 9.56 2.586 27.308-.646 39.207-5.38 19.632-20.92 36.515-35.909 52.892-21.217 23.032-43.132 46.887-36.41 78.774 3.636 17.184 12.696 27.865 27.892 32.697 13.149 4.219 29.338 3.662 47.564 2.646 33.268-1.885 55.83 3.713 68.934 8.796 13.245 5.186 25.398 13.731 37.251 22.069 15.841 11.138 30.83 21.714 47.762 24.058a49.245 49.245 0 0018.728-.766c15.841-3.561 27.795-11.696 40.444-20.34 21.519-14.597 43.728-29.752 86.859-20.955 9.469 1.885 18.876 4.781 28.842 7.786 31.77 9.606 64.645 19.476 101.4-.412 33.219-17.034 54.143-48.31 74.314-78.57 9.411-14.087 19.167-28.73 29.934-41.546 13.794-16.377 32.573-38.8 55.628-31.02 9.26 3.051 18.825 4.577 28.095 6.051 14.69 2.39 29.83 4.832 43.48 13.575 9.75 6.26 17.33 15.16 24.7 23.802 3.44 4.015 7.03 8.187 10.76 12.051 8.27 8.493 14.94 18.512 21.41 28.175 5.54 8.238 11.21 16.685 17.88 24.261 8.97 8.083 16.84 15.154 26 23.595 11.06 10.324 21.17 22.583 30.93 34.375 18.73 22.736 36.36 44.144 59.42 51.06 16.28 4.931 33.12 4.27 54.59-2.036 11.45-3.407 26.6-9.966 37.25-14.951a498.795 498.795 0 0065.05-36.614 90.5 90.5 0 0033.17-41.139v-1.781a89.689 89.689 0 01-33.47 42.311 502.02 502.02 0 01-65.05 36.613c-10.61 4.932-25.7 11.543-37.1 14.904-21.42 6.254-38.1 6.916-54.24 2.083-22.86-6.864-40.44-28.224-59.12-50.856-9.76-11.795-19.87-24.106-31.03-34.427a1951.192 1951.192 0 00-25.95-23.647c-6.62-7.478-12.25-15.966-17.78-24.16-6.47-9.66-13.25-19.679-21.46-28.224-3.79-3.864-7.33-8.035-10.76-12.102-7.38-8.645-14.99-17.596-24.85-23.851-13.75-8.847-28.99-11.29-43.73-13.627-9.27-1.526-18.827-3.052-27.944-6.104-23.507-7.886-42.537 14.697-56.381 31.224-10.81 12.92-20.516 27.465-29.984 41.598-20.171 30.26-40.988 61.484-74.006 78.367-36.562 19.787-69.329 9.915-101.005.359-9.964-3.005-19.379-5.848-28.89-7.786-43.331-8.795-65.695 6.359-87.309 21.054-12.602 8.598-24.506 16.685-40.296 20.242a48.5 48.5 0 01-18.427.717c-16.733-2.239-31.728-12.761-47.512-23.955-11.807-8.29-24.109-16.934-37.404-22.121-13.103-5.082-35.762-10.727-69.183-8.848-31.228 1.781-66.688 3.812-74.808-34.785-6.574-31.526 15.193-55.275 36.261-78.211 15.092-16.43 30.678-33.365 36.058-53.143 3.137-11.342 2.142-27.719.745-39.462-2.294-18.874-7.72-38.246-13.498-58.69a450.201 450.201 0 00-1.842-6.614h-.701c.646 2.294 1.296 4.53 1.944 6.817 5.732 20.444 11.207 39.717 13.4 58.584zM1362.73 1358.73c-2.49 13.59-3.63 27.62-4.77 41.19-1 11.86-1.95 23.35-3.74 34.08h.64c1.8-10.78 2.79-22.33 3.74-34.03 1.2-13.57 2.34-27.6 4.84-41.13 8.61-47.2 31.72-75.42 66.88-81.57 2.29-.41 4.48-.66 6.68-.87v-.66c-2.29.15-4.57.44-6.83.87-35.41 6.2-58.72 34.57-67.44 82.12zm-194.48 37.53c-3.88-13.98-10.17-28.42-16.24-42.35l-1.04-2.4c-3.94-9.2-7.18-19.02-10.57-29.44-6.92-21.31-14.09-43.33-28.29-59.2-12.6-14.03-33.16-22.12-56.48-22.12-13.04 0-25.6 2.59-36.26 7.48-12.6 5.74-22.807 12.61-31.221 20.95-7.022 6.97-17.287 10.57-27.193 14.19-6.628 2.28-13.45 4.78-19.425 8.18-18.034 10.48-29.389 25.08-32.775 42.42-3.185 16.11-2.833 36.91-2.489 57.01.151 12.2.395 24.86-.15 36.56a169.43 169.43 0 01-.445 6.46h.696c.15-2.19.294-4.37.401-6.46.546-11.65.345-24.36.144-36.56-.344-20.1-.646-40.84 2.489-56.91 3.386-17.09 14.597-31.58 32.48-41.96 5.875-3.35 12.697-5.8 19.325-8.13 9.906-3.57 20.214-7.22 27.394-14.29 8.364-8.29 18.519-15.11 31.079-20.85 10.6-4.83 23.01-7.38 35.95-7.38 23.11 0 43.49 7.99 55.98 21.92 14.1 15.77 21.27 37.68 28.14 58.94 3.44 10.37 6.63 20.29 10.61 29.45l1.1 2.44c6.03 13.93 12.25 28.27 16.13 42.26 2.2 7.88 4.09 16.57 5.93 25.02.95 4.32 1.85 8.49 2.79 12.51h.7c-.95-4.02-1.89-8.29-2.84-12.66-1.79-8.45-3.69-17.19-5.92-25.08zm-30.53 12.26c-1.6-11.03-3.45-23.55-7.82-34.48-1.75-4.47-4.43-8.18-7.08-11.8a65.52 65.52 0 01-5.68-8.69c-2.38-4.48-4.28-9.52-6.27-14.85-5.78-15.11-11.71-30.72-28.04-35.14-3.88-1.07-8.97-1.53-15.55-1.53-6.91 0-14.24.56-20.76 1.12-2.59.16-4.98.36-7.23.56-21.16 1.32-43.774 9.56-60.609 22.12-20.265 15.06-26.096 40.43-28.729 58.33-1.994 12.82-3.795 31.79 2.288 47.85.294.67.545 1.33.796 1.99h.746c-.301-.77-.645-1.48-.946-2.24-6.026-15.87-4.182-34.78-2.289-47.55 2.633-17.69 8.465-42.97 28.535-57.87 16.735-12.46 39.298-20.65 60.268-22.02 2.24-.1 4.63-.3 7.22-.51 6.53-.56 13.85-1.17 20.71-1.17 6.48 0 11.51.56 15.4 1.63 16.04 4.33 21.86 19.78 27.54 34.63 1.82 5.1 3.93 10.1 6.33 14.96 1.69 3.05 3.6 5.97 5.72 8.74 2.59 3.61 5.28 7.32 7.03 11.64 4.33 10.89 6.17 23.35 7.76 34.38 1.15 8.41 1.66 16.89 1.55 25.38h.65c.14-8.52-.38-17.04-1.54-25.48zm298.67-81.42h-.04c-31.53 2.9-49.16 37.94-53.84 106.9h.69c4.64-68.5 22.02-103.29 53.15-106.24.21.06.43.1.65.11v-.66c-.2-.07-.4-.11-.61-.11zm-7.91 86.6c-3.43 5.85-6.83 12.62-7.47 20.3h.64c.71-7.43 4.04-14.14 7.38-19.84 2.4-1.57 5.12-2.58 7.97-2.94v-.62c-3.01.32-5.9 1.35-8.42 3.01l-.1.09zm-1060.763-71.44c5.182-17.24 14-27.67 27.842-43.28 2.142-2.49 4.534-4.93 7.074-7.63 9.863-10.42 21.068-22.27 23.557-34.58 4.983-24.61-9.91-39.06-25.199-49.83-7.574-5.34-16.04-9.57-24.256-13.63-10.609-5.29-21.615-10.78-30.683-18.77-9.659-8.54-17.977-20.7-24.801-36.21-3.085-6.86-4.432-14.34-5.83-21.51-1.291-7.02-2.637-14.24-5.523-20.95-13.352-30.51-30.785-64.99-59.274-89.15-12.398-10.472-28.04-27.055-32.171-46.784-2.692-12.969 1.046-24.311 4.086-33.416l.494-1.62c6.773-20.547 26.995-69.57 69.331-81.93 7.568-2.237 16.886-3.864 26.693-5.649 12.353-2.137 25.154-4.417 34.416-7.93 14.545-5.491 24.904-13.069 35.909-21.665l1.597-1.219c10.506-8.237 23.608-18.46 40.689-17.141 14.795 1.276 31.727 9.112 46.318 21.715 14.796 12.718 24.654 28.125 27.199 42.313 1.591 9.155 2.341 16.525 3.035 23.644.645 6.158 1.147 11.951 2.29 18.36 5.483 32.04 20.523 57.619 44.779 75.879 19.722 14.848 45.967 25.272 78.144 30.923 41.738 7.42 77.199-6.511 90.442-12.82 21.125-10.073 43.735-34.276 63.26-56.243 19.418-21.823 29.683-34.735 31.971-69.369.753-11.134-.151-21.866-.997-32.341-.301-4.072-.696-8.237-.947-12.409-.143-3.054-.394-6.101-.696-9.356-.947-10.532-1.843-21.407 0-32.599 3.938-23.084 16.986-33.308 40.041-31.021 30.041 2.846 56.331 23.185 66.89 51.819 8.421 22.784 1.65 46.586-3.73 65.807l-.897 3.154c-8.916 31.781-21.075 56.551-37.056 75.771-9.11 10.833-19.124 21.006-28.887 30.921a550.994 550.994 0 00-10.91 11.134c-5.079 5.241-10.71 10.073-16.183 14.697-6.829 5.795-13.902 11.905-19.927 18.865-8.515 9.82-14.841 20.95-19.97 30.52-16.685 31.33-28.341 58.98-35.565 84.31-6.52 22.89-24.546 41.09-48.208 48.67-30.529 9.71-74.262 8.59-129.94-3.36-27.296-5.9-43.581-21.86-48.262-47.54-5.329-29.3-24.756-43.89-45.228-59.3-5.278-3.97-10.705-8.09-15.983-12.41-21.767-18.21-10.909-35.44.546-53.7 5.13-8.184 10.409-16.58 12.652-25.175 3.632-13.421-1.05-27.616-5.528-41.345-2.341-7.17-4.534-13.887-5.63-20.547-5.279-31.681-10.558-56.702-26.347-66.968-8.465-5.499-19.325-6.259-33.268-2.244-2.245.567-4.734 1.326-7.375 2.137-5.375 1.627-11.506 3.455-16.535 4.574-8.716 2.043-17.778 3.204-27.392 4.38-10.21 1.319-20.717 2.645-32.325 5.133-17.58 3.714-33.068 12.36-44.722 24.97a82.795 82.795 0 00-21.119 45.26c-.995 7.327-1.296 13.628.698 20.496 5.778 20.038 23.609 34.176 39.296 46.629 3.636 2.85 7.069 5.55 10.358 8.35l.546.45c15.193 12.82 34.12 28.78 33.421 50.7-.745 22.58 2.091 38.96 9.415 54.82 11.556 24.93 27.841 40.08 56.228 52.18 2.143.87 4.232 1.78 6.376 2.64 9.761 4.13 19.772 8.34 29.136 13.73 7.62 4.38 12.751 9.87 18.131 15.67 2.989 3.2 6.075 6.51 9.612 9.66 4.232 3.76 8.267 8.75 12.501 14.09 10.705 13.52 22.858 28.83 41.637 25.17 9.612-1.89 19.074-8.65 29.136-15.77 8.763-6.25 17.831-12.71 28.041-16.83 17.279-6.92 41.637-8.54 67.433-10.32 15.643-1.06 31.876-2.19 46.672-4.53 33.667-5.44 56.427-17.49 69.579-36.87 3.939-5.69 6.528-12.16 8.967-18.41 1.894-4.88 3.83-9.86 6.427-14.44 1.887-3.51 4.878-6.21 7.761-8.89a50.627 50.627 0 004.735-4.69c2.697-3.05 5.279-6.25 7.819-9.4 2.79-3.46 5.681-7.08 8.765-10.48 4.785-5.34 10.215-10.23 15.444-15.06 4.835-4.47 9.863-9.1 14.44-14.08 3.787-4.07 6.821-8.49 9.77-12.77 3.335-4.87 6.671-9.81 11.254-14.34 7.661-7.77 15.688-16.27 22.115-25.73 5.473-8.08 7.912-16.02 10.652-24.356.754-2.596 1.6-5.241 2.59-7.987 2.044-6.051 5.781-11.8 9.368-17.392 2.138-3.305 4.282-6.661 6.076-10.016a332.096 332.096 0 0017.38-37.939c1.299-3.506 2.489-7.069 3.738-10.525.494-1.476 1.04-2.896 1.542-4.373 2.338-6.61 4.827-13.327 7.273-19.837 6.973-18.862 14.246-38.341 17.976-56.142 2.396-11.342 4.484-23.443 1.944-35.395-8.665-41.036-47.615-83.808-83.323-91.639-16.484-3.557-37.301-3.353-58.569.717-35.314 6.764-48.369 24.16-46.569 62.149.395 8.847 1.241 17.794 1.944 26.44 1.693 18.719 3.278 36.412 1.342 53.497-1.098 9.814-4.333 18.611-6.628 24.31-5.179 12.761-17.029 34.585-31.828 58.229-14.54 23.242-34.112 40.176-53.737 46.528-37.205 12.058-87.059.107-116.048-27.867-14.54-13.987-30.029-37.932-21.414-72.208a47.09 47.09 0 012.34-6.409 41.625 41.625 0 002.989-8.496c4.483-7.929 10.109-15.048 15.591-21.966 12.347-15.615 24.006-30.312 19.523-51.368-.801-3.864-2.494-7.979-4.284-12.41-3.636-9.047-7.37-18.353-2.988-23.895 7.67-9.764 18.13-19.937 29.233-30.67 19.176-18.608 39.052-37.934 44.677-56.04 5.728-18.153-5.978-36.205-10.955-43.836-5.38-8.291-11.557-16.831-18.029-25.986-5.034-7.019-10.261-14.289-15.193-21.512-4.085-6.051-8.068-11.847-12.006-17.596-9.062-13.32-17.631-25.834-26.444-39.259-3.488-5.338-6.971-11.087-10.409-16.575-5.727-9.259-11.603-18.768-17.534-26.856-12.949-17.695-27.54-24.969-43.529-21.663-15.836 3.307-33.019 15.815-47.911 27.21a256.833 256.833 0 00-6.025 4.629c-27.791 21.304-59.371 45.41-67.684 72.212-7.022 22.83 5.973 33.458 19.722 44.701 1.495 1.219 2.989 2.438 4.433 3.713 9.165 7.676 16.187 15.659 21.813 22.368 7.671 9.207 14.494 20.242 21.068 30.922 4.631 7.527 9.017 14.747 13.398 20.595 15.092 20.19 34.666 29.089 53.541 37.786 18.578 8.438 37.705 17.085 52.2 36.463 0 .71.045 1.376.045 2.079.051 2.043.153 4.072-.398 5.958-17.232 19.012-38.597 23.744-65.342 14.639-8.171-2.796-16.239-7.212-24.807-11.994-19.125-10.582-38.898-21.464-61.654-14.396-16.388 5.033-27.746 16.834-38.751 28.226-10.858 11.291-22.063 22.934-38.302 28.727-9.512 3.312-19.324 4.28-33.12 5.398-34.762 2.688-51.547 6.761-65.842 25.272-18.83 24.461-42.035 67.634-49.16 85.485-2.79 7.119-4.534 12.46-5.33 16.375-6.073 31.121 12.654 55.432 29.586 73.235 4.085 4.22 8.614 8.18 12.949 11.95 3.886 3.4 7.921 6.91 11.654 10.62 7.574 7.73 13.648 16.94 19.478 25.84 3.034 4.53 6.025 9.15 9.261 13.57 23.359 31.79 30.381 59.51 22.859 89.92-5.478 21.82-17.927 49.42-46.564 56.96-10.511 2.74-21.869 4.11-33.819 5.48-11.108 1.38-22.667 2.7-33.921 5.34-9.858 2.29-19.171 5.25-28.19 8.19-12.602 3.97-24.506 7.84-36.807 9.41-21.563 2.95-40.689-1.68-59.218-6-16.335-3.92-31.875-7.58-47.165-5.49v.71c15.239-2.13 30.676 1.52 47.018 5.39 18.574 4.43 37.75 8.95 59.465 6.05 12.398-1.62 24.256-5.44 36.905-9.46 8.966-2.9 18.329-5.84 28.19-8.13 11.257-2.59 22.668-3.97 33.768-5.29 12.006-1.43 23.364-2.75 33.921-5.54 22.909-6.06 39.194-25.89 47.018-57.42 7.619-30.67.546-58.53-22.915-90.57-3.188-4.37-6.222-9-9.211-13.48-5.926-8.94-12.005-18.2-19.676-25.88-3.682-3.81-7.716-7.32-11.603-10.68-4.334-3.81-8.818-7.73-12.898-12-16.835-17.594-35.46-41.754-29.386-72.625.744-3.864 2.488-9.155 5.278-16.217 7.074-17.801 30.233-60.924 49.007-85.285 14.097-18.31 30.881-22.432 65.399-25.121 13.844-1.068 23.654-2.036 33.318-5.441 16.387-5.75 27.643-17.5 38.552-28.784 11.405-11.901 22.211-23.143 38.399-28.075 22.562-6.969 42.233 3.864 61.21 14.346 8.615 4.724 16.683 9.248 24.853 12.051 27.092 9.205 48.711 4.373 66.189-14.847l.051-.158c.465-2.052.582-4.168.348-6.259v-2.28l-.098-.107c-14.545-19.529-33.819-28.326-52.444-36.816-18.829-8.546-38.353-17.493-53.291-37.531-4.335-5.848-8.767-13.019-13.398-20.595-6.573-10.682-13.398-21.663-21.119-30.971a178.768 178.768 0 00-21.864-22.481c-1.495-1.271-2.989-2.442-4.432-3.661-13.597-11.139-26.449-21.663-19.524-43.987 8.268-26.598 39.695-50.602 67.383-71.858a265.342 265.342 0 006.079-4.682c14.791-11.389 31.927-23.798 47.615-27.053 15.687-3.255 30.131 3.916 42.932 21.413 5.927 8.03 11.751 17.591 17.484 26.798 3.386 5.494 6.869 11.184 10.409 16.58 8.762 13.425 17.381 25.986 26.444 39.307 3.937 5.697 7.92 11.597 12.051 17.595 4.877 7.223 10.062 14.499 15.141 21.513 6.524 9.105 12.697 17.7 18.029 25.938 4.932 7.624 16.489 25.423 10.909 43.274-5.63 18.003-25.449 37.125-44.574 55.735-11.108 10.789-21.62 20.955-29.285 30.72-4.585 5.9-.8 15.406 2.983 24.612 1.745 4.373 3.438 8.545 4.188 12.259 4.432 20.748-7.173 35.344-19.426 50.801-5.478 6.968-11.155 14.138-15.638 22.124l-.051.151a41.716 41.716 0 01-2.989 8.388 51.808 51.808 0 00-2.34 6.459c-6.773 27.057.897 52.945 21.663 72.925 29.085 28.125 79.24 40.076 116.694 28.018 19.727-6.453 39.443-23.487 53.99-46.779 14.841-23.752 26.799-45.568 31.928-58.387 2.338-5.742 5.53-14.596 6.671-24.454 1.944-17.191.351-34.885-1.299-53.654-.796-8.646-1.592-17.601-1.986-26.39-.897-19.228 1.986-32.706 9.059-42.27 7.224-9.606 18.93-15.76 36.956-19.165 21.219-4.067 41.942-4.322 58.326-.717 35.514 7.728 74.163 50.291 82.778 91.077 2.539 11.8.445 23.809-1.894 35.093-3.737 17.801-11.003 37.223-17.976 55.992-2.395 6.56-4.885 13.27-7.223 19.88-.552 1.477-1.047 2.954-1.6 4.431-1.14 3.455-2.439 7.011-3.73 10.524a319.11 319.11 0 01-17.287 37.782c-1.786 3.355-3.981 6.717-6.076 10.022-3.579 5.592-7.374 11.385-9.461 17.543-.947 2.746-1.794 5.442-2.64 7.987-2.589 8.292-5.079 16.172-10.458 24.152-6.478 9.46-14.44 17.9-22.115 25.63-4.534 4.53-7.97 9.56-11.305 14.39-2.886 4.5-6.117 8.77-9.663 12.77-4.533 4.93-9.612 9.6-14.489 14.04-5.237 4.82-10.609 9.76-15.494 15.15-2.984 3.41-5.976 6.96-8.766 10.48-2.489 3.09-5.079 6.3-7.769 9.35-1.449 1.63-3.091 3.21-4.677 4.68-2.948 2.7-5.882 5.44-7.868 9.05-2.698 4.63-4.642 9.61-6.535 14.45-2.432 6.25-4.971 12.71-8.809 18.35-13.055 19.22-35.658 31.13-69.184 36.52-14.739 2.39-30.926 3.51-46.615 4.57-25.852 1.78-50.256 3.41-67.637 10.38-10.258 4.12-19.426 10.57-28.191 16.83-9.965 7.12-19.375 13.84-28.841 15.67-18.375 3.6-30.381-11.5-41.04-24.87-4.279-5.35-8.268-10.43-12.546-14.19a123.766 123.766 0 01-9.563-9.67c-5.483-5.84-10.562-11.34-18.279-15.76-9.414-5.39-19.528-9.66-29.239-13.73-2.142-.86-4.232-1.78-6.375-2.65-28.19-12.05-44.427-27.05-55.831-51.82-7.324-15.76-10.114-32.08-9.364-54.56.699-22.17-18.38-38.29-33.714-51.27l-.55-.4c-3.238-2.8-6.671-5.54-10.308-8.39-16.386-13.016-33.369-26.494-39.148-46.281-1.891-6.711-1.642-12.962-.596-20.189 4.779-35.394 29.83-62.143 65.291-69.67 11.557-2.488 22.114-3.757 32.228-5.083 9.612-1.226 18.727-2.445 27.489-4.424 5.034-1.118 11.159-2.946 16.586-4.581 2.59-.81 5.08-1.577 7.374-2.186 13.745-3.915 24.455-3.148 32.768 2.243 15.54 10.016 20.773 34.986 26.001 66.466 1.096 6.711 3.335 13.521 5.676 20.691 4.437 13.628 9.068 27.723 5.58 40.893-2.291 8.538-7.569 16.883-12.649 25.021-11.607 18.51-22.614 36-.398 54.51 5.279 4.43 10.705 8.55 15.984 12.46 20.421 15.36 39.699 29.85 44.976 58.94 4.78 25.94 21.166 42.11 48.809 48.01 55.735 12.05 99.609 13.17 130.193 3.4 23.958-7.67 42.135-25.98 48.663-49.07 7.216-25.38 18.829-52.89 35.557-84.26 5.086-9.51 11.456-20.55 19.87-30.36 5.932-6.92 13.055-12.97 19.927-18.821 5.43-4.674 11.061-9.456 16.139-14.697a737.334 737.334 0 0110.904-11.184c9.77-9.872 19.877-20.138 28.936-30.978 16.09-19.271 28.241-44.134 37.157-76.023l.897-3.154c5.473-19.221 12.202-43.173 3.737-66.208-10.659-28.784-37.107-49.331-67.435-52.285-23.413-2.229-36.813 8.087-40.693 31.638-1.944 11.234-.997 22.167-.05 32.749.251 3.255.495 6.309.695 9.356.302 4.222.603 8.338.947 12.41.847 10.424 1.743 21.206 1.047 32.24-2.345 34.376-12.553 47.295-31.827 68.96-19.518 21.866-42.085 46.077-63.052 56.042-13.199 6.309-48.511 20.185-90.095 12.815-71.325-12.614-112.463-48.317-122.423-106.237-1.046-6.352-1.65-12.202-2.193-18.303-.75-7.169-1.444-14.496-3.091-23.752-2.54-14.345-12.5-29.852-27.392-42.721-14.74-12.611-31.723-20.59-46.717-21.809-17.331-1.376-30.529 8.897-41.138 17.235l-1.545 1.219c-11.057 8.596-21.364 16.174-35.762 21.615-9.211 3.456-22.012 5.7-34.364 7.929-9.812 1.728-19.125 3.413-26.694 5.599-42.636 12.461-63.007 61.734-69.831 82.332l-.494 1.677c-3.091 9.205-6.824 20.547-4.085 33.767 4.131 19.938 19.921 36.671 32.423 47.199 28.341 24 45.823 58.38 59.069 88.94 2.84 6.56 4.187 13.73 5.482 20.69 1.393 7.23 2.739 14.75 5.876 21.72 6.824 15.56 15.238 27.82 24.949 36.41 9.068 8.09 20.176 13.53 30.83 18.81 8.221 4.13 16.688 8.3 24.159 13.63 15.091 10.69 29.882 24.93 24.904 49.18-2.443 12.11-13.5 23.86-23.364 34.18-2.539 2.7-4.877 5.23-7.119 7.73-13.898 15.56-22.66 26.04-27.893 43.48-3.886 13.02-4.182 36.31-.645 53.04 2.84 13.48 6.323 26.44 9.863 38.9h.698c-3.539-12.51-7.022-25.47-9.914-39.05-3.49-16.63-3.246-39.77.589-52.68z" fill="#000" fill-opacity=".3"/></svg>