<svg width="1439" height="770" fill="none" xmlns="http://www.w3.org/2000/svg"><path fill-rule="evenodd" clip-rule="evenodd" d="M737.989 29.304c-1.344 1.176-2.597 2.549-3.844 3.828a39.147 39.147 0 01-3.492 3.567c-22.165 20.246-45.781 31.364-66.351 31.364-20.369 0-37.592-10.303-51.178-30.597A128.695 128.695 0 01596.305.284h.698a130.659 130.659 0 0016.625 36.822C627.157 57.148 644.185 67.4 664.302 67.4c20.419 0 43.833-11.119 65.952-31.161 1.145-1.071 2.244-2.293 3.44-3.567a137.343 137.343 0 013.845-3.926c9.936-8.879 20.618-17.035 30.955-24.942 1.549-1.17 3.047-2.293 4.591-3.52h1.099c-1.749 1.38-3.543 2.706-5.342 4.084-10.331 7.901-20.965 16.063-30.853 24.936zM1395.71 95.04c-14.38-13.666-29.26-27.844-38.8-48.09-4.79-10.303-9.54-26.571-11.73-46.662h.69c2.15 19.996 6.9 36.158 11.64 46.41 9.44 20.042 24.26 34.168 38.64 47.835 16.73 15.908 34 32.279 42.54 58.186.3.765.55 1.548.75 2.346v2.297c-.4-1.53-.9-3.013-1.35-4.386-8.53-25.756-25.76-42.128-42.38-57.936zM669.19 36.547c-7.034 0-13.874-2.502-20.167-7.395-5.889-4.536-8.784-9.18-11.837-13.974a95.207 95.207 0 00-4.14-6.272 76.002 76.002 0 01-3.045-8.622h.698c.85 2.809 1.8 5.562 2.895 8.215a69.539 69.539 0 014.147 6.324c2.995 4.794 5.889 9.28 11.628 13.765 6.3 4.847 12.888 7.296 19.821 7.296 18.526 0 36.303-16.831 51.975-31.62 1.446-1.374 2.796-2.653 4.192-3.98h1.002c-1.549 1.484-3.096 2.909-4.693 4.44-15.777 14.94-33.698 31.823-52.476 31.823zm758.12 177.878c-3.35-17.646-6.45-34.32-11.24-46.101-8.08-20.091-24.91-36.974-42.68-54.875-10.99-10.961-22.27-22.284-31.8-34.78-11.93-15.555-19.92-29.015-26.61-44.927-3.95-9.384-7.35-20.194-10.64-30.648-.3-.92-.65-1.89-.9-2.809h.7c.25.864.55 1.734.85 2.606 3.25 10.45 6.64 21.265 10.59 30.597 6.68 15.86 14.62 29.27 26.55 44.776 9.54 12.392 20.82 23.763 31.71 34.679 17.87 18.003 34.75 34.931 42.88 55.126 4.79 11.833 7.94 28.56 11.24 46.258 3.19 17.035 6.49 34.675 11.38 47.526.05.095.09.2.1.309v1.785c-.22-.625-.47-1.238-.75-1.838-4.94-12.952-8.24-30.598-11.38-47.684zm-54.52 219.905c-23.22 9.484-52.07 21.213-63.11 45.235-.75 13.106 3.75 24.272 8.54 36.054 6.74 16.522 14.38 35.239 10.09 64.514-3.3 22.231-16.08 36.514-30.91 53.037-6.14 6.83-12.38 13.87-18.37 21.875-15.63 21.015-26.31 44.728-34.6 65.18-8.34 20.343-14.87 36.408-36.75 41.766-13.07 3.211-31.35 5.458-43.88 6.783-6.36.735-12.76 1.124-19.17 1.167-9.64 0-17.92-1.066-24.91-3.154-14.83-4.494-24.27-16.836-36.15-32.441-3.54-4.637-7.18-9.382-11.33-14.431-2.8-3.467-6.49-7.243-10.44-11.321-8.19-8.413-16.62-17.134-18.97-24.124-.85-2.7-.59-5.149-.4-7.953.29-2.422.34-4.864.15-7.295l-.05-.152.1-.101c7.94-10.705 17.58-19.275 26.91-27.641 15.83-14.173 30.86-27.536 36.5-49.517 2.99-11.577 1.89-23.97-3.3-37.892-5.54-14.684-18.42-30.852-36.39-45.438-8.09-6.579-16.68-13.41-25.76-20.706-41.689-33.196-88.971-70.833-114.784-103.628l-.045-.204c-.849-4.026-.552-8.616.598-13.666 3.343-13.771 13.88-30.138 28.956-44.927 14.376-14.027 30.705-24.534 43.736-28.205a78.442 78.442 0 015.289-1.326c17.37-3.974 35.4-1.224 52.77 1.431 15.03 2.292 29.31 4.486 43.14 2.653 29.9-4.033 51.42-24.484 59.01-56.102 9.99-41.511-17.63-67.57-44.33-92.814-19.68-18.664-40.09-37.892-45.43-63.287-5.1-23.918 1.54-49.726 5.94-66.807 1.74-6.888 3.89-13.771 6.19-20.607h.7a283.733 283.733 0 00-6.24 20.81c-4.35 16.983-10.99 42.686-5.94 66.448 5.29 25.197 25.61 44.372 45.28 62.932 26.8 25.348 54.56 51.559 44.48 93.482-7.64 31.871-29.45 52.525-59.61 56.557-13.88 1.832-28.15-.309-43.28-2.601-17.33-2.653-35.25-5.358-52.53-1.431a84.733 84.733 0 00-5.288 1.326c-25.863 7.244-65.004 42.942-72.144 72.573a30.936 30.936 0 00-.698 13.357c25.813 32.743 72.989 70.379 114.63 103.524 9.14 7.243 17.72 14.079 25.81 20.654 18.02 14.69 31 30.905 36.54 45.798 5.24 14.026 6.34 26.518 3.35 38.247-5.74 22.183-20.77 35.699-36.69 49.929-9.29 8.261-18.83 16.826-26.77 27.385.18 2.428.14 4.867-.09 7.29-.31 2.757-.51 5.102.34 7.65 2.3 6.836 10.64 15.554 18.83 23.918 3.89 4.033 7.64 7.854 10.43 11.322 4.14 4.996 7.84 9.793 11.38 14.487 11.84 15.497 21.17 27.738 35.8 32.181 11.13 3.363 25.46 4.025 43.79 1.988 12.58-1.383 30.8-3.622 43.83-6.784 21.52-5.199 28.05-21.163 36.29-41.361 8.34-20.502 18.97-44.268 34.65-65.384 5.99-8.006 12.28-15.04 18.38-21.876 14.77-16.423 27.5-30.649 30.75-52.681 4.29-29.066-3.3-47.684-9.99-64.155-4.79-11.881-9.38-23.102-8.63-36.413l.04-.152c11.19-24.226 40.2-36.106 63.51-45.543 6.34-2.6 12.88-5.256 20.02-6.83 15.41-3.438 31.1-5.52 46.88-6.222v.716a264.04 264.04 0 00-46.73 6.172c-7.09 1.53-13.63 4.178-19.92 6.731zM1034.15 20.124c-1.8 7.04-3.9 14.08-5.94 20.962-4.4 15.144-8.54 29.473-10.19 42.279-1.25 9.128-1.25 18.559-.05 25.139 3.45 19.787 16.47 35.187 29.06 50.133 14.43 17.081 29.36 34.832 30.5 59.46-1.55 21.932-25.76 25.144-51.37 28.46-4.7.663-9.59 1.275-14.28 2.037-18.77 3.06-40.39 9.181-62.505 17.643-7.74 3.008-15.179 6.731-22.418 10.355-13.778 6.985-26.809 13.614-42.039 15.348-1.973.207-3.956.31-5.941.309-10.332 0-19.319-2.961-27.008-5.765-7.786-2.805-14.478-5.813-20.966-8.821-13.93-6.272-27.059-12.188-47.33-14.027a97.655 97.655 0 00-10.935-.558c-22.018 0-40.438 5.917-58.31 11.624-15.379 4.998-30.003 9.64-45.13 9.64a62.837 62.837 0 01-8.841-.559c-22.968-2.961-40.637-15.097-53.921-37.181-11.736-19.479-18.468-44.112-24.113-67.826-1.649-6.935-4.543-19.938-5.537-29.375-1.001-8.872.346-15.347 4.191-19.839 6.94-8.209 20.865-8.721 36.993-9.228 7.344-.255 14.875-.511 22.414-1.529 31.759-4.183 58.363-8.366 87.823-20.962 24.264-10.303 48.528-23.202 64.651-32.127 27.058-15.147 57.713-33.863 79.33-65.432h.797c-21.717 31.877-52.519 50.849-79.829 66.045-16.078 8.977-40.341 21.829-64.656 32.18-29.504 12.543-56.216 16.778-88.018 21.008-7.539.972-15.127 1.224-22.464 1.53-15.977.512-29.808.972-36.598 8.977-3.643 4.334-4.989 10.657-3.996 19.327 1.051 9.385 3.895 22.341 5.544 29.276 11.182 47.172 27.259 98.067 77.487 104.495 2.9.348 5.819.516 8.74.504 15.02 0 29.549-4.637 44.979-9.588 17.875-5.707 36.345-11.624 58.464-11.624 3.645 0 7.344.151 10.981.504 20.376 1.838 33.552 7.854 47.53 14.178 6.493 2.909 13.179 5.969 20.919 8.773 7.638 2.753 16.626 5.661 26.809 5.661a54.846 54.846 0 005.844-.308c15.076-1.682 28.056-8.261 41.832-15.194 7.239-3.672 14.683-7.446 22.469-10.402 22.166-8.515 43.838-14.636 62.608-17.697 4.74-.763 9.64-1.426 14.33-1.99 25.31-3.363 49.28-6.527 50.82-27.891-1.15-24.278-16.03-41.924-30.35-59.006-12.69-14.941-25.72-30.497-29.26-50.388-1.2-6.68-1.1-16.163.05-25.396 1.7-12.904 5.89-27.181 10.29-42.326 1.99-6.887 4.04-14.026 5.94-21.014 1.19-4.536 2.44-9.18 3.74-13.666.55-1.938 1.05-3.98 1.65-5.969h.7c-.6 2.094-1.2 4.13-1.7 6.173-1.3 4.49-2.55 9.077-3.79 13.668zm358.76 25.5c-6.79-10.758-12.88-23.714-12.98-45.34h.65c.15 21.422 6.14 34.326 12.88 44.984 8.59 13.515 20.97 21.62 34.15 30.244 3.94 2.6 7.93 5.201 11.83 8.005v.816c-4-2.857-8.14-5.557-12.19-8.21-13.17-8.671-25.65-16.833-34.34-30.5zM990.411 61.43c-4.043 9.285-8.287 18.768-9.682 28.711-3.947 27.234 9.83 44.934 23.111 62.118 9.14 11.677 17.67 22.696 20.32 36.261.53 2.706.64 5.474.35 8.215-.1 1.425-.2 2.952-.2 5.044v.105c-3.39 9.639-13.53 16.423-21.47 20.398-28.652 14.486-75.336 21.315-109.384 26.314a111.72 111.72 0 01-15.526 1.123c-13.231 0-25.511-2.293-38.491-4.689-13.88-2.555-28.256-5.257-44.835-5.257-4.392 0-8.886.204-13.226.559-.9.104-3.4.255-6.595.459-4.693.256-10.584.564-14.724.92-13.88 1.07-24.866 3.571-35.448 6.015-14.179 3.217-27.456 6.272-47.184 6.272-2.045 0-4.19-.047-6.336-.099-15.674-2.502-30.06-19.379-35.798-42.023-4.738-18.716-3.643-43.605 13.629-57.37 20.319-16.169 79.533-30.347 111.337-32.948 6.789-.61 12.428-.663 17.872-.663 6.089-.052 12.332-.099 20.52-.814 21.922-2.043 40.04-10.862 60.663-29.524 25.511-23.156 39.34-41.057 59.112-76.5A88.463 88.463 0 00924.411.284h.752a90.708 90.708 0 01-6.192 14.08c-19.774 35.539-33.603 53.443-59.261 76.697-20.67 18.769-38.942 27.642-61.011 29.683-8.185.763-14.479.815-20.568.815-5.695.052-11.031.104-17.826.663-31.702 2.653-90.711 16.727-111.03 32.843-16.977 13.514-17.978 38.147-13.334 56.66 5.645 22.335 19.872 39.009 35.251 41.511 2.095.052 4.19.099 6.235.099 19.577 0 32.955-3.107 47.036-6.272 10.633-2.444 21.614-4.945 35.545-6.015a813.914 813.914 0 0114.729-.972c3.195-.152 5.688-.303 6.59-.355 4.412-.434 8.843-.638 13.277-.611 16.625 0 31.057 2.653 44.932 5.257 12.985 2.396 25.214 4.636 38.394 4.636 5.162.033 10.32-.325 15.429-1.07 33.997-4.997 80.626-11.781 109.181-26.262 7.79-3.875 17.78-10.554 21.07-19.991.05-2.041.15-3.572.2-4.997.37-2.683.27-5.409-.3-8.058-2.64-13.311-11.13-24.325-20.17-35.955-13.425-17.238-27.259-35.088-23.261-62.624 1.447-9.995 5.639-19.636 9.734-28.863 1.595-3.624 3.297-7.395 4.745-11.17C999.8 36.699 1005.94 18.795 1009.83.284h.65c-3.95 18.618-10.09 36.67-15.325 50.034-1.446 3.718-3.098 7.494-4.744 11.113zm379.829 275.031c-9.24-10.502-17.42-21.725-26.11-33.553-13.78-18.769-28.01-38.148-46.38-54.159a72.492 72.492 0 01-3.8-3.88 55.644 55.644 0 00-3.49-3.567c-11.98-10.815-25.71-19.483-38.94-27.792-9.19-5.817-18.72-11.781-27.66-18.513-7.09-5.358-14.23-10.966-21.07-16.371-10.43-8.262-21.22-16.727-32.1-24.378-5.14-3.618-10.48-7.091-16.18-10.762-27.75-18.1-59.21-38.602-64-75.682-2.55-19.587 2.5-44.828 13.23-67.523h.7c-10.74 22.644-15.78 47.887-13.28 67.473 4.79 36.769 36.09 57.176 63.75 75.121 5.64 3.673 10.98 7.191 16.13 10.764 10.93 7.697 21.71 16.214 32.1 24.424 6.89 5.41 13.98 11.017 21.17 16.371 8.89 6.679 18.37 12.7 27.56 18.461 13.28 8.417 27.01 17.086 38.99 27.896 1.3 1.123 2.45 2.448 3.6 3.624a44.365 44.365 0 003.74 3.771c18.43 16.063 32.7 35.495 46.43 54.263 8.69 11.88 16.93 23.05 26.11 33.505a126.834 126.834 0 0068.7 40.493v.71a128.336 128.336 0 01-69.2-40.696zm40.94-26.414c-8.94-13.312-8.99-37.485-8.04-57.068.75-15.807.5-45.997-9.63-71.09-7.84-19.175-26.41-36.262-44.39-52.68-2.74-2.549-5.44-5.05-8.09-7.547-36-33.505-53.87-63.648-69.59-98.48-1.35-2.952-2.5-6.12-3.65-9.18a116.05 116.05 0 00-4.74-11.473c-.35-.763-.75-1.53-1.1-2.246h.75c.3.664.65 1.28 1 1.89a120.91 120.91 0 014.69 11.58c1.16 3.06 2.3 6.167 3.7 9.129 15.68 34.831 33.45 64.87 69.4 98.322 2.64 2.497 5.39 4.946 8.08 7.447 18.02 16.519 36.7 33.604 44.54 52.983 10.18 25.192 10.43 55.538 9.68 71.345-.95 19.531-.85 43.553 7.94 56.713 6.39 9.431 16.57 16.162 27.71 21.928v.762c-11.34-5.864-21.72-12.648-28.26-22.335zM1429.5 19c-4.34-4.584-6.19-11.729-6.19-18.716h.75c0 6.888 1.85 13.923 5.89 18.262 2.85 3.009 6.09 4.641 9.49 4.641v.663c-3.54-.003-6.99-1.685-9.94-4.85zm-205.09-7.9c9.49 11.42 16.43 27.03 23.12 42.125a404.79 404.79 0 013.04 6.836c9.79 21.52 21.92 48.346 35.2 66.651 7.19 10 19.07 17.185 31.65 24.789 17.82 10.758 36.25 21.928 43.44 42.43 2.59 7.395 2.64 15.499.1 25.651-2.5 5.662-6.84 8.518-12.83 8.518-9.89 0-21.57-7.807-26.36-11.985-9.54-8.214-17.93-19.583-25.96-30.654-4.35-5.865-8.79-12.032-13.39-17.643-2.24-2.606-9.93-11.577-16.37-15.452-15.28-9.181-34.85-16.22-55.57-23.667-28.81-10.297-58.51-20.955-77.03-38.3-9.89-9.073-15.73-23.353-16.23-39.061-.45-16.831 5.24-32.79 16.18-45.03a53.969 53.969 0 016.29-6.024h1.1a59.518 59.518 0 00-6.89 6.528 63.412 63.412 0 00-15.98 44.472c.4 15.505 6.24 29.632 15.93 38.608 18.47 17.186 48.18 27.844 76.83 38.141 20.77 7.446 40.34 14.486 55.67 23.713 6.64 4.033 14.33 13.009 16.52 15.657 4.7 5.562 9.14 11.737 13.48 17.698 8.04 10.967 16.33 22.288 25.82 30.445 4.74 4.131 16.27 11.882 25.96 11.882 5.74 0 9.83-2.705 12.23-8.11 2.44-9.896 2.39-17.902-.15-25.192-7.09-20.246-25.42-31.312-43.14-42.022-12.63-7.651-24.56-14.894-31.9-25.041-13.23-18.308-25.36-45.187-35.2-66.708-1-2.292-1.99-4.59-3.04-6.882-6.69-15.04-13.63-30.545-23.07-41.914A61.717 61.717 0 001211.63.284h1.15a63.89 63.89 0 0111.63 10.816zM960.407 185.561l-.052.105c-1.195 1.273-1.896 3.054-2.545 4.788l-.149.36-.102.204c-4.892 4.642-12.177 7.243-20.567 7.243-11.932 0-23.76-5.154-29.554-12.752a17.74 17.74 0 01-3.297-15.296c2.546-10.1 11.983-13.416 22.269-16.116l.046-.052.048.054c17.474 2.601 35.546 13.51 33.9 31.359v.105l.003-.002zm-33.903-30.801c-10.08 2.7-19.224 5.865-21.717 15.604a17.01 17.01 0 003.195 14.737c5.644 7.447 17.326 12.497 29.007 12.497 8.19 0 15.327-2.554 20.072-7.092l.097-.256c.7-1.78 1.4-3.619 2.597-4.997 1.7-19.834-20.963-28.607-33.251-30.493zm-146.979 42.53l-.251.459-.097.052c-10.736 6.884-28.506 11.474-44.186 11.474-10.332 0-28.356-2.089-33.048-16.32v-.052a17.75 17.75 0 015.299-13.106c6.783-7.138 20.313-11.521 35.241-11.521 18.921 0 39.34 7.446 39.642 23.97v.104l-.149.1a14.17 14.17 0 00-2.449 4.84h-.002zm-37.044-28.357c-14.729 0-28.106 4.387-34.802 11.322a17.582 17.582 0 00-5.091 12.549c4.594 13.766 22.32 15.807 32.4 15.807 15.526 0 33.048-4.536 43.787-11.321l.097-.308c.701-1.734 1.35-3.567 2.546-4.897-.342-15.908-20.413-23.152-38.935-23.152h-.002zM1255.02 522.96c3.79 16.575 7.74 33.813 6.14 59.517-12.64 44.725-27.56 78.484-45.48 103.321-4.2 5.765-9.34 12.339-15.83 17.642-9.29 7.599-22.52 12.085-35.25 12.085-12.83 0-23.81-4.486-30.9-12.8-7.89-9.128-10.79-22.283-8.64-39.061 1.25-9.385 4.6-19.281 7.89-28.869 3.3-9.536 6.69-19.379 7.89-28.758 4.84-36.467-10.44-74.255-40.69-101.03-12.83-11.426-26.11-20.654-38.85-29.579-13.83-9.739-28.1-19.786-41.63-32.332-20.573-19.019-43.834-40.644-47.679-73.234v-.151c2.444-15.406 7.137-31.265 24.315-42.587 9.734-6.475 20.514-9.483 33.894-9.483 11.44 0 23.17 2.193 35.65 4.486 13.43 2.448 27.31 4.997 41.74 4.997 3.54 0 7.04-.151 10.38-.407 6.84-.663 15.48-2.805 24.51-5.097 12.19-3.013 24.82-6.172 34.8-6.172 1.93-.015 3.85.139 5.74.459 13.48 2.088 27.76 14.022 38.69 24.174 18.23 16.877 35.4 34.471 38.25 48.958 1.1 5.66.75 14.736.05 21.314-1 9.995-3.15 18.461-5.14 26.623-3.55 14.58-7.24 29.677-5.45 53.798.9 11.736 3.15 21.731 5.6 32.186zm-.8-86.134c1.99-8.158 4.09-16.622 5.09-26.519.7-6.58 1.05-15.554 0-21.113-2.8-14.33-19.92-31.824-38.05-48.65-10.88-10.047-25.06-21.88-38.34-24.022a37.976 37.976 0 00-5.64-.355c-9.93 0-22.51 3.107-34.64 6.168-9.09 2.245-17.73 4.386-24.57 5.05-3.39.308-6.89.461-10.48.459-14.48 0-28.41-2.548-41.84-5.097-12.48-2.245-24.21-4.438-35.55-4.438-13.23 0-23.91 3.007-33.595 9.384-16.92 11.217-21.518 26.821-23.962 42.174 3.844 32.283 26.958 53.752 47.427 72.771 13.58 12.497 27.81 22.492 41.59 32.184 12.83 8.972 26.01 18.257 38.94 29.73 30.46 26.873 45.78 64.87 40.94 101.587-1.25 9.433-4.64 19.275-7.94 28.863-3.3 9.541-6.69 19.431-7.84 28.763-2.2 16.575.7 29.532 8.49 38.556 6.94 8.11 17.67 12.544 30.35 12.544 12.58 0 25.61-4.487 34.85-11.933 6.39-5.257 11.53-11.828 15.67-17.542 17.93-24.732 32.76-58.446 45.39-103.064 1.6-25.5-2.35-42.687-6.2-59.162-2.44-10.554-4.69-20.55-5.54-32.333-1.79-24.224 1.85-39.368 5.45-54.005zm-40.94 84.401c-.7 3.007-1.15 6.068-1.7 9.433-1.8 11.729-3.94 25.139-15.72 31.464l-.11.052h-.09c-14.33-1.019-23.37-14.074-32.96-27.845-3.44-4.893-6.93-9.995-10.72-14.434-21.12-24.936-44.94-41.459-67.95-57.47-16.18-11.274-31.5-21.933-45.04-34.832-4.34-2.193-7.29-6.021-10.08-9.692-2.15-2.752-4.34-5.713-7.24-7.954-12.38-15.812-16.47-34.325-10.44-47.072 3.8-8.058 13.28-17.698 36.95-17.698 3.19 0 6.54.204 9.98.511 7.6.768 16.33 2.397 25.47 4.131 10.18 1.886 21.72 4.033 33.35 5.306 2.44.256 4.74.459 7.04.763 31.05 3.164 49.77 5.201 68.45 27.641 13.27 16.063 20.36 35.902 22.36 62.525 1.2 17.034.25 35.698-.6 52.117-.45 8.264-.85 16.066-.95 23.054zm.85-75.116c-1.95-26.472-9.04-46.154-22.17-62.066-18.47-22.387-36.05-24.173-68-27.542-2.29-.204-4.59-.459-7.04-.71-11.68-1.279-23.21-3.42-33.4-5.305-9.13-1.682-17.82-3.369-25.41-4.079a96.51 96.51 0 00-9.94-.564c-23.32 0-32.65 9.433-36.39 17.343-5.85 12.543-1.85 30.748 10.33 46.252 2.9 2.298 5.14 5.202 7.34 8.006 2.9 3.875 5.6 7.447 9.84 9.536l.1.052c13.53 12.956 28.86 23.615 45.03 34.832 23.07 16.063 46.83 32.586 68.05 57.627 3.79 4.386 7.29 9.488 10.73 14.434 9.49 13.614 18.43 26.518 32.4 27.536 11.48-6.167 13.43-18.763 15.33-30.905.55-3.363 1-6.475 1.65-9.433.1-6.935.55-14.69.95-22.952.85-16.416 1.84-35.08.6-52.062zm-432.602-6.225c-5.092 48.446-9.887 94.244-46.88 126.987-24.863 21.981-65.053 45.386-103.544 45.386-23.465 0-42.732-8.872-57.319-26.419-12.579-15.249-19.066-33.046-26.511-53.7-.799-2.292-1.641-4.59-2.491-6.985-1.498-3.974-2.945-7.901-4.392-11.78-8.287-22.336-16.128-43.344-18.072-60.839-4.349-38.503 9.331-54.007 26.258-69 26.36-23.307 60.66-25.041 97.006-26.926 8.59-.46 18.77-1.378 29.498-2.397 16.927-1.584 36.051-3.316 52.077-3.316 17.274 0 28.609 1.99 34.748 6.172 25.762 17.442 22.669 59.821 20.22 77.158l-.598 5.659zm-19.969-82.208c-6.043-4.13-17.275-6.12-34.401-6.12-15.976 0-35.149 1.786-52.026 3.368-10.728.967-20.916 1.938-29.499 2.345-36.244 1.833-70.452 3.619-96.609 26.774-16.827 14.842-30.355 30.244-26.057 68.437 1.944 17.343 9.785 38.351 18.022 60.639 1.447 3.928 2.944 7.849 4.341 11.828.9 2.298 1.743 4.643 2.549 6.985 7.438 20.555 13.882 38.299 26.453 53.496 14.385 17.39 33.451 26.212 56.772 26.212 38.239 0 78.379-23.411 103.094-45.339 36.844-32.487 41.588-78.181 46.629-126.476l.648-5.708c2.495-17.231 5.493-59.255-19.917-76.441h.001zm-15.378 90.166c-4.443 41.814-8.241 77.921-41.392 104.694-15.372 12.497-43.179 27.083-70.69 27.083-13.68 0-25.214-3.62-34.351-10.811-25.855-20.45-37.095-62.984-38.887-93.173-2.052-34.884 10.483-65.533 33.494-81.852 21.118-15.046 47.981-16.575 76.486-18.158 6.242-.303 12.434-.658 18.626-.658 17.87 0 39.935 2.292 51.224 20.09 6.487 13.515 6.088 29.375 5.638 44.676-.053 2.751-.099 5.404-.15 8.109h.002zm-6.094-52.477c-11.083-17.442-32.904-19.74-50.62-19.74-6.192 0-12.334.308-18.626.716-28.311 1.584-55.117 3.007-76.133 17.953-22.767 16.215-35.201 46.662-33.156 81.289 1.749 30.09 12.938 72.415 38.649 92.714 8.986 7.087 20.362 10.711 33.898 10.711 27.31 0 54.965-14.586 70.344-27.03 32.848-26.623 36.492-60.891 41.04-104.188.051-2.653.102-5.306.251-8.058.343-15.249.742-31.009-5.648-44.367h.001zm413.333 45.793l-.15.104c-.99.741-1.9 1.596-2.7 2.549a13.263 13.263 0 01-3.39 2.961l-.05.046h-.15c-18.92-3.414-40.44-13.465-56.16-26.157-6.25-5.05-13.54-11.938-14.98-20.554l-.05-.152.1-.157a28.907 28.907 0 013.1-3.514c.85-.82 1.65-1.585 2.39-2.449l.06-.156h.14c2.96-.309 5.92-.46 8.89-.454 16.48 0 38.95 5.096 52.42 19.326 7.39 7.902 10.94 17.442 10.54 28.456v.152l-.01-.001zm-11.03-28.147c-13.29-14.126-35.55-19.122-51.93-19.122-2.9-.006-5.8.146-8.69.455-.74.864-1.54 1.686-2.29 2.448-1.11.983-2.1 2.096-2.95 3.316 1.45 8.365 8.59 15.096 14.68 19.993 15.63 12.648 36.99 22.643 55.77 26.058 1.15-.75 2.18-1.679 3.04-2.752.82-.943 1.73-1.813 2.7-2.601.35-10.714-3.04-20.046-10.33-27.795zM676.88 533.519c-11.081 7.345-23.465 11.321-34.949 11.321-15.127 0-27.806-6.679-36.842-19.379-20.967-29.524-11.484-85.372 18.576-108.574 8.136-6.376 22.061-13.922 41.983-13.922 4.807 0 9.604.427 14.335 1.274 21.017 3.619 31.947 20.602 31.594 49.01-.295 21.574-5.235 60.74-34.697 80.27zm2.995-128.617a85.547 85.547 0 00-14.227-1.224c-19.721 0-33.502 7.441-41.638 13.718-14.177 11.018-24.415 29.829-28.058 51.763-3.593 21.416.05 42.269 9.734 55.945 8.842 12.491 21.42 19.019 36.245 19.019 11.34 0 23.667-3.927 34.603-11.17 29.153-19.328 34.049-58.238 34.344-79.706.403-28.045-10.382-44.771-31.003-48.344v-.001zm675.545 318.996c-2.75 5.091-5.4 9.995-8.54 14.02l-.15.151c-4.34 5.761-11.73 15.353-22.02 13.768-11.08-1.677-25.71-15.143-23.07-34.93 2.1-15.807 12.48-27.385 32.71-36.414 1.29-.559 2.59-1.17 3.94-1.734 9.73-4.176 18.97-8.157 23.22-17.642 4.39-18.763 5.24-44.059 6.19-70.938.74-22.235 1.55-45.283 4.49-64.92 5.64-37.893 24.61-60.432 58.02-69.053a80.046 80.046 0 019.23-1.937v.715c-3.07.448-6.1 1.078-9.09 1.885-33.1 8.465-51.92 30.905-57.51 68.489-2.9 19.636-3.7 42.634-4.49 64.87-.9 26.878-1.8 52.222-6.2 71.142-4.39 9.793-13.73 13.77-23.61 18.002-1.35.611-2.65 1.118-3.95 1.733-19.97 8.873-30.2 20.294-32.25 35.903-2.59 19.329 11.63 32.485 22.47 34.113 9.88 1.534 17.12-7.849 21.42-13.415l.15-.152c3.09-4.075 5.74-8.871 8.48-13.97 8.64-15.96 17.58-32.483 43.14-28.149 12.08 1.993 25.66 8.568 41.44 19.942v.864c-15.88-11.522-29.46-18.152-41.54-20.142-25.11-4.231-33.95 12.087-42.48 27.799zm67.44-90.472c-14.78-16.628-22.66-41.209-21.66-67.523 1-25.347 10.28-48.498 24.86-62.013a38.892 38.892 0 0113.38-6.423v.658a40.186 40.186 0 00-12.93 6.224c-14.48 13.466-23.66 36.462-24.66 61.554-1 26.111 6.84 50.592 21.47 67.113a96.574 96.574 0 0016.12 14.128v.815a90.003 90.003 0 01-16.58-14.533zm-599.847 4.435c.648-4.537 2.694-9.995 4.392-14.33 14.078-35.798 47.13-73.335 71.143-94.549 16.477-14.539 30.157-23.051 40.642-25.197a33.064 33.064 0 017.24-.762c28.656 0 63.85 29.782 66.05 55.893a20.742 20.742 0 01-.75 3.827c-.4 1.938-.9 3.875-.7 5.964v.104l-.05.048a536.17 536.17 0 01-34.449 68.745c-5.688 9.587-11.431 18.767-18.972 26.47-18.22 18.613-49.973 31.668-77.032 31.668-14.976 0-27.51-3.875-37.243-11.369-16.278-12.601-23.119-28.257-20.271-46.512zm57.514 57.172c26.911 0 58.414-12.956 76.536-31.468 7.488-7.599 13.231-16.779 18.921-26.263a541.26 541.26 0 0034.346-68.594c-.07-2.07.2-4.139.8-6.12.32-1.209.57-2.436.75-3.673-2.25-25.803-37.093-55.177-65.451-55.177a35.735 35.735 0 00-7.142.663c-10.383 2.193-23.962 10.606-40.336 25.087-23.916 21.217-56.865 58.598-70.898 94.297-1.697 4.282-3.744 9.687-4.443 14.178-2.745 18.002 4.044 33.453 20.123 45.846 9.586 7.395 21.968 11.222 36.794 11.222v.002zm5.143-114.492c14.427-13.462 31.604-23.207 44.932-25.347a39.484 39.484 0 017.188-.663c8.287 0 14.928 2.652 19.82 7.854 5.741 6.068 8.589 15.603 8.136 26.826-5.843 25.651-11.732 46.509-29.405 61.199-11.135 9.384-28.308 15.452-43.583 15.452-18.374 0-31.104-8.622-34.902-23.563-1.094-4.438-.895-10.862-.246-15.3 2.196-14.89 12.432-31.826 28.06-46.458zm-27.111 61.554c3.696 14.685 16.124 23.051 34.2 23.051 15.173 0 32.1-6.016 43.184-15.249 17.474-14.585 23.312-35.291 29.156-60.791.449-10.961-2.398-20.294-7.986-26.314-4.693-4.999-11.237-7.547-19.324-7.547a44.445 44.445 0 00-7.091.611c-27.658 4.537-67.744 39.882-72.488 71.246-.597 4.334-.797 10.658.349 14.992v.001zm-664.05-629.21c-16.128 8.006-35.1 8.82-50.825 2.24A50.218 50.218 0 01124.013.286h.8a47.772 47.772 0 0019.065 14.177c15.581 6.58 34.402 5.765 50.328-2.14 5.192-2.549 10.088-6.58 14.782-12.038h.893c-4.846 5.818-9.987 9.948-15.372 12.601zm571.89 27.996c-6.294 4.537-12.285 9.385-18.072 14.022-14.028 11.223-27.259 21.73-41.841 26.727-16.32 8.309-31.929 12.472-46.829 12.492a75.916 75.916 0 01-35.294-8.617c-32.853-16.88-51.372-53.749-58.464-85.22h.698c7.092 31.213 25.409 67.882 58.061 84.61 24.415 12.544 51.876 11.218 81.576-3.88 14.532-4.945 27.712-15.5 41.694-26.721 5.787-4.59 11.779-9.384 18.118-13.975 6.794-4.946 13.834-9.74 20.669-14.33 12.382-8.414 24.517-16.623 35.199-25.705h1.099c-10.885 9.338-23.266 17.698-35.945 26.268-6.84 4.637-13.88 9.38-20.669 14.33zm-235.953 12.8c-4.442 11.014-14.227 16.371-29.901 16.371-7.935 0-16.171-1.378-22.817-2.501h-.194a26.759 26.759 0 00-4.644-.355c-6.243 0-12.637 1.885-18.771 3.723-3.146.967-6.494 1.938-9.691 2.601-2.599.61-5.141 1.07-7.69 1.63-10.526 2.093-21.463 4.287-31.348 8.924a389.82 389.82 0 01-11.78 5.306c-19.274 8.517-39.196 17.337-52.12 34.476-.807 1.071-1.498 2.142-2.254 3.212-9.029 13.667-16.877 28.352-24.358 42.582-8.496 16.063-17.272 32.539-27.864 47.631-10.231 14.737-24.012 31.009-37.339 46.765a3051.366 3051.366 0 00-13.234 15.813c-21.168 25.598-41.133 49.72-77.983 49.72h-.05c-9.439 0-19.419-1.53-30.651-4.591-31.903-8.767-88.221-30.701-107.488-78.228-5.098-12.596-8.49-30.194-12.09-48.754-2.742-14.027-5.586-28.56-9.186-40.644v-2.297c3.952 12.543 6.948 27.949 9.792 42.785 3.643 18.616 7.034 36.111 12.081 48.655 19.174 47.323 75.284 69.052 107.036 77.82 11.188 3.113 21.175 4.591 30.506 4.591h.05c36.497 0 56.42-24.017 77.436-49.517 4.241-5.102 8.64-10.304 13.277-15.761 13.284-15.754 27.065-32.074 37.346-46.712 10.484-15.045 19.268-31.62 27.756-47.579 7.539-14.23 15.38-28.967 24.416-42.639.698-1.071 1.497-2.24 2.296-3.264 13.033-17.233 32.998-26.11 52.323-34.675a630.041 630.041 0 0011.779-5.306c9.987-4.69 20.923-6.883 31.507-9.024a362.619 362.619 0 007.69-1.584c3.139-.716 6.437-1.681 9.633-2.601 6.192-1.839 12.579-3.776 18.973-3.776 1.585.011 3.168.132 4.737.36l.303.047c6.537 1.123 14.731 2.449 22.615 2.449 15.328 0 24.962-5.202 29.26-15.86 4.486-10.967 2.989-29.58 1.649-46.05-.201-2.501-.403-4.846-.554-7.144h.698c.151 2.298.303 4.643.504 7.092 1.34 16.527 2.794 35.243-1.656 46.309zM254.319 21.194C234.497 48.63 199.297 64.95 160.208 64.95c-9.435.03-18.844-.979-28.059-3.007C97.395 54.089 86.271 29.868 81.325.284h.648c1.548 9.385 3.7 18.158 7.041 26.068 8.035 18.972 21.816 30.085 43.236 34.931a128.08 128.08 0 0027.958 3.008c38.887 0 73.836-16.267 93.557-43.501 2.196-5.812 4.046-12.852 5.846-20.503h.699a181.457 181.457 0 01-5.94 20.863l-.051.044zM443.83 35.529c-17.676 2.6-34.545 7.953-50.774 13.154-10.483 3.37-21.362 6.836-32.4 9.536a239.684 239.684 0 01-20.319 4.079 114.473 114.473 0 01-16.725 1.483c-9.684 0-15.427-2.04-17.23-6.12-4.932-10.863-8.733-34.478-8.935-57.377h.648c.202 22.8 4.003 46.259 8.842 57.12 1.699 3.776 7.336 5.661 16.675 5.661a113.526 113.526 0 0016.625-1.426 241.517 241.517 0 0020.268-4.083c11.03-2.7 21.816-6.168 32.306-9.536 16.322-5.201 33.199-10.606 50.969-13.206 17.474-2.549 31.406-14.79 39.593-34.53h.749c-8.288 20.147-22.472 32.592-40.292 35.245zM54.462 17.93c.9 25.093 1.699 46.817 18.021 59.616 16.978 13.416 46.634 17.239 68.306 19.996 2.146.303 4.292.611 6.286.864 3.857.516 7.744.77 11.635.763 22.068 0 45.584-7.599 68.35-14.894 20.361-6.476 41.378-13.26 61.056-14.429h.05l.051.053c11.232 3.264 14.025 15.5 12.931 25.851-3.197 40.441-17.129 73.539-48.233 114.28-6.235 8.162-12.132 16.475-17.77 24.533-9.691 13.562-18.77 26.466-29.404 38.602-15.927 18.31-35.9 27.49-59.415 27.49-27.259 0-57.91-12.951-84.124-35.645-27.008-29.884-31.054-69.459-32.897-107.451-.151-2.961-.202-6.021-.303-9.332-.403-15.248-.842-34.273-8.186-43.657C14.372 96.308 6.79 89.932-1.007 84.324v-.815c7.992 5.713 15.732 12.136 22.37 20.706 7.438 9.483 7.891 28.607 8.338 43.96.1 3.312.15 6.423.302 9.332 1.793 37.84 5.84 77.362 32.695 107.044 26.064 22.539 56.52 35.496 83.628 35.496 23.314 0 43.186-9.234 58.911-27.286 10.591-12.189 19.728-24.988 29.354-38.655 5.645-8.006 11.535-16.267 17.777-24.483 31.003-40.644 44.935-73.69 48.074-113.98 1.102-9.994-1.541-21.927-12.377-25.092-19.519 1.175-40.492 7.854-60.811 14.382-22.817 7.295-46.375 14.894-68.544 14.894a97.155 97.155 0 01-11.736-.768c-1.994-.303-4.14-.559-6.293-.815-21.715-2.804-51.516-6.679-68.544-20.142-16.624-13.055-17.423-34.832-18.374-60.18-.194-5.248-.346-10.705-.691-16.162a12.997 12.997 0 01-.159-1.484h.706c0 .512.05.92.05 1.431.397 5.518.598 10.923.793 16.223zM15.02 6.05c-.742 9.433-8.23 17.797-16.027 17.797v-.714c7.495 0 14.637-8.006 15.329-17.134.2-1.899.216-3.812.05-5.714h.648a31.46 31.46 0 010 5.765zm93.117 126.273c4.596.027 9.178.505 13.68 1.426 10.181 2.041 21.068 5.305 32.653 8.773 12.923 3.874 26.409 7.953 39.189 10.198 11.83 2.194 16.971 7.547 15.624 16.471v.053c-4.14 8.924-7.337 18.866-10.735 29.374-7.286 22.951-14.883 46.663-33.3 59.006-8.683 5.761-19.275 8.82-30.6 8.82-18.425 0-37.253-7.855-50.53-21.061-10.879-10.915-18.82-28.66-21.261-47.48-2.6-19.839 1.296-38.655 10.728-51.611 6.293-8.617 19.57-13.969 34.552-13.969zm-23.522 112.55c13.133 13.106 31.86 20.909 50.033 20.909 11.232 0 21.665-3.008 30.254-8.768 18.274-12.188 25.762-35.75 33.099-58.597 3.34-10.507 6.494-20.451 10.634-29.375 1.246-8.569-3.492-13.568-15.077-15.604-12.78-2.35-26.309-6.324-39.341-10.251-11.484-3.468-22.42-6.732-32.507-8.773a69.912 69.912 0 00-13.573-1.379c-14.781 0-27.806 5.256-33.998 13.718-20.52 28.046-11.037 76.649 10.476 98.117v.003zm788.328 191.142c-3.395 6.58-6.892 13.364-9.785 20.095-2.597 5.761-5.194 11.828-7.74 17.745-15.526 36.053-31.554 73.387-54.917 103.32-8.937 11.474-19.77 22.44-30.204 33.151-10.035 10.147-19.472 19.682-27.014 29.375a145.778 145.778 0 00-9.883 14.53c-6.441 10.198-12.528 19.839-22.671 26.466l-.094.052-2.902-.204c-38.736-2.345-72.237-4.387-107.935-11.013-25.358-4.695-43.337-9.739-53.273-14.946-20.52-10.758-26.107-29.986-32.097-50.384a234.004 234.004 0 01-1.894-6.376c-8.69-28.863-21.276-58.138-53.87-76.442l-.101-.156c-.252-.304-.504-.612-.799-.914-6.747-3.624-13.479-7.296-20.268-10.967-11.787-6.324-23.969-12.956-36-19.275-5.191-2.757-10.339-5.617-15.43-8.314-7.884-4.335-16.07-8.773-24.156-12.904-5.594-2.752-10.541-6.58-15.429-10.251-1.203-.919-2.448-1.885-3.651-2.804-4.493-3.369-9.482-6.784-15.17-9.024-10.685-4.288-22.522-4.794-33.898-5.358-9.893-.407-20.073-.919-29.657-3.776-9.136-2.7-15.48-5.097-20.772-13.055-17.121-25.492-8.438-44.574 5.595-68.692 14.774-25.297 32.745-45.032 53.467-58.599a92.656 92.656 0 0111.628-6.219c4.349-2.089 8.791-4.23 12.78-7.087 4.651-3.263 9.144-6.836 13.486-10.303 3.549-2.804 7.142-5.713 10.828-8.465 15.034-11.066 33.005-23.359 53.18-30.597 6.681-2.397 14.623-2.856 20.116-2.856a87.242 87.242 0 0116.272 1.477c6.243 1.225 11.283 4.026 16.625 7.035 2.247 1.279 4.644 2.605 7.092 3.827 2.693 1.225 5.494 2.194 8.187 3.16a60.314 60.314 0 0110.382 4.386c8.194 4.591 16.128 9.949 23.767 15.15 7.387 4.998 15.027 10.146 22.867 14.633 37.044 21.27 68.796 33.254 99.699 37.839a189.28 189.28 0 0027.813 2.094 181.257 181.257 0 0034.15-3.211c8.683-1.635 17.618-4.183 26.309-6.684 15.225-4.335 30.899-8.818 46.28-8.818a64.59 64.59 0 0123.363 4.026c14.677 5.51 27.76 16.936 41.64 29.073 7.085 6.167 14.376 12.543 22.316 18.611 1.794 1.327 4.043 2.909 6.589 4.695 5.639 4.078 12.679 9.073 18.72 14.278 11.232 9.843 14.328 18.82 10.634 31.108-3.094 10.096-8.437 20.553-14.178 31.565l.003.003zm3.144-62.118c-6.043-5.248-13.032-10.199-18.72-14.278-2.546-1.786-4.744-3.362-6.544-4.741-7.985-6.016-15.326-12.444-22.413-18.617-13.783-12.084-26.809-23.458-41.389-28.962a65.857 65.857 0 00-23.164-4.033c-15.281 0-30.904 4.486-46.084 8.872-8.734 2.501-17.669 5.05-26.41 6.732a186.159 186.159 0 01-34.243 3.164 183.288 183.288 0 01-27.864-2.094c-31.097-4.59-62.856-16.674-100.001-37.939-7.833-4.491-15.472-9.693-22.91-14.637-7.596-5.202-15.581-10.507-23.666-15.098a62.597 62.597 0 00-10.289-4.334 74.123 74.123 0 01-8.23-3.264c-2.505-1.17-4.896-2.549-7.142-3.771-5.343-2.961-10.332-5.818-16.431-6.985a86.446 86.446 0 00-16.171-1.53c-5.443 0-13.277.559-19.922 2.903-20.016 7.191-38.045 19.485-52.971 30.551a307.813 307.813 0 00-10.836 8.412c-4.392 3.421-8.884 6.985-13.478 10.304a91.483 91.483 0 01-12.931 7.139 89.676 89.676 0 00-11.484 6.172c-20.664 13.567-38.592 33.197-53.266 58.342-13.932 23.969-22.514 42.89-5.645 68.029 5.192 7.802 11.434 10.1 20.369 12.753 9.533 2.904 19.728 3.313 29.513 3.822 11.477.46 23.306 1.019 34.193 5.353 5.688 2.246 10.685 5.713 15.228 9.082 1.303.914 2.498 1.885 3.693 2.804 4.846 3.672 9.836 7.494 15.279 10.251 8.186 4.079 16.329 8.512 24.213 12.8 5.04 2.751 10.289 5.66 15.473 8.36a3785.926 3785.926 0 0135.95 19.281 1947.197 1947.197 0 0020.318 11.013l.101.052c.309.298.594.621.85.966 32.752 18.513 45.331 47.886 54.072 76.855a432.614 432.614 0 011.893 6.377c5.94 20.246 11.585 39.369 31.803 49.923 9.936 5.257 27.756 10.304 53.071 14.946 35.647 6.625 69.149 8.669 107.885 11.013l2.649.152c9.987-6.528 16.025-16.011 22.415-26.158a161.44 161.44 0 019.887-14.585c7.638-9.693 17.075-19.328 27.059-29.427 10.435-10.711 21.319-21.725 30.153-33.15 23.318-29.884 39.391-67.163 54.871-103.118 2.546-5.917 5.143-11.985 7.689-17.745 2.996-6.732 6.488-13.568 9.882-20.147 5.64-11.067 10.984-21.364 14.075-31.517 3.594-11.934.649-20.708-10.383-30.295l.003.002zm-62.208 108.37l-1.296 5.051c-13.532 51.404-33.603 81.901-74.143 112.242l-.945.767c-21.821 16.32-40.692 30.498-61.658 37.277-10.491 3.472-23.321 5.256-37.044 5.256h-.051c-18.223 0-36.799-3.263-49.629-8.668-33.898-14.33-46.325-44.624-60.603-79.811-18.777-46.049-51.681-105.618-101.556-127.953-9.029-4.026-17.769-4.847-27.007-5.714-3.542-.302-7.236-.71-10.98-1.224-14.134-2.041-29.909-4.997-48.326-9.073-2.6-.512-5.199-1.123-7.791-1.734-13.485-3.06-31.305-11.734-37.145-26.011-4.341-10.554-3.693-20.195 1.743-28.607 16.279-24.994 72.345-33.557 95.364-33.61h.446c10.188 0 20.621 1.071 30.701 2.141 5.738.611 11.635 1.274 17.323 1.634 9.691.711 17.583 3.52 27.317 9.74 10.03 6.423 20.815 9.483 33.847 9.483 9.735 0 19.62-1.629 30.053-3.312 3.146-.564 6.444-1.07 9.734-1.584 13.68-2.043 28.311-2.962 46.181-2.962 11.081 0 22.27.361 33.048.716 10.735.308 21.773.663 32.652.663 19.822 0 35.799-1.224 50.48-3.823 4.291-.82 8.935-1.937 13.874-3.112 10.584-2.601 22.569-5.556 34.599-5.556a60.573 60.573 0 0118.174 2.548c27.811 8.564 51.072 43.297 55.368 70.426 1.6 10.153 1.35 20.554-.701 32.743-3.197 18.559-7.486 34.831-12.031 52.065l.002.002zm12.027-84.702c-4.243-26.932-27.258-61.352-54.814-69.867a61.931 61.931 0 00-18.026-2.555c-11.979 0-23.91 2.909-34.448 5.51-4.888 1.228-9.583 2.344-13.924 3.168-14.681 2.648-30.709 3.823-50.58 3.823-10.88 0-21.917-.308-32.652-.663-10.779-.356-21.968-.716-33.048-.716-17.77 0-32.451.972-46.081 2.961-3.297.559-6.588 1.071-9.734 1.584-10.483 1.682-20.369 3.265-30.154 3.265-13.132 0-24.062-3.014-34.25-9.489-9.633-6.173-17.424-8.925-26.964-9.64a665.462 665.462 0 01-17.316-1.63c-10.037-1.07-20.52-2.14-30.657-2.14h-.447c-22.918.051-78.631 8.517-94.766 33.249-5.336 8.209-5.94 17.642-1.692 28.048 5.745 14.027 23.313 22.539 36.64 25.599 2.549.564 5.149 1.123 7.74 1.734 18.425 4.032 34.201 6.985 48.327 9.029 3.701.512 7.394.864 10.937 1.175 9.288.914 18.122 1.734 27.209 5.812 50.126 22.388 83.073 82.103 101.951 128.309 14.228 34.984 26.554 65.225 60.207 79.403 12.78 5.405 31.198 8.622 49.378 8.622h.05c13.68 0 26.41-1.786 36.842-5.154 20.866-6.732 39.644-20.858 61.507-37.229l.95-.763c40.337-30.244 60.357-60.587 73.839-111.837l1.296-5.05c4.59-17.239 8.885-33.557 11.983-52.019 2.098-12.145 2.295-22.495.697-32.539zM1046.83 65.87c-1.15 9.587-2.6 27.384.64 39.317 5.4 19.688 20.98 36.619 36 53.042 21.27 23.098 43.24 47.022 36.5 78.994-3.65 17.234-12.73 27.944-27.96 32.791-13.18 4.229-29.41 3.672-47.68 2.652-33.35-1.89-55.964 3.723-69.098 8.82-13.277 5.202-25.46 13.771-37.341 22.132-15.878 11.17-30.903 21.777-47.88 24.123a49.354 49.354 0 01-18.772-.767c-15.879-3.572-27.864-11.729-40.541-20.398-21.568-14.638-43.833-29.834-87.068-21.014-9.488 1.891-18.92 4.794-28.91 7.807-31.853 9.635-64.801 19.531-101.643-.413-33.3-17.081-54.273-48.445-74.491-78.792-9.432-14.126-19.217-28.81-30.003-41.662-13.831-16.423-32.659-38.911-55.771-31.108-9.281 3.06-18.864 4.59-28.159 6.068-14.724 2.397-29.901 4.846-43.582 13.614-9.784 6.277-17.373 15.202-24.76 23.87-3.449 4.027-7.042 8.21-10.786 12.084-8.287 8.518-14.976 18.565-21.47 28.253-5.544 8.261-11.232 16.731-17.921 24.329-8.986 8.105-16.87 15.195-26.057 23.662-11.088 10.351-21.226 22.644-31.01 34.472-18.764 22.799-36.439 44.268-59.559 51.203-16.322 4.946-33.199 4.282-54.72-2.042-11.477-3.415-26.654-9.995-37.339-14.993a499.043 499.043 0 01-65.203-36.717 90.778 90.778 0 01-33.257-41.255v-1.785a89.957 89.957 0 0033.56 42.43 503.19 503.19 0 0065.195 36.717c10.635 4.945 25.762 11.577 37.196 14.945 21.47 6.272 38.195 6.936 54.367 2.089 22.917-6.883 40.543-28.305 59.263-51.001 9.785-11.828 19.922-24.172 31.104-34.523a2033.19 2033.19 0 0126.013-23.714c6.639-7.499 12.276-16.011 17.821-24.226 6.487-9.686 13.283-19.73 21.52-28.304 3.795-3.875 7.337-8.058 10.779-12.136 7.394-8.669 15.033-17.643 24.912-23.918 13.788-8.872 29.059-11.322 43.841-13.666 9.28-1.53 18.871-3.06 28.007-6.121 23.559-7.907 42.632 14.737 56.513 31.312 10.836 12.957 20.571 27.542 30.053 41.715 20.225 30.346 41.09 61.658 74.189 78.588 36.648 19.839 69.494 9.943 101.246.36 9.988-3.012 19.425-5.864 28.959-7.807 43.441-8.812 65.857 6.382 87.522 21.119 12.633 8.622 24.565 16.732 40.392 20.299a48.608 48.608 0 0018.471.716c16.776-2.246 31.804-12.8 47.627-24.023 11.835-8.313 24.166-16.982 37.494-22.184 13.133-5.097 35.847-10.757 69.347-8.872 31.3 1.786 66.85 3.823 74.99-34.884 6.59-31.612-15.23-55.433-36.35-78.432-15.13-16.475-30.75-33.458-36.14-53.292-3.15-11.374-2.15-27.795-.75-39.573 2.3-18.925 7.73-38.352 13.53-58.855.6-2.193 1.2-4.386 1.84-6.632h.7c-.64 2.298-1.29 4.543-1.94 6.836-5.75 20.503-11.24 39.83-13.43 58.75z" fill="#000" fill-opacity=".3"/></svg>